<svg xmlns="http://www.w3.org/2000/svg" xmlns:xlink="http://www.w3.org/1999/xlink" width="3555.5555pt" height="2222.2222pt" viewBox="0 0 3555.5555 2222.2222"><g><g id="Layer-1" data-name="Layer"><clipPath id="cp0"><path transform="matrix(2.7777777,0,0,-2.7777777,0,2222.2222)" d="M 0 800 L 1280 800 L 1280 0 L 0 0 Z "></path></clipPath><g clip-path="url(#cp0)"><path transform="matrix(2.7777777,0,0,-2.7777777,747.3945,1164.5833)" d="M 0 0 C 50.308 -5.118 69.125 -34.419 70.33 -61.219 C 71.39 -84.837 60.322 -119.705 1.445 -124.244 L -136.241 -124.244 L -136.241 -1.441 Z M 251.738 164.734 L 309.353 163.919 C 423.129 165.314 459.891 84.702 459.48 19.66 C 459.136 -34.369 437.414 -124.207 309.353 -123.881 L 250.296 -123.162 Z M -30.926 165.093 C 18.45 156.211 28.278 128.247 28.403 107.115 C 28.535 84.151 15.557 54.096 -30.926 51.757 L -136.599 52.117 L -136.599 164.369 Z M -228.386 217.117 L -226.225 -177.083 L 41.926 -175.545 C 70.14 -172.687 101.878 -165.948 124.065 -148.681 C 136.249 -139.195 148.391 -126.646 156.344 -110.539 L 156.344 -176.27 L 353.084 -174.826 C 512.168 -164.163 566.044 -54.378 565.245 17.582 C 564.41 92.611 514.657 207.895 335.592 216.4 L 156.344 217.118 L 156.344 -22.627 C 145.75 .776 122.98 23.559 74.024 37.15 C 111.154 58.333 127.88 91.374 123.975 126.052 C 120.258 159.04 106.22 203.942 20.107 215.675 L -228.386 217.117 " fill="#0952a1"></path><path transform="matrix(2.7777777,0,0,-2.7777777,2799.1346,660.66079)" d="M 0 0 C 74.198 0 134.35 -71.985 134.35 -160.764 C 134.35 -249.547 74.197 -321.526 0 -321.526 C -74.202 -321.526 -134.339 -249.547 -134.339 -160.764 C -134.339 -71.985 -74.202 0 0 0 M -1.26 47.246 C -129.856 47.246 -234.064 -46.559 -234.064 -162.204 C -234.064 -277.843 -129.856 -371.57 -1.26 -371.57 C 127.334 -371.57 231.636 -277.841 231.636 -162.204 C 231.636 -46.56 127.334 47.246 -1.26 47.246 " fill="#f5bc13"></path></g></g></g></svg>