<svg xmlns="http://www.w3.org/2000/svg" viewBox="0 0 200 200"><path fill="#9EF0F0" d="M45.8,-78.1C58.8,-71.8,68.5,-58.5,75.8,-44.3C83.1,-30.1,87.9,-15,86.2,-1C84.5,13.1,76.3,26.2,67.8,38.3C59.4,50.5,50.7,61.7,39.4,70.6C28,79.6,14,86.3,-1.1,88.3C-16.3,90.3,-32.6,87.5,-43.8,78.4C-55,69.4,-61.1,54.1,-67.8,40C-74.5,25.9,-81.7,12.9,-84.3,-1.5C-86.9,-16,-84.9,-31.9,-78.1,-45.8C-71.4,-59.8,-59.8,-71.6,-46,-77.6C-32.2,-83.5,-16.1,-83.4,0.2,-83.7C16.4,-83.9,32.8,-84.5,45.8,-78.1Z" transform="translate(100 100)"></path></svg>