<svg xmlns="http://www.w3.org/2000/svg" width="284" height="216"><path d="M0 0 C5.03312209 4.43512739 8.27832916 9.22347428 9.97265625 15.73828125 C10.02883168 19.37764647 9.84583829 22.95992257 9.65234375 26.59375 C9.61324457 29.83426034 9.61324457 29.83426034 11.98046875 31.421875 C12.63789063 31.85628906 13.2953125 32.29070313 13.97265625 32.73828125 C13.97265625 34.7477266 13.96526303 36.75876917 13.86328125 38.765625 C14.03694588 41.89779071 15.94771929 43.43210305 17.97265625 45.73828125 C22.65225721 54.77137857 24.40740119 63.23346154 22.46484375 73.39453125 C20.62356172 79.043513 17.78918949 82.0260789 13.28515625 85.86328125 C8.70249698 89.57658778 8.70249698 89.57658778 6.47265625 94.80078125 C7.1362947 100.02693407 9.22645123 103.32349597 11.97265625 107.73828125 C13.08549014 109.70101214 14.16791846 111.68122867 15.22265625 113.67578125 C15.97289062 115.05056641 15.97289062 115.05056641 16.73828125 116.453125 C19.59604358 124.05875196 19.14892608 132.7194505 19.2109375 140.7578125 C19.21900925 141.77824142 19.22708099 142.79867035 19.23539734 143.85002136 C19.24913798 145.99545645 19.25990423 148.14091248 19.26782227 150.28637695 C19.27935009 152.45734165 19.29981441 154.62827783 19.3293457 156.79907227 C19.70712057 184.65521992 19.70712057 184.65521992 12.72265625 194.30078125 C2.73735196 203.15139187 -9.95498933 203.0912658 -22.64892578 203.05395508 C-24.89144644 203.0507966 -27.13264155 203.07432331 -29.375 203.09960938 C-40.84932228 203.15045606 -52.89465386 202.55416469 -62.02734375 194.73828125 C-69.25775461 187.1671704 -70.48626416 177.80854621 -70.390625 167.74609375 C-70.3911235 166.71950653 -70.39162201 165.69291931 -70.39213562 164.63522339 C-70.38980748 162.47538303 -70.38015397 160.31553932 -70.36352539 158.15576172 C-70.33996135 154.8796313 -70.34297143 151.60431862 -70.34960938 148.328125 C-70.34403022 146.21744314 -70.33691886 144.10676466 -70.328125 141.99609375 C-70.32949211 140.54869308 -70.32949211 140.54869308 -70.33088684 139.072052 C-70.23330282 129.53974819 -69.09610923 120.83312217 -64.58984375 112.36328125 C-63.69458984 110.65011719 -63.69458984 110.65011719 -62.78125 108.90234375 C-61.68213585 106.91953204 -60.53715409 104.96073903 -59.328125 103.04296875 C-57.48521964 99.77776105 -57.63204989 97.4276906 -58.02734375 93.73828125 C-59.6787368 90.19958185 -60.74339604 88.92757972 -64.02734375 86.73828125 C-63.36734375 84.75828125 -62.70734375 82.77828125 -62.02734375 80.73828125 C-62.63320312 80.62871094 -63.2390625 80.51914063 -63.86328125 80.40625 C-82.16404248 76.94318288 -82.16404248 76.94318288 -88.83984375 68.42578125 C-91.68017618 61.99766049 -89.63127645 54.08243917 -88.38671875 47.38671875 C-87.98754628 45.09676884 -87.98754628 45.09676884 -88.02734375 41.73828125 C-90.67766675 38.18874152 -94.30894767 36.1045333 -98.02734375 33.73828125 C-97.69734375 32.74828125 -97.36734375 31.75828125 -97.02734375 30.73828125 C-94.55234375 30.24328125 -94.55234375 30.24328125 -92.02734375 29.73828125 C-92.55328125 28.87203125 -92.55328125 28.87203125 -93.08984375 27.98828125 C-94.17651782 25.38026349 -93.95799508 24.34410496 -93.02734375 21.73828125 C-91.70734375 21.73828125 -90.38734375 21.73828125 -89.02734375 21.73828125 C-88.36734375 23.38828125 -87.70734375 25.03828125 -87.02734375 26.73828125 C-86.36734375 26.73828125 -85.70734375 26.73828125 -85.02734375 26.73828125 C-85.02734375 24.09828125 -85.02734375 21.45828125 -85.02734375 18.73828125 C-83.37734375 18.73828125 -81.72734375 18.73828125 -80.02734375 18.73828125 C-79.69734375 21.04828125 -79.36734375 23.35828125 -79.02734375 25.73828125 C-78.03734375 24.41828125 -77.04734375 23.09828125 -76.02734375 21.73828125 C-74.70734375 22.06828125 -73.38734375 22.39828125 -72.02734375 22.73828125 C-72.35734375 25.70828125 -72.68734375 28.67828125 -73.02734375 31.73828125 C-71.38765625 31.49078125 -71.38765625 31.49078125 -69.71484375 31.23828125 C-66.02734375 30.73828125 -66.02734375 30.73828125 -63.02734375 30.73828125 C-62.36734375 30.40828125 -61.70734375 30.07828125 -61.02734375 29.73828125 C-60.79352553 27.39121988 -60.66648938 25.03321492 -60.58984375 22.67578125 C-60.13309725 13.81615061 -58.84589261 7.55162209 -52.109375 1.33984375 C-37.45983124 -9.92903606 -15.09215936 -11.03836701 0 0 Z M-70.58984375 38.23828125 C-71.41613281 38.70234375 -72.24242187 39.16640625 -73.09375 39.64453125 C-73.73183594 40.00546875 -74.36992187 40.36640625 -75.02734375 40.73828125 C-74.57942442 43.21975435 -74.11960557 45.69794575 -73.65234375 48.17578125 C-73.52601563 48.88283203 -73.3996875 49.58988281 -73.26953125 50.31835938 C-72.92112132 52.13880125 -72.48030075 53.94099773 -72.02734375 55.73828125 C-69.01901279 57.24244673 -66.67772797 56.34667862 -63.40234375 55.80078125 C-61.61957031 55.50880859 -61.61957031 55.50880859 -59.80078125 55.2109375 C-58.88554687 55.05496094 -57.9703125 54.89898437 -57.02734375 54.73828125 C-56.90359375 54.09890625 -56.77984375 53.45953125 -56.65234375 52.80078125 C-56.44609375 52.12015625 -56.23984375 51.43953125 -56.02734375 50.73828125 C-55.36734375 50.40828125 -54.70734375 50.07828125 -54.02734375 49.73828125 C-54.14041072 47.77933764 -54.14041072 47.77933764 -55.02734375 45.73828125 C-55.76984375 45.49078125 -56.51234375 45.24328125 -57.27734375 44.98828125 C-60.99490931 43.29847872 -62.05475936 40.89838386 -64.01171875 37.41796875 C-64.346875 36.86367188 -64.68203125 36.309375 -65.02734375 35.73828125 C-67.02413155 35.73828125 -68.90311797 37.28801321 -70.58984375 38.23828125 Z " fill="#FDFDFD" transform="translate(258.02734375,10.26171875)"></path><path d="M0 0 C0.87624023 0.00757324 1.75248047 0.01514648 2.65527344 0.02294922 C13.00923233 0.28592519 21.54454467 3.18364025 29.125 10.4375 C32.82011482 14.76843258 35.26620225 18.65760039 35.22265625 24.44921875 C35.21782227 25.58520508 35.21782227 25.58520508 35.21289062 26.74414062 C35.20032227 27.92266602 35.20032227 27.92266602 35.1875 29.125 C35.18298828 29.92228516 35.17847656 30.71957031 35.17382812 31.54101562 C35.1620585 33.50654257 35.14412348 35.47203085 35.125 37.4375 C37.105 37.9325 37.105 37.9325 39.125 38.4375 C40.47884615 44.71442308 40.47884615 44.71442308 38.6875 48.375 C37.9140625 49.3959375 37.9140625 49.3959375 37.125 50.4375 C38.671875 50.9634375 38.671875 50.9634375 40.25 51.5 C45.97117507 53.97182615 49.21958886 58.17397215 51.5 63.875 C52.78543263 71.20196597 52.65618113 77.75788815 49.125 84.4375 C46.52600416 87.38177306 43.75177062 89.83318371 40.04296875 91.2109375 C35.74512923 93.95945402 35.23479314 100.74352798 34.125 105.4375 C32.73494887 115.16785794 37.90727209 125.51864842 42.07421875 134.09765625 C48.79275699 149.05826743 44.34035593 171.00744008 40.58251953 186.37182617 C39.5055676 191.23420093 38.97764583 196.1425872 39.125 201.125 C39.22580809 204.57137675 38.83477833 206.88860834 38.125 210.4375 C32.185 210.4375 26.245 210.4375 20.125 210.4375 C18.87755436 205.44771743 19.1727337 200.72808823 19.42773438 195.63671875 C19.50837439 192.22594462 19.41505609 189.91118333 17.61328125 186.96875 C11.53345169 183.22731642 3.33276689 184.30910503 -3.5625 184.5625 C-4.48611328 184.5728125 -5.40972656 184.583125 -6.36132812 184.59375 C-10.9313755 184.76483889 -13.23514281 184.9677921 -17.00390625 187.734375 C-18.89396643 190.46490035 -19.44232916 191.35259346 -19.125 194.5625 C-18.79803309 199.94837166 -19.33143543 205.06979988 -19.875 210.4375 C-25.815 210.4375 -31.755 210.4375 -37.875 210.4375 C-39.03422899 206.95981304 -38.83254043 204.47379095 -38.6875 200.8125 C-38.52504211 193.27166914 -40.05358215 186.58007651 -41.91796875 179.31640625 C-43.06645372 174.66152636 -43.68831697 170.21820892 -43.875 165.4375 C-43.91496094 164.60605469 -43.95492187 163.77460938 -43.99609375 162.91796875 C-44.06679236 160.07754815 -44.00017848 157.27610607 -43.875 154.4375 C-43.83117187 153.35082031 -43.78734375 152.26414063 -43.7421875 151.14453125 C-42.78938251 139.94296487 -38.4981832 130.56049029 -33.78295898 120.46777344 C-30.42857336 112.96708216 -31.02116199 104.94825918 -33.875 97.375 C-34.24625 96.49714844 -34.6175 95.61929688 -35 94.71484375 C-35.875 92.4375 -35.875 92.4375 -35.875 89.4375 C-36.63683594 89.40011719 -37.39867187 89.36273438 -38.18359375 89.32421875 C-54.0830695 88.31189258 -54.0830695 88.31189258 -58.7265625 83.53125 C-62.13604057 79.07145878 -64.11367074 76.2890151 -63.5 70.625 C-63.05041336 66.21087666 -62.65168377 61.79913611 -62.3125 57.375 C-62.22871094 56.29089844 -62.14492188 55.20679688 -62.05859375 54.08984375 C-61.95142243 52.54156019 -61.875 50.9894883 -61.875 49.4375 C-62.6175 49.14875 -63.36 48.86 -64.125 48.5625 C-66.44239797 47.61447356 -68.65417115 46.58904089 -70.875 45.4375 C-70.545 43.7875 -70.215 42.1375 -69.875 40.4375 C-68.555 40.4375 -67.235 40.4375 -65.875 40.4375 C-66.060625 39.32375 -66.24625 38.21 -66.4375 37.0625 C-66.875 33.4375 -66.875 33.4375 -65.875 31.4375 C-64 31.75 -64 31.75 -61.875 32.4375 C-61.215 33.4275 -60.555 34.4175 -59.875 35.4375 C-59.215 33.1275 -58.555 30.8175 -57.875 28.4375 C-56.225 28.7675 -54.575 29.0975 -52.875 29.4375 C-52.545 31.4175 -52.215 33.3975 -51.875 35.4375 C-50.885 34.1175 -49.895 32.7975 -48.875 31.4375 C-47.555 31.7675 -46.235 32.0975 -44.875 32.4375 C-45.205 35.4075 -45.535 38.3775 -45.875 41.4375 C-43.921875 40.68880208 -41.96875 39.94010417 -40.015625 39.19140625 C-37.98440997 38.47603307 -35.9714709 37.92384348 -33.875 37.4375 C-34.03484375 36.86386719 -34.1946875 36.29023437 -34.359375 35.69921875 C-35.94500839 28.74405412 -35.07738723 21.79717041 -31.875 15.4375 C-23.9744906 4.18525935 -13.43794688 -0.16337141 0 0 Z M-44 48.4375 C-44.72445312 48.80875 -45.44890625 49.18 -46.1953125 49.5625 C-47.02675781 49.995625 -47.02675781 49.995625 -47.875 50.4375 C-47.42708067 52.9189731 -46.96726182 55.3971645 -46.5 57.875 C-46.37367187 58.58205078 -46.24734375 59.28910156 -46.1171875 60.01757812 C-45.76877757 61.83802 -45.327957 63.64021648 -44.875 65.4375 C-41.9644446 66.8927777 -39.91650948 66.07266661 -36.75 65.5 C-35.10644531 65.20802734 -35.10644531 65.20802734 -33.4296875 64.91015625 C-32.58664063 64.75417969 -31.74359375 64.59820312 -30.875 64.4375 C-30.875 63.7775 -30.875 63.1175 -30.875 62.4375 C-28.565 62.4375 -26.255 62.4375 -23.875 62.4375 C-23.54715667 59.290757 -23.54715667 59.290757 -25.9375 57.0625 C-28.62668558 54.65939799 -31.32421345 52.63070264 -34.32421875 50.6484375 C-35.875 49.4375 -35.875 49.4375 -37.875 46.4375 C-40.39975462 46.4375 -41.76402934 47.28345063 -44 48.4375 Z M26.125 58.4375 C25.135 59.4275 24.145 60.4175 23.125 61.4375 C24.445 61.7675 25.765 62.0975 27.125 62.4375 C26.795 61.1175 26.465 59.7975 26.125 58.4375 Z " fill="#7E7E81" transform="translate(82.875,2.5625)"></path><path d="M0 0 C5.03312209 4.43512739 8.27832916 9.22347428 9.97265625 15.73828125 C10.02883168 19.37764647 9.84583829 22.95992257 9.65234375 26.59375 C9.61324457 29.83426034 9.61324457 29.83426034 11.98046875 31.421875 C12.63789063 31.85628906 13.2953125 32.29070313 13.97265625 32.73828125 C13.97265625 34.7477266 13.96526303 36.75876917 13.86328125 38.765625 C14.03694588 41.89779071 15.94771929 43.43210305 17.97265625 45.73828125 C22.65225721 54.77137857 24.40740119 63.23346154 22.46484375 73.39453125 C20.62356172 79.043513 17.78918949 82.0260789 13.28515625 85.86328125 C8.70249698 89.57658778 8.70249698 89.57658778 6.47265625 94.80078125 C7.1362947 100.02693407 9.22645123 103.32349597 11.97265625 107.73828125 C13.08549014 109.70101214 14.16791846 111.68122867 15.22265625 113.67578125 C15.97289062 115.05056641 15.97289062 115.05056641 16.73828125 116.453125 C19.59604358 124.05875196 19.14892608 132.7194505 19.2109375 140.7578125 C19.21900925 141.77824142 19.22708099 142.79867035 19.23539734 143.85002136 C19.24913798 145.99545645 19.25990423 148.14091248 19.26782227 150.28637695 C19.27935009 152.45734165 19.29981441 154.62827783 19.3293457 156.79907227 C19.70712057 184.65521992 19.70712057 184.65521992 12.72265625 194.30078125 C2.73735196 203.15139187 -9.95498933 203.0912658 -22.64892578 203.05395508 C-24.89144644 203.0507966 -27.13264155 203.07432331 -29.375 203.09960938 C-40.84932228 203.15045606 -52.89465386 202.55416469 -62.02734375 194.73828125 C-69.25775461 187.1671704 -70.48626416 177.80854621 -70.390625 167.74609375 C-70.3911235 166.71950653 -70.39162201 165.69291931 -70.39213562 164.63522339 C-70.38980748 162.47538303 -70.38015397 160.31553932 -70.36352539 158.15576172 C-70.33996135 154.8796313 -70.34297143 151.60431862 -70.34960938 148.328125 C-70.34403022 146.21744314 -70.33691886 144.10676466 -70.328125 141.99609375 C-70.32949211 140.54869308 -70.32949211 140.54869308 -70.33088684 139.072052 C-70.23330282 129.53974819 -69.09610923 120.83312217 -64.58984375 112.36328125 C-63.69458984 110.65011719 -63.69458984 110.65011719 -62.78125 108.90234375 C-61.68213585 106.91953204 -60.53715409 104.96073903 -59.328125 103.04296875 C-57.48521964 99.77776105 -57.63204989 97.4276906 -58.02734375 93.73828125 C-59.6787368 90.19958185 -60.74339604 88.92757972 -64.02734375 86.73828125 C-63.36734375 84.75828125 -62.70734375 82.77828125 -62.02734375 80.73828125 C-62.63320312 80.62871094 -63.2390625 80.51914063 -63.86328125 80.40625 C-82.16404248 76.94318288 -82.16404248 76.94318288 -88.83984375 68.42578125 C-91.68017618 61.99766049 -89.63127645 54.08243917 -88.38671875 47.38671875 C-87.98754628 45.09676884 -87.98754628 45.09676884 -88.02734375 41.73828125 C-90.67766675 38.18874152 -94.30894767 36.1045333 -98.02734375 33.73828125 C-97.69734375 32.74828125 -97.36734375 31.75828125 -97.02734375 30.73828125 C-94.55234375 30.24328125 -94.55234375 30.24328125 -92.02734375 29.73828125 C-92.55328125 28.87203125 -92.55328125 28.87203125 -93.08984375 27.98828125 C-94.17651782 25.38026349 -93.95799508 24.34410496 -93.02734375 21.73828125 C-91.70734375 21.73828125 -90.38734375 21.73828125 -89.02734375 21.73828125 C-88.36734375 23.38828125 -87.70734375 25.03828125 -87.02734375 26.73828125 C-86.36734375 26.73828125 -85.70734375 26.73828125 -85.02734375 26.73828125 C-85.02734375 24.09828125 -85.02734375 21.45828125 -85.02734375 18.73828125 C-83.37734375 18.73828125 -81.72734375 18.73828125 -80.02734375 18.73828125 C-79.69734375 21.04828125 -79.36734375 23.35828125 -79.02734375 25.73828125 C-78.03734375 24.41828125 -77.04734375 23.09828125 -76.02734375 21.73828125 C-74.70734375 22.06828125 -73.38734375 22.39828125 -72.02734375 22.73828125 C-72.35734375 25.70828125 -72.68734375 28.67828125 -73.02734375 31.73828125 C-71.38765625 31.49078125 -71.38765625 31.49078125 -69.71484375 31.23828125 C-66.02734375 30.73828125 -66.02734375 30.73828125 -63.02734375 30.73828125 C-62.36734375 30.40828125 -61.70734375 30.07828125 -61.02734375 29.73828125 C-60.79352553 27.39121988 -60.66648938 25.03321492 -60.58984375 22.67578125 C-60.13309725 13.81615061 -58.84589261 7.55162209 -52.109375 1.33984375 C-37.45983124 -9.92903606 -15.09215936 -11.03836701 0 0 Z M-70.58984375 38.23828125 C-71.41613281 38.70234375 -72.24242187 39.16640625 -73.09375 39.64453125 C-73.73183594 40.00546875 -74.36992187 40.36640625 -75.02734375 40.73828125 C-74.57942442 43.21975435 -74.11960557 45.69794575 -73.65234375 48.17578125 C-73.52601563 48.88283203 -73.3996875 49.58988281 -73.26953125 50.31835938 C-72.92112132 52.13880125 -72.48030075 53.94099773 -72.02734375 55.73828125 C-69.01901279 57.24244673 -66.67772797 56.34667862 -63.40234375 55.80078125 C-61.61957031 55.50880859 -61.61957031 55.50880859 -59.80078125 55.2109375 C-58.88554687 55.05496094 -57.9703125 54.89898437 -57.02734375 54.73828125 C-56.90359375 54.09890625 -56.77984375 53.45953125 -56.65234375 52.80078125 C-56.44609375 52.12015625 -56.23984375 51.43953125 -56.02734375 50.73828125 C-55.36734375 50.40828125 -54.70734375 50.07828125 -54.02734375 49.73828125 C-54.14041072 47.77933764 -54.14041072 47.77933764 -55.02734375 45.73828125 C-55.76984375 45.49078125 -56.51234375 45.24328125 -57.27734375 44.98828125 C-60.99490931 43.29847872 -62.05475936 40.89838386 -64.01171875 37.41796875 C-64.346875 36.86367188 -64.68203125 36.309375 -65.02734375 35.73828125 C-67.02413155 35.73828125 -68.90311797 37.28801321 -70.58984375 38.23828125 Z M-48.02734375 52.73828125 C-48.26517578 54.58679688 -48.26517578 54.58679688 -48.5078125 56.47265625 C-49.73411267 65.36805593 -51.07573543 73.26521995 -55.0390625 81.390625 C-56.28600271 83.92819199 -56.28600271 83.92819199 -56.02734375 87.73828125 C-55.69734375 88.33640625 -55.36734375 88.93453125 -55.02734375 89.55078125 C-53.09459181 93.77867611 -53.65213913 97.61266738 -55.08984375 101.92578125 C-57.18937244 106.38727972 -59.8382805 110.57080355 -62.40625 114.7734375 C-66.22526468 121.75809326 -66.34771173 127.945055 -66.36328125 135.75 C-66.36993805 136.91400833 -66.37659485 138.07801666 -66.38345337 139.27729797 C-66.39356271 141.73750229 -66.39827092 144.19773392 -66.39794922 146.65795898 C-66.40230842 150.3954877 -66.43861017 154.1318217 -66.4765625 157.86914062 C-66.48243399 160.26692308 -66.48640116 162.6647111 -66.48828125 165.0625 C-66.50265228 166.16808762 -66.51702332 167.27367523 -66.53182983 168.4127655 C-66.48246489 176.92409851 -64.93714532 185.13658867 -59.83984375 192.17578125 C-50.16345783 200.99204397 -37.51376081 199.91974941 -25.21484375 199.92578125 C-23.91224609 199.93802734 -22.60964844 199.95027344 -21.26757812 199.96289062 C-5.30565089 200.17953584 -5.30565089 200.17953584 8.55859375 193.3046875 C15.88639392 185.56581561 16.45946553 176.43165856 16.546875 166.171875 C16.56160355 164.97957779 16.57633209 163.78728058 16.59150696 162.55885315 C16.61536867 160.04345038 16.6308514 157.52795571 16.63842773 155.01245117 C16.65996011 151.21041447 16.74019459 147.41247416 16.82226562 143.61132812 C16.98118045 129.13296295 15.83791487 118.93310662 7.97265625 106.73828125 C4.60803224 100.56692784 3.05196587 96.72746014 4.97265625 89.73828125 C6.53515625 86.80078125 6.53515625 86.80078125 7.97265625 84.73828125 C7.97265625 84.07828125 7.97265625 83.41828125 7.97265625 82.73828125 C7.31265625 82.40828125 6.65265625 82.07828125 5.97265625 81.73828125 C4.84080608 79.14323617 3.81837273 76.5801567 2.84765625 73.92578125 C2.57050781 73.20068359 2.29335938 72.47558594 2.0078125 71.72851562 C0.64484319 68.0592411 -0.02734375 65.75706712 -0.02734375 61.73828125 C-0.68734375 61.73828125 -1.34734375 61.73828125 -2.02734375 61.73828125 C-1.69734375 58.76828125 -1.36734375 55.79828125 -1.02734375 52.73828125 C-3.80625878 53.43301001 -6.26828779 54.14412294 -8.91796875 55.1484375 C-9.62695312 55.41591797 -10.3359375 55.68339844 -11.06640625 55.95898438 C-11.79601562 56.23677734 -12.525625 56.51457031 -13.27734375 56.80078125 C-14.02242187 57.08244141 -14.7675 57.36410156 -15.53515625 57.65429688 C-17.36663768 58.34697255 -19.19709298 59.04236032 -21.02734375 59.73828125 C-20.53234375 66.17328125 -20.53234375 66.17328125 -20.02734375 72.73828125 C-20.68734375 72.73828125 -21.34734375 72.73828125 -22.02734375 72.73828125 C-23.17083734 76.84489714 -23.16765895 80.80387887 -23.15673828 85.03930664 C-23.1584906 85.87387894 -23.16024292 86.70845123 -23.16204834 87.5683136 C-23.16644608 90.32420944 -23.16353643 93.08004101 -23.16015625 95.8359375 C-23.16082982 97.75117505 -23.16180029 99.66641252 -23.16305542 101.58164978 C-23.16452952 105.59391087 -23.16238681 109.6061497 -23.15771484 113.6184082 C-23.15201389 118.76566112 -23.15530071 123.91286194 -23.16128731 129.06011295 C-23.16489737 133.01399632 -23.16375234 136.96786729 -23.16115952 140.92175102 C-23.16049168 142.82000166 -23.16131367 144.71825343 -23.16363907 146.61650276 C-23.16617328 149.2665824 -23.16231425 151.9165771 -23.15673828 154.56665039 C-23.15876251 155.3537439 -23.16078674 156.1408374 -23.16287231 156.95178223 C-23.15039173 160.14719161 -23.04540459 162.68409874 -22.02734375 165.73828125 C-23.67734375 165.73828125 -25.32734375 165.73828125 -27.02734375 165.73828125 C-27.02734375 164.74828125 -27.02734375 163.75828125 -27.02734375 162.73828125 C-26.36734375 162.73828125 -25.70734375 162.73828125 -25.02734375 162.73828125 C-25.02734375 133.03828125 -25.02734375 103.33828125 -25.02734375 72.73828125 C-25.68734375 72.73828125 -26.34734375 72.73828125 -27.02734375 72.73828125 C-27.02734375 68.44828125 -27.02734375 64.15828125 -27.02734375 59.73828125 C-29.04859375 59.14015625 -31.06984375 58.54203125 -33.15234375 57.92578125 C-37.72789826 56.57179063 -41.77502732 54.88909058 -46.02734375 52.73828125 C-46.68734375 52.73828125 -47.34734375 52.73828125 -48.02734375 52.73828125 Z " fill="#6B6C6F" transform="translate(258.02734375,10.26171875)"></path><path d="M0 0 C1.54758217 3.09516435 1.1295989 6.35856074 1.11352539 9.75439453 C1.11367142 10.55447937 1.11381744 11.35456421 1.1139679 12.17889404 C1.1132698 14.83022753 1.10548221 17.48149125 1.09765625 20.1328125 C1.0957917 21.96841392 1.09436797 23.80401583 1.09336853 25.63961792 C1.08954623 30.47623055 1.07971839 35.31281327 1.06866455 40.14941406 C1.05844426 45.08267817 1.05386958 50.01594711 1.04882812 54.94921875 C1.03809588 64.63282566 1.02102289 74.31641035 1 84 C0.34 84 -0.32 84 -1 84 C-1 84.99 -1 85.98 -1 87 C0.65 87 2.3 87 4 87 C4 86.01 4 85.02 4 84 C3.01 83.505 3.01 83.505 2 83 C1.9768503 72.62111223 1.95907146 62.24223057 1.94818783 51.86332226 C1.94296477 47.04420753 1.93587755 42.22511044 1.92456055 37.40600586 C1.91371123 32.75706623 1.90771881 28.10814359 1.90512276 23.45919228 C1.90327221 21.6837468 1.89965866 19.90830227 1.89426994 18.132864 C1.88703242 15.64999747 1.88601021 13.16720152 1.88647461 10.68432617 C1.88287933 9.94705292 1.87928406 9.20977966 1.87557983 8.45016479 C1.88186395 5.35416934 2.01281257 2.96156228 3 0 C9.90445878 0.22272448 15.91846711 1.72631217 22.4375 3.875 C23.62738525 4.26002686 23.62738525 4.26002686 24.84130859 4.65283203 C25.5936377 4.90919434 26.3459668 5.16555664 27.12109375 5.4296875 C27.7958374 5.65897949 28.47058105 5.88827148 29.16577148 6.12451172 C31.310833 7.14836246 32.5774764 8.08968002 34 10 C33.56131199 11.88973299 33.10699012 13.77748061 32.56640625 15.640625 C29.44629249 28.63751267 35.4946031 40.53794415 41 52 C40.22473221 47.03287727 38.19913575 43.07894165 35.9609375 38.62109375 C34.90138465 35.73101261 35.13388307 34.83961005 36 32 C37.31729823 35.08130513 38.6279905 38.16537763 39.9375 41.25 C40.49727539 42.55904297 40.49727539 42.55904297 41.06835938 43.89453125 C41.42607422 44.73886719 41.78378906 45.58320313 42.15234375 46.453125 C42.48226318 47.22817383 42.81218262 48.00322266 43.15209961 48.80175781 C45.63696384 55.24394541 45.18397219 61.67015267 45.1875 68.5 C45.19974609 69.716875 45.21199219 70.93375 45.22460938 72.1875 C45.23711957 79.9938637 44.55851419 87.34959382 43 95 C42.67 95 42.34 95 42 95 C41.505 91.535 41.505 91.535 41 88 C40.79503906 88.97582031 40.59007813 89.95164062 40.37890625 90.95703125 C40.10949219 92.22933594 39.84007813 93.50164062 39.5625 94.8125 C39.29566406 96.07707031 39.02882813 97.34164062 38.75390625 98.64453125 C38 102 38 102 37 105 C34.73078464 105.13489391 32.4592933 105.23193995 30.1875 105.3125 C28.92292969 105.37050781 27.65835938 105.42851562 26.35546875 105.48828125 C25.24816406 105.32714844 24.14085938 105.16601562 23 105 C21.30078125 102.66796875 21.30078125 102.66796875 20 100 C15.35863753 95.42144167 9.33314127 96.47877357 3.21044922 96.49902344 C1.13757625 96.49999411 -0.93156915 96.45839583 -3.00390625 96.4140625 C-10.8903501 96.1259789 -10.8903501 96.1259789 -17.8203125 99.28125 C-20.2065024 102.06207801 -20.2065024 102.06207801 -22 106 C-26.29 106 -30.58 106 -35 106 C-40.95859247 90.29098348 -43.87822348 66.67507523 -37.03808594 50.76220703 C-34.77891335 45.78989786 -32.38647517 40.89007049 -29.90795898 36.02368164 C-28.03955117 31.85932769 -27.83877108 28.10739695 -27.8125 23.5625 C-27.79832031 22.45003906 -27.78414062 21.33757812 -27.76953125 20.19140625 C-27.82995131 17.02552615 -27.82995131 17.02552615 -29.07421875 14.40234375 C-30.24484899 11.36463238 -30.30977128 9.99163666 -29 7 C-26.15625 5.48828125 -26.15625 5.48828125 -22.5 4.3125 C-21.86578125 4.10536377 -21.2315625 3.89822754 -20.578125 3.68481445 C-13.72143447 1.49245037 -7.24844619 -0.37171519 0 0 Z " fill="#FDFDFD" transform="translate(82,88)"></path><path d="M0 0 C8.88524337 0.2292966 17.4396928 3.154505 24.50390625 8.51953125 C30.00294632 14.57995824 30.75054946 19.39596078 30.4375 27.3125 C30.41945313 28.18712891 30.40140625 29.06175781 30.3828125 29.96289062 C30.33608353 32.10074108 30.26435441 34.23802045 30.1875 36.375 C31.8375 36.705 33.4875 37.035 35.1875 37.375 C34.58372642 42.80896226 34.58372642 42.80896226 32.875 45.25 C31.1875 46.375 31.1875 46.375 27.1875 46.375 C26.98125 47.096875 26.775 47.81875 26.5625 48.5625 C22.97492869 55.90071403 15.09361547 58.54548413 7.86328125 61.1953125 C-1.79587721 64.29527621 -8.75390346 61.54577862 -17.8125 57.375 C-21.66607472 55.31430464 -24.99467302 52.73471679 -27.8125 49.375 C-27.8125 48.385 -27.8125 47.395 -27.8125 46.375 C-28.9571875 46.5296875 -28.9571875 46.5296875 -30.125 46.6875 C-32.8125 46.375 -32.8125 46.375 -34.6875 44.125 C-35.87817925 41.21445073 -35.97345535 40.22461767 -34.8125 37.375 C-33.4925 37.375 -32.1725 37.375 -30.8125 37.375 C-31.3075 35.89 -31.3075 35.89 -31.8125 34.375 C-32.95052397 17.4352334 -32.95052397 17.4352334 -27.8125 11.375 C-23.94862227 7.46434409 -19.95977141 4.43390856 -14.8125 2.375 C-13.4925 2.375 -12.1725 2.375 -10.8125 2.375 C-10.565 3.65375 -10.3175 4.9325 -10.0625 6.25 C-9.28209438 9.46461991 -9.28209438 9.46461991 -7.125 11.875 C-2.13396164 12.95414343 1.72607478 12.84052446 6.1875 10.375 C5.57261719 10.40980469 4.95773438 10.44460937 4.32421875 10.48046875 C3.11185547 10.52107422 3.11185547 10.52107422 1.875 10.5625 C0.67423828 10.61470703 0.67423828 10.61470703 -0.55078125 10.66796875 C-2.8125 10.375 -2.8125 10.375 -4.5859375 9.0234375 C-6.30141217 6.71792696 -6.17178679 5.17743693 -5.8125 2.375 C-3.8125 0.375 -3.8125 0.375 0 0 Z " fill="#FAFAFA" transform="translate(233.8125,5.625)"></path><path d="M0 0 C6.84445986 2.99724713 12.47374164 7.92557578 15.640625 14.734375 C17.09286649 21.14844158 16.74197236 27.62797506 15.390625 34.046875 C17.040625 34.376875 18.690625 34.706875 20.390625 35.046875 C19.8926413 38.78175277 19.51570744 40.85925135 17.390625 44.046875 C14.765625 44.234375 14.765625 44.234375 12.390625 44.046875 C12.2978125 45.160625 12.2978125 45.160625 12.203125 46.296875 C11.11274672 49.98738611 9.52673936 50.85032527 6.390625 53.046875 C4.04879671 54.18061727 1.67047654 55.24128875 -0.734375 56.234375 C-1.35441406 56.49412109 -1.97445312 56.75386719 -2.61328125 57.02148438 C-11.52346258 60.72926951 -17.88079318 60.84792506 -26.734375 57.359375 C-27.41113281 57.11509766 -28.08789062 56.87082031 -28.78515625 56.61914062 C-33.53442744 54.80486391 -36.93971036 52.58228361 -40.609375 49.046875 C-41.484375 46.234375 -41.484375 46.234375 -41.609375 44.046875 C-42.3725 44.129375 -43.135625 44.211875 -43.921875 44.296875 C-46.609375 44.046875 -46.609375 44.046875 -48.484375 42.359375 C-49.88798989 39.47416662 -49.52991842 38.05956257 -48.609375 35.046875 C-47.289375 35.046875 -45.969375 35.046875 -44.609375 35.046875 C-44.939375 33.9125 -45.269375 32.778125 -45.609375 31.609375 C-47.53436271 23.61435306 -47.26201661 17.65797388 -43.21875 10.34375 C-38.61640997 3.7753618 -32.16070607 1.03958736 -24.609375 -0.953125 C-24.5475 0.305 -24.485625 1.563125 -24.421875 2.859375 C-24.01178473 6.03336132 -23.89857938 6.77468265 -21.484375 9.046875 C-17.94227887 10.27890844 -15.33730567 10.45355835 -11.609375 10.046875 C-9.4216449 8.59017979 -9.4216449 8.59017979 -7.609375 7.046875 C-8.29644531 7.08167969 -8.98351562 7.11648438 -9.69140625 7.15234375 C-10.59246094 7.17941406 -11.49351563 7.20648438 -12.421875 7.234375 C-13.31519531 7.26917969 -14.20851562 7.30398438 -15.12890625 7.33984375 C-17.609375 7.046875 -17.609375 7.046875 -19.4453125 5.69921875 C-20.609375 4.046875 -20.609375 4.046875 -20.421875 1.421875 C-18.04948462 -5.51280459 -5.27151803 -1.75717268 0 0 Z " fill="#FAFAFA" transform="translate(98.609375,7.953125)"></path><path d="M0 0 C0.87624023 0.00757324 1.75248047 0.01514648 2.65527344 0.02294922 C13.00923233 0.28592519 21.54454467 3.18364025 29.125 10.4375 C32.82011482 14.76843258 35.26620225 18.65760039 35.22265625 24.44921875 C35.21782227 25.58520508 35.21782227 25.58520508 35.21289062 26.74414062 C35.20032227 27.92266602 35.20032227 27.92266602 35.1875 29.125 C35.18298828 29.92228516 35.17847656 30.71957031 35.17382812 31.54101562 C35.1620585 33.50654257 35.14412348 35.47203085 35.125 37.4375 C37.105 37.9325 37.105 37.9325 39.125 38.4375 C40.47884615 44.71442308 40.47884615 44.71442308 38.6875 48.375 C37.9140625 49.3959375 37.9140625 49.3959375 37.125 50.4375 C38.671875 50.9634375 38.671875 50.9634375 40.25 51.5 C45.97117507 53.97182615 49.21958886 58.17397215 51.5 63.875 C52.78543263 71.20196597 52.65618113 77.75788815 49.125 84.4375 C46.52065747 87.38783007 43.73730564 89.81015551 40.046875 91.24609375 C36.37977517 93.51939751 35.92903757 97.64185045 34.83203125 101.6015625 C32.78773496 112.69271694 34.4577964 121.7886727 39.84765625 131.66796875 C41.1741353 134.54403495 41.39319591 136.31615616 41.125 139.4375 C37.89569532 135.71290319 36.3103231 131.4556369 34.5 126.9375 C34.18804687 126.17824219 33.87609375 125.41898437 33.5546875 124.63671875 C29.2387371 114.01427187 29.18377179 105.19985612 32.6640625 94.1640625 C33.21107494 90.92834484 32.58524307 89.32647011 31.125 86.4375 C30.465 86.4375 29.805 86.4375 29.125 86.4375 C29.00125 85.798125 28.8775 85.15875 28.75 84.5 C28.54375 83.819375 28.3375 83.13875 28.125 82.4375 C27.465 82.1075 26.805 81.7775 26.125 81.4375 C26.4034375 79.9834375 26.4034375 79.9834375 26.6875 78.5 C27.31310499 74.12076504 27.13527826 69.75094893 26.125 65.4375 C25.465 64.7775 24.805 64.1175 24.125 63.4375 C25.115 63.4375 26.105 63.4375 27.125 63.4375 C26.63 61.4575 26.63 61.4575 26.125 59.4375 C25.10395449 60.41600195 24.1043879 61.41730427 23.125 62.4375 C23.125 62.7675 23.125 63.0975 23.125 63.4375 C22.42632812 63.46328125 21.72765625 63.4890625 21.0078125 63.515625 C20.09773438 63.57234375 19.18765625 63.6290625 18.25 63.6875 C17.34507813 63.73390625 16.44015625 63.7803125 15.5078125 63.828125 C12.97330335 64.18618259 12.97330335 64.18618259 11.89453125 66.37890625 C11.64058594 67.05824219 11.38664062 67.73757812 11.125 68.4375 C9.09327868 70.82256416 8.19468154 71.41427282 5.125 72.4375 C4.795 75.7375 4.465 79.0375 4.125 82.4375 C3.135 82.1075 2.145 81.7775 1.125 81.4375 C1.62 79.4575 1.62 79.4575 2.125 77.4375 C1.135 77.4375 0.145 77.4375 -0.875 77.4375 C-1.37 79.4175 -1.37 79.4175 -1.875 81.4375 C-1.875 78.4675 -1.875 75.4975 -1.875 72.4375 C-2.638125 72.169375 -3.40125 71.90125 -4.1875 71.625 C-6.76488618 70.48615495 -8.14454864 69.62333329 -9.875 67.4375 C-9.875 66.7775 -9.875 66.1175 -9.875 65.4375 C-11.195 65.1075 -12.515 64.7775 -13.875 64.4375 C-13.875 65.0975 -13.875 65.7575 -13.875 66.4375 C-14.535 66.4375 -15.195 66.4375 -15.875 66.4375 C-15.875 65.7775 -15.875 65.1175 -15.875 64.4375 C-16.6175 64.355 -17.36 64.2725 -18.125 64.1875 C-21.49110713 63.26947078 -22.57391191 62.0262241 -24.875 59.4375 C-27.49773034 56.67673123 -29.88532206 54.43061863 -33.0625 52.3125 C-35.875 50.4375 -35.875 50.4375 -37.875 47.4375 C-40.43782742 46.70784634 -40.43782742 46.70784634 -42.875 46.4375 C-42.545 45.7775 -42.215 45.1175 -41.875 44.4375 C-44.515 44.4375 -47.155 44.4375 -49.875 44.4375 C-49.875 42.7875 -49.875 41.1375 -49.875 39.4375 C-50.865 40.7575 -51.855 42.0775 -52.875 43.4375 C-53.865 43.1075 -54.855 42.7775 -55.875 42.4375 C-56.205 37.8175 -56.535 33.1975 -56.875 28.4375 C-55.555 28.7675 -54.235 29.0975 -52.875 29.4375 C-52.545 31.4175 -52.215 33.3975 -51.875 35.4375 C-50.885 34.1175 -49.895 32.7975 -48.875 31.4375 C-47.555 31.7675 -46.235 32.0975 -44.875 32.4375 C-45.205 35.4075 -45.535 38.3775 -45.875 41.4375 C-43.921875 40.68880208 -41.96875 39.94010417 -40.015625 39.19140625 C-37.98440997 38.47603307 -35.9714709 37.92384348 -33.875 37.4375 C-34.03484375 36.86386719 -34.1946875 36.29023437 -34.359375 35.69921875 C-35.94500839 28.74405412 -35.07738723 21.79717041 -31.875 15.4375 C-23.9744906 4.18525935 -13.43794688 -0.16337141 0 0 Z M-3.69140625 4.7890625 C-5.1549148 6.45642223 -5.1549148 6.45642223 -4.6875 9.0625 C-4.12855766 11.60302003 -4.12855766 11.60302003 -1.875 12.4375 C-0.00120395 12.50783769 1.87501102 12.5218022 3.75 12.5 C4.75289062 12.49097656 5.75578125 12.48195313 6.7890625 12.47265625 C7.94535156 12.45525391 7.94535156 12.45525391 9.125 12.4375 C5.02326183 15.42058231 2.16233161 15.9772141 -2.875 15.4375 C-5.75 14.4375 -5.75 14.4375 -7.875 12.4375 C-8.60245737 9.70549342 -8.73464768 7.29133056 -8.875 4.4375 C-16.42633107 6.43021236 -22.88203497 9.1659868 -27.484375 15.734375 C-31.52764161 23.04859888 -31.79998771 29.00497806 -29.875 37 C-29.545 38.134375 -29.215 39.26875 -28.875 40.4375 C-31.35 40.9325 -31.35 40.9325 -33.875 41.4375 C-33.42796014 45.91633696 -33.42796014 45.91633696 -30.875 49.4375 C-28.29145782 49.60437448 -28.29145782 49.60437448 -25.875 49.4375 C-25.83375 50.159375 -25.7925 50.88125 -25.75 51.625 C-24.55332335 55.47146065 -22.09932746 57.24076807 -18.875 59.4375 C-16.31919072 60.76029041 -13.70457371 61.77377768 -11 62.75 C-10.33097656 63.01361328 -9.66195312 63.27722656 -8.97265625 63.54882812 C-1.1968623 66.43291355 5.17417513 65.95673563 12.75 62.6875 C13.69359375 62.30851562 13.69359375 62.30851562 14.65625 61.921875 C20.06660519 59.67691434 24.83121408 57.37817888 28.125 52.4375 C28.125 51.4475 28.125 50.4575 28.125 49.4375 C28.888125 49.540625 29.65125 49.64375 30.4375 49.75 C33.30850657 49.72441334 33.30850657 49.72441334 35 47.25 C36.26867764 44.07830591 36.13334883 42.64588263 35.125 39.4375 C33.805 39.4375 32.485 39.4375 31.125 39.4375 C31.29 38.65375 31.455 37.87 31.625 37.0625 C32.64549385 29.66391956 33.28510873 21.98606233 29.125 15.4375 C22.58138768 8.18858814 15.53416779 3.92667211 5.69921875 3.27734375 C0.70197124 2.86813391 0.70197124 2.86813391 -3.69140625 4.7890625 Z " fill="#67686B" transform="translate(82.875,2.5625)"></path><path d="M0 0 C1.65 0 3.3 0 5 0 C5.33 2.31 5.66 4.62 6 7 C6.99 5.68 7.98 4.36 9 3 C10.32 3.33 11.64 3.66 13 4 C12.67 7.63 12.34 11.26 12 15 C11.01 15 10.02 15 9 15 C9 13.35 9 11.7 9 10 C8.01 11.485 8.01 11.485 7 13 C6.4225 12.835 5.845 12.67 5.25 12.5 C2.73335631 11.85537969 2.73335631 11.85537969 -1 12 C-2.77409808 13.92022703 -2.77409808 13.92022703 -4 16 C-2.7625 17.0209375 -2.7625 17.0209375 -1.5 18.0625 C1 21 1 21 1.4375 24.25 C1.10549712 27.09573901 0.65339919 29.66651513 0 32.4375 C-1.34371067 38.17261292 -2.12889467 43.33913434 0.625 48.8125 C3.52009286 52.69801936 6.20489754 54.55799448 11.07958984 55.32885742 C13.34860733 55.51532814 15.59914584 55.61947534 17.875 55.6875 C21.896875 55.8421875 21.896875 55.8421875 26 56 C27.485 46.595 27.485 46.595 29 37 C26.9375 37.309375 24.875 37.61875 22.75 37.9375 C21.58984375 38.11152344 20.4296875 38.28554687 19.234375 38.46484375 C16.76893039 38.8727736 14.40575438 39.33901303 12 40 C11.46818825 37.75256955 10.94992874 35.50192898 10.4375 33.25 C10.14746094 31.99703125 9.85742188 30.7440625 9.55859375 29.453125 C9 26 9 26 10 22 C11.32 26.95 12.64 31.9 14 37 C16.475 36.505 16.475 36.505 19 36 C20.60303627 35.93628632 22.20837672 35.91355786 23.8125 35.9375 C24.99779297 35.95103516 24.99779297 35.95103516 26.20703125 35.96484375 C27.09455078 35.98224609 27.09455078 35.98224609 28 36 C28.33 34.35 28.66 32.7 29 31 C30.98 31.33 32.96 31.66 35 32 C35.26314811 38.72714516 34.43779581 44.24536812 32.5625 50.6875 C29.0982114 60.89810148 29.0982114 60.89810148 31 71 C32.53995173 74.07990345 32.22377524 76.58742761 32 80 C30.0655158 85.80345259 26.80107978 90.83092105 23.62109375 96.03515625 C19.80207907 103.01981201 19.67963202 109.20677375 19.6640625 117.01171875 C19.6574057 118.17572708 19.6507489 119.33973541 19.64389038 120.53901672 C19.63378104 122.99922104 19.62907283 125.45945267 19.62939453 127.91967773 C19.62503533 131.65720645 19.58873358 135.39354045 19.55078125 139.13085938 C19.54490976 141.52864183 19.54094259 143.92642985 19.5390625 146.32421875 C19.52469147 147.42980637 19.51032043 148.53539398 19.49551392 149.67448425 C19.54542085 158.27926493 21.38924651 165.45535504 25.6875 172.9375 C35.11687209 181.34748051 47.99346754 180.18170352 59.8125 180.1875 C61.11509766 180.19974609 62.41769531 180.21199219 63.75976562 180.22460938 C80.55728461 180.33971227 80.55728461 180.33971227 94.6875 172.375 C100.29195141 165.01852419 100.49834877 156.33891762 100.57421875 147.43359375 C100.5889473 146.24129654 100.60367584 145.04899933 100.61885071 143.8205719 C100.64271242 141.30516913 100.65819515 138.78967446 100.66577148 136.27416992 C100.68730386 132.47213322 100.76753834 128.67419291 100.84960938 124.87304688 C101.0085242 110.3946817 99.86525862 100.19482537 92 88 C89.09676718 82.66340808 87.27010461 79.17149907 88.33203125 73.03125 C89.63807249 69.05966261 92.59540031 67.09349318 95.78125 64.61328125 C99.89545013 61.29228496 102.98196064 58.37197555 104 53 C104.93264211 42.65933066 104.10382478 35.00917201 98.25 26.4375 C97.8375 25.963125 97.425 25.48875 97 25 C96.46375 25.144375 95.9275 25.28875 95.375 25.4375 C92.60084173 26.09453748 89.81474612 26.55219948 87 27 C87.1875 25.125 87.1875 25.125 88 23 C89.64551962 22.28272222 91.31422289 21.61674772 93 21 C95.29013653 17.5647952 95.17842973 16.014669 95 12 C96.32 12.66 97.64 13.32 99 14 C98.9175 15.216875 98.835 16.43375 98.75 17.6875 C98.75 22.09051273 100.08049237 23.6750052 103 27 C107.67960096 36.03309732 109.43474494 44.49518029 107.4921875 54.65625 C105.65090547 60.30523175 102.81653324 63.28779765 98.3125 67.125 C93.72984073 70.83830653 93.72984073 70.83830653 91.5 76.0625 C92.16363845 81.28865282 94.25379498 84.58521472 97 89 C98.11283389 90.96273089 99.19526221 92.94294742 100.25 94.9375 C101.00023437 96.31228516 101.00023437 96.31228516 101.765625 97.71484375 C104.62338733 105.32047071 104.17626983 113.98116925 104.23828125 122.01953125 C104.246353 123.03996017 104.25442474 124.0603891 104.26274109 125.11174011 C104.27648173 127.2571752 104.28724798 129.40263123 104.29516602 131.5480957 C104.30669384 133.7190604 104.32715816 135.88999658 104.35668945 138.06079102 C104.73446432 165.91693867 104.73446432 165.91693867 97.75 175.5625 C87.76469571 184.41311062 75.07235442 184.35298455 62.37841797 184.31567383 C60.13589731 184.31251535 57.8947022 184.33604206 55.65234375 184.36132812 C44.17802147 184.41217481 32.13268989 183.81588344 23 176 C15.76958914 168.42888915 14.54107959 159.07026496 14.63671875 149.0078125 C14.63622025 147.98122528 14.63572174 146.95463806 14.63520813 145.89694214 C14.63753627 143.73710178 14.64718978 141.57725807 14.66381836 139.41748047 C14.6873824 136.14135005 14.68437232 132.86603737 14.67773438 129.58984375 C14.68331353 127.47916189 14.69042489 125.36848341 14.69921875 123.2578125 C14.69785164 121.81041183 14.69785164 121.81041183 14.69645691 120.33377075 C14.79404093 110.80146694 15.93123452 102.09484092 20.4375 93.625 C21.33275391 91.91183594 21.33275391 91.91183594 22.24609375 90.1640625 C23.3452079 88.18125079 24.49018966 86.22245778 25.69921875 84.3046875 C27.54212411 81.0394798 27.39529386 78.68940935 27 75 C25.34860695 71.4613006 24.28394771 70.18929847 21 68 C21.66 66.02 22.32 64.04 23 62 C22.39414063 61.89042969 21.78828125 61.78085938 21.1640625 61.66796875 C2.86330127 58.20490163 2.86330127 58.20490163 -3.8125 49.6875 C-6.65283243 43.25937924 -4.6039327 35.34415792 -3.359375 28.6484375 C-2.96020253 26.35848759 -2.96020253 26.35848759 -3 23 C-5.650323 19.45046027 -9.28160392 17.36625205 -13 15 C-12.67 14.01 -12.34 13.02 -12 12 C-10.35 11.67 -8.7 11.34 -7 11 C-7.350625 10.4225 -7.70125 9.845 -8.0625 9.25 C-9.14917407 6.64198224 -8.93065133 5.60582371 -8 3 C-6.68 3 -5.36 3 -4 3 C-3.34 4.65 -2.68 6.3 -2 8 C-1.34 8 -0.68 8 0 8 C0 5.36 0 2.72 0 0 Z " fill="#66676A" transform="translate(173,29)"></path><path d="M0 0 C0.66 0 1.32 0 2 0 C2.01458252 0.63800537 2.02916504 1.27601074 2.04418945 1.93334961 C2.38273442 15.25623059 3.28870308 27.94451594 6 41 C6.33 42.98 6.66 44.96 7 47 C11.29 47 15.58 47 20 47 C20.66 45.35 21.32 43.7 22 42 C24.89106681 38.34622751 26.55529278 37.22200725 31.18701172 36.51025391 C34.42808803 36.32752007 37.63970386 36.25234367 40.88549805 36.29321289 C42.93066497 36.31243576 44.96901509 36.2730342 47.01367188 36.22851562 C53.97606576 36.24572372 58.93085355 36.33060299 63.99829102 41.41870117 C65 43 65 43 65 46 C69.62 46 74.24 46 79 46 C80.45894308 39.00269368 80.45894308 39.00269368 81.5 31.9375 C81.665 30.968125 81.83 29.99875 82 29 C82.99 28.505 82.99 28.505 84 28 C84.3225084 38.91153415 84.3225084 38.91153415 83 43.375 C81.66897666 48.19995962 81.90202269 52.71516262 82.02734375 57.6953125 C82 61 82 61 81 66 C75.06 66 69.12 66 63 66 C61.75255436 61.01021743 62.0477337 56.29058823 62.30273438 51.19921875 C62.38337439 47.78844462 62.29005609 45.47368333 60.48828125 42.53125 C54.40845169 38.78981642 46.20776689 39.87160503 39.3125 40.125 C38.38888672 40.1353125 37.46527344 40.145625 36.51367188 40.15625 C31.9436245 40.32733889 29.63985719 40.5302921 25.87109375 43.296875 C23.98103357 46.02740035 23.43267084 46.91509346 23.75 50.125 C24.07696691 55.51087166 23.54356457 60.63229988 23 66 C17.06 66 11.12 66 5 66 C3.84077101 62.52231304 4.04245957 60.03629095 4.1875 56.375 C4.34995789 48.83416914 2.82141785 42.14257651 0.95703125 34.87890625 C-1.87050238 23.41873933 -1.41431777 11.64286592 0 0 Z " fill="#727376" transform="translate(40,147)"></path><path d="M0 0 C5.42968255 4.36974452 9.61930837 9.91970846 13 16 C13 16.66 13 17.32 13 18 C11.68 17.67 10.36 17.34 9 17 C8.89042969 17.62648438 8.78085937 18.25296875 8.66796875 18.8984375 C8.43013672 20.12433594 8.43013672 20.12433594 8.1875 21.375 C8.03667969 22.18710938 7.88585938 22.99921875 7.73046875 23.8359375 C7 26 7 26 4 28 C-3.92403093 29.77360981 -11.19208014 29.08357879 -18.3125 25.1875 C-22.62029305 21.68115682 -25.23679884 18.25933392 -27 13 C-27.30078125 10.0625 -27.30078125 10.0625 -27.3125 7 C-27.32925781 5.989375 -27.34601562 4.97875 -27.36328125 3.9375 C-26.83050799 -0.37051607 -25.0275143 -2.9724857 -22 -6 C-13.27275913 -9.11687174 -7.06569006 -4.84042563 0 0 Z " fill="#888A8C" transform="translate(30,95)"></path><path d="M0 0 C4.08743868 3.89679322 7.18638387 8.11319305 10 13 C10.66 13.33 11.32 13.66 12 14 C12 14.66 12 15.32 12 16 C10.68 16 9.36 16 8 16 C7.87625 16.9075 7.7525 17.815 7.625 18.75 C6.62962963 23.92592593 6.62962963 23.92592593 5 26 C-2.05378302 29.22020529 -10.15951441 28.28016186 -17.375 25.875 C-21.94620907 22.60985066 -25.94198392 18.29204135 -28 13 C-28.30078125 9.94140625 -28.30078125 9.94140625 -28.3125 6.5625 C-28.32925781 5.45003906 -28.34601563 4.33757812 -28.36328125 3.19140625 C-27.8535742 -1.28634275 -26.14341352 -3.85658648 -23 -7 C-13.89703868 -9.10068338 -7.27159186 -5.23508591 0 0 Z " fill="#888A8C" transform="translate(179,90)"></path><path d="M0 0 C1 3 1 3 0 6 C4.455 5.505 4.455 5.505 9 5 C8.67 5.66 8.34 6.32 8 7 C8.66 7.66 9.32 8.32 10 9 C8.03533587 10.06775224 6.03144641 11.06553465 4 12 C3.34 11.67 2.68 11.34 2 11 C2.99 10.67 3.98 10.34 5 10 C5 9.34 5 8.68 5 8 C3.02 8.99 3.02 8.99 1 10 C0.84635949 14.30193437 0.87341671 18.0223153 2 22.1875 C2.85073949 25.4309443 3.09078383 27.71476009 3 31 C3.64066406 30.7834375 4.28132813 30.566875 4.94140625 30.34375 C5.80636719 30.0653125 6.67132813 29.786875 7.5625 29.5 C8.40941406 29.2215625 9.25632812 28.943125 10.12890625 28.65625 C13.48455966 27.88924351 16.56902726 27.89821589 20 28 C20.0816082 30.37570543 20.14077222 32.74855841 20.1875 35.125 C20.21263672 35.79015625 20.23777344 36.4553125 20.26367188 37.140625 C20.33320714 41.86902292 19.40278375 44.95121479 17 49 C14.47715927 48.74256727 11.95761856 48.46948683 9.4375 48.1875 C8.73302734 48.11724609 8.02855469 48.04699219 7.30273438 47.97460938 C1.2143736 47.27318532 -4.06603546 46.08664595 -8.375 41.4375 C-11.62589085 36.56116373 -11.55231876 32.12180171 -10.55078125 26.4609375 C-10.36902344 25.60757813 -10.18726563 24.75421875 -10 23.875 C-8.8403158 18.48331054 -8.8403158 18.48331054 -9 13 C-10.80510138 10.35251798 -12.74080266 8.25919734 -15 6 C-14.01 5.67 -13.02 5.34 -12 5 C-11.34 4.34 -10.68 3.68 -10 3 C-9.34 3 -8.68 3 -8 3 C-7.34 2.34 -6.68 1.68 -6 1 C-5.67 1.99 -5.34 2.98 -5 4 C-1.72226496 3.24849977 -1.72226496 3.24849977 0 0 Z " fill="#FAFAFA" transform="translate(33,41)"></path><path d="M0 0 C1 3 1 3 0 6 C0.86625 5.443125 0.86625 5.443125 1.75 4.875 C4 4 4 4 6.25 4.875 C6.8275 5.24625 7.405 5.6175 8 6 C4.535 7.485 4.535 7.485 1 9 C0.81837343 14.08554385 1.18341198 18.21518634 2.5546875 23.1015625 C3.17657524 25.75276814 3.13535979 28.29280419 3 31 C4.134375 30.505 5.26875 30.01 6.4375 29.5 C11.02094132 27.75353667 15.15186415 27.69699151 20 28 C20.24613739 34.52264091 19.53020433 40.64462582 18 47 C17 48 17 48 13.4296875 48.01953125 C11.91118981 47.95670608 10.39295089 47.88738219 8.875 47.8125 C8.12734375 47.79380859 7.3796875 47.77511719 6.609375 47.75585938 C0.47879696 47.45146656 -4.19207032 45.95571545 -8.55859375 41.359375 C-12.3315874 34.45060441 -11.1910275 28.49719345 -9.46484375 21.1640625 C-8.62857704 17.27085445 -7.89234137 13.74446585 -10.12109375 10.234375 C-11.33902297 8.75767895 -12.6633011 7.37011637 -14 6 C-13.34 5.67 -12.68 5.34 -12 5 C-11.34 4.01 -10.68 3.02 -10 2 C-7.875 1.3125 -7.875 1.3125 -6 1 C-5.67 1.66 -5.34 2.32 -5 3 C-4.01 3 -3.02 3 -2 3 C-1.34 2.01 -0.68 1.02 0 0 Z " fill="#FBFBFB" transform="translate(182,38)"></path><path d="M0 0 C4.04355148 0.10446866 6.93972082 0.2346845 10.5703125 2.12890625 C15.55849596 7.99735738 17.41380074 13.19243759 17.0703125 20.953125 C16.19079255 27.22886631 13.6844976 31.13623401 8.7578125 35.06640625 C5.80199811 37.10508945 3.35743848 38.40002338 -0.3046875 38.62890625 C-0.9646875 36.97890625 -1.6246875 35.32890625 -2.3046875 33.62890625 C-2.9646875 33.62890625 -3.6246875 33.62890625 -4.3046875 33.62890625 C-4.4284375 32.98953125 -4.5521875 32.35015625 -4.6796875 31.69140625 C-4.8859375 31.01078125 -5.0921875 30.33015625 -5.3046875 29.62890625 C-5.9646875 29.29890625 -6.6246875 28.96890625 -7.3046875 28.62890625 C-7.14742188 27.64148438 -6.99015625 26.6540625 -6.828125 25.63671875 C-6.44413148 22.95954291 -6.20529599 20.32313132 -6.09375 17.62109375 C-6.06539063 16.94433594 -6.03703125 16.26757812 -6.0078125 15.5703125 C-5.95544448 14.18517827 -5.91125999 12.79971197 -5.875 11.4140625 C-5.6512562 6.53831213 -5.32503079 1.45310162 0 0 Z " fill="#888A8C" transform="translate(116.3046875,55.37109375)"></path><path d="M0 0 C2.37633962 0.96084738 3.16752317 1.88702528 4.60546875 3.98828125 C5.21261719 4.84486328 5.21261719 4.84486328 5.83203125 5.71875 C10.06084755 13.38527751 10.40874566 22.91591881 8.36328125 31.34375 C6.01951914 36.7053651 1.80759499 39.70767123 -3.01953125 42.80078125 C-9.13724043 33.96409021 -12.44341184 24.54762402 -13.01953125 13.80078125 C-13.14328125 12.89328125 -13.26703125 11.98578125 -13.39453125 11.05078125 C-12.62903176 6.45778432 -8.43967823 4.12660952 -4.95703125 1.42578125 C-2.01953125 -0.19921875 -2.01953125 -0.19921875 0 0 Z " fill="#888A8C" transform="translate(269.01953125,53.19921875)"></path><path d="M0 0 C1.98 0 3.96 0 6 0 C7.1161656 3.71429898 7.3124195 7.39161508 7.5625 11.25 C7.68818359 13.14492187 7.68818359 13.14492187 7.81640625 15.078125 C7.87699219 16.04234375 7.93757813 17.0065625 8 18 C7.34 18 6.68 18 6 18 C6 18.66 6 19.32 6 20 C7.32 20.66 8.64 21.32 10 22 C9.67 22.99 9.34 23.98 9 25 C9.66 25 10.32 25 11 25 C11.99 26.98 12.98 28.96 14 31 C10.52160931 30.38725858 7.41103179 29.47222582 4.125 28.1875 C-2.78181007 25.60807572 -9.86241462 23.81088536 -17 22 C-16.98707095 18.2505753 -16.81837279 14.66673522 -16 11 C-13.25 8.625 -13.25 8.625 -10 7 C-8.7315625 5.6696875 -8.7315625 5.6696875 -7.4375 4.3125 C-4.84009574 1.84829596 -3.50515671 1.300442 0 1 C0 0.67 0 0.34 0 0 Z " fill="#EFF4F5" transform="translate(103,64)"></path><path d="M0 0 C1.32 0.66 2.64 1.32 4 2 C3.9175 3.216875 3.835 4.43375 3.75 5.6875 C3.75 10.09051273 5.08049237 11.6750052 8 15 C12.67960096 24.03309732 14.43474494 32.49518029 12.4921875 42.65625 C10.65090547 48.30523175 7.81653324 51.28779765 3.3125 55.125 C-1.27015927 58.83830653 -1.27015927 58.83830653 -3.5 64.0625 C-2.83636155 69.28865282 -0.74620502 72.58521472 2 77 C3.11283389 78.96273089 4.19526221 80.94294742 5.25 82.9375 C5.75015625 83.85402344 6.2503125 84.77054687 6.765625 85.71484375 C9.63812879 93.35970353 9.14128905 101.96916631 9.09765625 110.0390625 C9.0962413 111.04593109 9.09482635 112.05279968 9.09336853 113.09017944 C9.08782431 116.26848473 9.07528259 119.44671644 9.0625 122.625 C9.05747778 124.79557189 9.05291614 126.9661449 9.04882812 129.13671875 C9.03787323 134.42450376 9.02119176 139.71224662 9 145 C8.01 145.33 7.02 145.66 6 146 C6.00523682 145.35901367 6.01047363 144.71802734 6.01586914 144.05761719 C6.0630299 137.30706245 6.05320953 130.55819897 6.01220703 123.80761719 C6.00416086 121.29785684 6.01001778 118.78800783 6.03076172 116.27832031 C6.14848227 100.72681638 5.43527741 89.20848634 -3 76 C-5.89892717 70.66003007 -7.7302787 67.17371547 -6.66796875 61.03125 C-5.36192751 57.05966261 -2.40459969 55.09349318 0.78125 52.61328125 C4.89545013 49.29228496 7.98196064 46.37197555 9 41 C9.93264211 30.65933066 9.10382478 23.00917201 3.25 14.4375 C2.8375 13.963125 2.425 13.48875 2 13 C1.46375 13.144375 0.9275 13.28875 0.375 13.4375 C-2.39915827 14.09453748 -5.18525388 14.55219948 -8 15 C-7.8125 13.125 -7.8125 13.125 -7 11 C-5.35448038 10.28272222 -3.68577711 9.61674772 -2 9 C0.29013653 5.5647952 0.17842973 4.014669 0 0 Z " fill="#67686A" transform="translate(268,41)"></path><path d="M0 0 C0.8353125 0.2165625 0.8353125 0.2165625 1.6875 0.4375 C4.11384195 1.02769128 6.54906345 1.523429 9 2 C8.67 2.99 8.34 3.98 8 5 C8.66 5 9.32 5 10 5 C10 4.34 10 3.68 10 3 C13.16012613 3.33858494 13.95432113 3.94601588 16.0625 6.4375 C16.701875 7.283125 17.34125 8.12875 18 9 C18.99 9.66 19.98 10.32 21 11 C21.29296875 13.6015625 21.29296875 13.6015625 21.1875 16.625 C21.16042969 17.62789062 21.13335937 18.63078125 21.10546875 19.6640625 C21.07066406 20.43492188 21.03585938 21.20578125 21 22 C20.46109131 22.14099121 19.92218262 22.28198242 19.36694336 22.42724609 C16.89025134 23.07569489 14.41387444 23.7253395 11.9375 24.375 C10.66616211 24.70757812 10.66616211 24.70757812 9.36914062 25.046875 C4.56200216 26.30898085 -0.22704845 27.61409548 -5 29 C-4.54625 28.01 -4.0925 27.02 -3.625 26 C-0.32278572 18.17484767 0.24453817 11.40939609 0 3 C0 2.01 0 1.02 0 0 Z " fill="#F8F8F8" transform="translate(59,64)"></path><path d="M0 0 C0.66 0 1.32 0 2 0 C2.01458252 0.63800537 2.02916504 1.27601074 2.04418945 1.93334961 C2.38273442 15.25623059 3.28870308 27.94451594 6 41 C6.33 42.98 6.66 44.96 7 47 C11.29 47 15.58 47 20 47 C20 47.33 20 47.66 20 48 C15.38 48.33 10.76 48.66 6 49 C6.66 49.33 7.32 49.66 8 50 C8 50.99 8 51.98 8 53 C15.92 52.505 15.92 52.505 24 52 C23.67 56.62 23.34 61.24 23 66 C17.06 66 11.12 66 5 66 C3.84077101 62.52231304 4.04245957 60.03629095 4.1875 56.375 C4.34995789 48.83416914 2.82141785 42.14257651 0.95703125 34.87890625 C-1.87050238 23.41873933 -1.41431777 11.64286592 0 0 Z " fill="#6F6F72" transform="translate(40,147)"></path><path d="M0 0 C0.33 0 0.66 0 1 0 C1.22226864 1.76913824 1.42733873 3.54044371 1.625 5.3125 C1.74101562 6.29863281 1.85703125 7.28476562 1.9765625 8.30078125 C2 11 2 11 0 14 C-2.125 15.1875 -2.125 15.1875 -4 16 C-4 16.66 -4 17.32 -4 18 C-3.319375 18.66 -2.63875 19.32 -1.9375 20 C1.3688931 25.11957642 -0.52972928 30.38738489 -1.5625 36.125 C-2.36758623 41.41556668 -2.76497702 45.37824872 -0.4375 50.3125 C5.44740452 56.80098448 13.72423625 56.94219561 22 58 C22.33 58.99 22.66 59.98 23 61 C4.05394694 60.15079515 4.05394694 60.15079515 -0.84765625 55.09375 C-4.26260601 50.63736166 -6.23864427 47.85127078 -5.625 42.1875 C-5.17541336 37.77337666 -4.77668377 33.36163611 -4.4375 28.9375 C-4.35371094 27.85339844 -4.26992188 26.76929687 -4.18359375 25.65234375 C-4.07642243 24.10406019 -4 22.5519883 -4 21 C-4.7425 20.71125 -5.485 20.4225 -6.25 20.125 C-8.56739797 19.17697356 -10.77917115 18.15154089 -13 17 C-12.67 15.35 -12.34 13.7 -12 12 C-10.68 12 -9.36 12 -8 12 C-8.185625 10.88625 -8.37125 9.7725 -8.5625 8.625 C-9 5 -9 5 -8 3 C-6.125 3.3125 -6.125 3.3125 -4 4 C-3.01 5.485 -3.01 5.485 -2 7 C-1.34 4.69 -0.68 2.38 0 0 Z " fill="#808183" transform="translate(25,31)"></path><path d="M0 0 C5.42968255 4.36974452 9.61930837 9.91970846 13 16 C13 16.66 13 17.32 13 18 C11.68 17.67 10.36 17.34 9 17 C8.89042969 17.62648438 8.78085937 18.25296875 8.66796875 18.8984375 C8.43013672 20.12433594 8.43013672 20.12433594 8.1875 21.375 C8.03667969 22.18710938 7.88585938 22.99921875 7.73046875 23.8359375 C7 26 7 26 4 28 C-3.92403093 29.77360981 -11.19208014 29.08357879 -18.3125 25.1875 C-22.62029305 21.68115682 -25.23679884 18.25933392 -27 13 C-27.30078125 10.0625 -27.30078125 10.0625 -27.3125 7 C-27.32925781 5.989375 -27.34601562 4.97875 -27.36328125 3.9375 C-26.83050799 -0.37051607 -25.0275143 -2.9724857 -22 -6 C-13.27275913 -9.11687174 -7.06569006 -4.84042563 0 0 Z M-21.75 -2.3125 C-24.4525072 0.60754647 -24.44218141 3.50252393 -24.5625 7.375 C-24.32079008 13.15643987 -23.63901811 16.49910918 -20 21 C-14.54845381 25.2277297 -10.74622879 26.13908217 -3.9375 26.125 C-2.68839844 26.12757812 -1.43929688 26.13015625 -0.15234375 26.1328125 C2.90200713 26.21948276 2.90200713 26.21948276 5 25 C6.54495386 21.77019489 7.50289991 18.54453974 8 15 C6.76579708 11.64671336 6.76579708 11.64671336 4 9 C3.53335938 8.43667969 3.06671875 7.87335938 2.5859375 7.29296875 C-2.22256591 1.8567543 -8.26867185 -1.40810637 -15 -4 C-18.96953108 -4.34867748 -18.96953108 -4.34867748 -21.75 -2.3125 Z " fill="#616266" transform="translate(30,95)"></path><path d="M0 0 C4.08743868 3.89679322 7.18638387 8.11319305 10 13 C10.66 13.33 11.32 13.66 12 14 C12 14.66 12 15.32 12 16 C10.68 16 9.36 16 8 16 C7.87625 16.9075 7.7525 17.815 7.625 18.75 C6.62962963 23.92592593 6.62962963 23.92592593 5 26 C-2.05378302 29.22020529 -10.15951441 28.28016186 -17.375 25.875 C-21.94620907 22.60985066 -25.94198392 18.29204135 -28 13 C-28.30078125 9.94140625 -28.30078125 9.94140625 -28.3125 6.5625 C-28.32925781 5.45003906 -28.34601563 4.33757812 -28.36328125 3.19140625 C-27.8535742 -1.28634275 -26.14341352 -3.85658648 -23 -7 C-13.89703868 -9.10068338 -7.27159186 -5.23508591 0 0 Z M-25 0 C-26.68474633 5.05423898 -26.58019314 9.28455532 -24.375 14.125 C-21.58676687 19.2268734 -17.44583666 22.85753046 -12 25 C-8.59587155 25.35441992 -8.59587155 25.35441992 -4.9375 25.3125 C-3.70902344 25.32925781 -2.48054688 25.34601563 -1.21484375 25.36328125 C1.92431165 25.26421405 1.92431165 25.26421405 3.83203125 23.73828125 C6.12590272 20.32432538 7.13729844 17.13202915 7 13 C3.02731634 4.13899555 -6.51191429 -1.10203789 -15 -5 C-20.03226742 -5.90322749 -21.85605457 -3.75526815 -25 0 Z " fill="#636467" transform="translate(179,90)"></path><path d="M0 0 C0.99 0 1.98 0 3 0 C3 30.69 3 61.38 3 93 C1.35 93 -0.3 93 -2 93 C-2 92.01 -2 91.02 -2 90 C-1.34 90 -0.68 90 0 90 C-0.07064667 89.42473068 -0.14129333 88.84946136 -0.21408081 88.25675964 C-0.99966062 81.27596288 -1.14546612 74.3834895 -1.1328125 67.36328125 C-1.13376923 66.16680466 -1.13472595 64.97032806 -1.13571167 63.7375946 C-1.13638943 61.21039782 -1.13456346 58.68319926 -1.13037109 56.15600586 C-1.12507887 52.36893589 -1.1302979 48.58198789 -1.13671875 44.79492188 C-1.14038948 29.83777961 -0.81486625 14.93547673 0 0 Z " fill="#7F7F82" transform="translate(233,83)"></path><path d="M0 0 C0.495 0.99 0.495 0.99 1 2 C-4.06779199 10.06239636 -14.52632473 12.73158239 -23 16 C-23 19.96 -23 23.92 -23 28 C-27 29 -27 29 -30 28 C-30 23.71 -30 19.42 -30 15 C-31.216875 14.87625 -32.43375 14.7525 -33.6875 14.625 C-37.06479059 14.21108694 -39.89756695 13.45426549 -43 12 C-42.34 11.34 -41.68 10.68 -41 10 C-39.15234375 10.2421875 -39.15234375 10.2421875 -36.9375 10.875 C-25.97272451 13.48152349 -17.94633019 10.85293473 -8 6 C-5.13650042 4.1888977 -2.51635287 2.26712942 0 0 Z " fill="#717275" transform="translate(261,55)"></path><path d="M0 0 C2.67550292 2.67550292 2.83209389 4.94879894 3.625 8.625 C4.01558594 10.40777344 4.01558594 10.40777344 4.4140625 12.2265625 C4.70410156 13.59941406 4.70410156 13.59941406 5 15 C5.72574219 14.83628906 6.45148438 14.67257813 7.19921875 14.50390625 C9.82038731 14.03231525 12.15697867 13.89786535 14.8125 13.9375 C15.60269531 13.94652344 16.39289063 13.95554687 17.20703125 13.96484375 C18.09455078 13.98224609 18.09455078 13.98224609 19 14 C19.33 12.35 19.66 10.7 20 9 C22.97 9.495 22.97 9.495 26 10 C26.23963393 16.64318501 25.51303354 22.23271464 23.75 28.625 C23.54503906 29.43195313 23.34007812 30.23890625 23.12890625 31.0703125 C21.73983297 36.25618606 19.85355698 40.4513814 17 45 C15.8773579 41.69155143 16.125148 40.01463888 17.4375 36.8125 C18.90463103 32.76295281 19.20463275 29.49347288 19.0390625 25.21875 C18.97800665 21.75077777 19.50138667 18.42796663 20 15 C17.91631462 15.31014392 15.83306332 15.6232052 13.75 15.9375 C12.58984375 16.11152344 11.4296875 16.28554687 10.234375 16.46484375 C7.76893039 16.8727736 5.40575438 17.33901303 3 18 C2.49490792 15.75113762 1.99610821 13.50086131 1.5 11.25 C1.2215625 9.99703125 0.943125 8.7440625 0.65625 7.453125 C0 4 0 4 0 0 Z " fill="#8E8F92" transform="translate(182,51)"></path><path d="M0 0 C0.66 1.32 1.32 2.64 2 4 C1.34 4.61875 0.68 5.2375 0 5.875 C-2.2284549 7.75637427 -2.2284549 7.75637427 -2 10 C-0.68 10.33 0.64 10.66 2 11 C1.79375 11.721875 1.5875 12.44375 1.375 13.1875 C0.76482181 15.97402179 0.76482181 15.97402179 1.94921875 18.30078125 C5.27049193 26.83237891 2.9295115 35.64548282 -0.4921875 43.73046875 C-2.04873743 47.10568193 -3.64841598 50.4584581 -5.25 53.8125 C-7.55907995 58.69117148 -8.78895471 62.61834503 -9 68 C-9.33 68 -9.66 68 -10 68 C-11.69367311 59.80355443 -10.18828623 54.50192051 -6.625 47.0625 C-5.78353356 45.22019848 -4.94237376 43.37775688 -4.1015625 41.53515625 C-3.72338379 40.734729 -3.34520508 39.93430176 -2.95556641 39.10961914 C-0.0524273 32.70031279 0.03159622 25.60833436 -1.89453125 18.87109375 C-2.60237259 16.99268793 -3.34312247 15.12615832 -4.125 13.27734375 C-5 11 -5 11 -5 8 C-5.66 7.34 -6.32 6.68 -7 6 C-5.35 6 -3.7 6 -2 6 C-1.34 4.02 -0.68 2.04 0 0 Z " fill="#7E7F82" transform="translate(52,84)"></path><path d="M0 0 C1.65 0 3.3 0 5 0 C5.33 2.31 5.66 4.62 6 7 C6.99 5.68 7.98 4.36 9 3 C10.32 3.33 11.64 3.66 13 4 C12.67 7.63 12.34 11.26 12 15 C11.01 15 10.02 15 9 15 C9 13.35 9 11.7 9 10 C8.01 11.485 8.01 11.485 7 13 C6.4225 12.835 5.845 12.67 5.25 12.5 C2.73335631 11.85537969 2.73335631 11.85537969 -1 12 C-3.25065102 13.91666921 -3.25065102 13.91666921 -5 16 C-5.66 15.67 -6.32 15.34 -7 15 C-7 14.34 -7 13.68 -7 13 C-7.66 12.67 -8.32 12.34 -9 12 C-8.34 11.67 -7.68 11.34 -7 11 C-7.350625 10.4225 -7.70125 9.845 -8.0625 9.25 C-9.14917407 6.64198224 -8.93065133 5.60582371 -8 3 C-6.68 3 -5.36 3 -4 3 C-3.34 4.65 -2.68 6.3 -2 8 C-1.34 8 -0.68 8 0 8 C0 5.36 0 2.72 0 0 Z " fill="#7D7E81" transform="translate(173,29)"></path><path d="M0 0 C0.33 0 0.66 0 1 0 C1.3225084 10.91153415 1.3225084 10.91153415 0 15.375 C-1.33102334 20.19995962 -1.09797731 24.71516262 -0.97265625 29.6953125 C-1 33 -1 33 -2 38 C-7.94 38 -13.88 38 -20 38 C-20.82437494 34.70250024 -21.16233351 32.27457657 -21.1875 28.9375 C-21.20167969 28.08027344 -21.21585937 27.22304687 -21.23046875 26.33984375 C-21 24 -21 24 -19 21 C-17.38729589 26.01730167 -18.44709403 30.83954431 -19 36 C-14.05 36 -9.1 36 -4 36 C-3.67 31.05 -3.34 26.1 -3 21 C-4.32 21 -5.64 21 -7 21 C-7.33 21.99 -7.66 22.98 -8 24 C-8 23.01 -8 22.02 -8 21 C-10.31 20.67 -12.62 20.34 -15 20 C-15 19.67 -15 19.34 -15 19 C-11.37 19 -7.74 19 -4 19 C-3.87625 17.88625 -3.7525 16.7725 -3.625 15.625 C-1.90720859 1.90720859 -1.90720859 1.90720859 0 0 Z " fill="#6E6F71" transform="translate(123,175)"></path><path d="M0 0 C4.95 0 9.9 0 15 0 C15 3.63 15 7.26 15 11 C10.05 11 5.1 11 0 11 C0 7.37 0 3.74 0 0 Z " fill="#EFEFF0" transform="translate(46,201)"></path><path d="M0 0 C0 0.66 0 1.32 0 2 C-0.99 2.495 -0.99 2.495 -2 3 C-1.68806536 4.72926874 -1.37542638 6.45841044 -1.0625 8.1875 C-0.80146484 9.63189453 -0.80146484 9.63189453 -0.53515625 11.10546875 C-0.04777524 13.74159525 0.47425133 16.37125667 1 19 C7.435 18.505 7.435 18.505 14 18 C14 17.34 14 16.68 14 16 C16.97 16.33 19.94 16.66 23 17 C22.34 17.33 21.68 17.66 21 18 C21.10699219 18.79664062 21.21398437 19.59328125 21.32421875 20.4140625 C22.51493849 30.93848858 22.51493849 30.93848858 19 36 C17.33586345 32.6717269 18.18132594 29.00266027 18.4375 25.375 C18.48970703 24.57320312 18.54191406 23.77140625 18.59570312 22.9453125 C18.72548371 20.96320897 18.86209735 18.98155501 19 17 C18.01 17.66 17.02 18.32 16 19 C15.77892213 21.7885289 15.71892465 24.34653181 15.8125 27.125 C15.82603516 27.87910156 15.83957031 28.63320312 15.85351562 29.41015625 C15.88890015 31.27374127 15.94270833 33.13695978 16 35 C15.67 35 15.34 35 15 35 C15 30.05 15 25.1 15 20 C9.67773438 21.171875 9.67773438 21.171875 4.35546875 22.34375 C1 23 1 23 -2 23 C-5.72897196 8.43925234 -5.72897196 8.43925234 -5 2 C-2 0 -2 0 0 0 Z " fill="#6E7072" transform="translate(38,49)"></path><path d="M0 0 C5.28 0 10.56 0 16 0 C16 7 16 7 15 10 C10.05 10 5.1 10 0 10 C0 6.7 0 3.4 0 0 Z " fill="#F4F4F5" transform="translate(104,201)"></path><path d="M0 0 C2.33262973 3.4989446 3.89258121 7.0915221 5.5625 10.9375 C5.87896484 11.65357422 6.19542969 12.36964844 6.52148438 13.10742188 C6.82505859 13.80287109 7.12863281 14.49832031 7.44140625 15.21484375 C7.71670166 15.84511475 7.99199707 16.47538574 8.27563477 17.12475586 C10.70361023 23.41032362 10.18406418 29.84824641 10.1875 36.5 C10.19974609 37.716875 10.21199219 38.93375 10.22460938 40.1875 C10.23711957 47.9938637 9.55851419 55.34959382 8 63 C7.67 63 7.34 63 7 63 C6.32449334 55.65557004 5.92889468 48.46439808 6.11328125 41.08984375 C6.12825653 40.42248199 6.14323181 39.75512024 6.15866089 39.0675354 C6.22080815 36.33857175 6.28456352 33.61093738 6.39770508 30.88354492 C6.75850416 21.73276464 5.75548044 14.84431959 1.30151367 6.67407227 C0 4 0 4 0 0 Z " fill="#B0B1B2" transform="translate(117,120)"></path><path d="M0 0 C0.33 0 0.66 0 1 0 C1.22226864 1.76913824 1.42733873 3.54044371 1.625 5.3125 C1.74101562 6.29863281 1.85703125 7.28476562 1.9765625 8.30078125 C2 11 2 11 0 14 C-0.680625 14.33 -1.36125 14.66 -2.0625 15 C-4.35342991 15.89698316 -4.35342991 15.89698316 -5 19 C-4.67 19.66 -4.34 20.32 -4 21 C-7.0831351 19.80100302 -10.06279492 18.52299523 -13 17 C-12.67 15.35 -12.34 13.7 -12 12 C-10.68 12 -9.36 12 -8 12 C-8.185625 10.88625 -8.37125 9.7725 -8.5625 8.625 C-9 5 -9 5 -8 3 C-6.125 3.3125 -6.125 3.3125 -4 4 C-3.01 5.485 -3.01 5.485 -2 7 C-1.34 4.69 -0.68 2.38 0 0 Z " fill="#737476" transform="translate(25,31)"></path><path d="M0 0 C0.66 0 1.32 0 2 0 C1.68872484 1.58357459 1.37592711 3.16684993 1.0625 4.75 C0.88847656 5.63171875 0.71445313 6.5134375 0.53515625 7.421875 C0 10 0 10 -0.5703125 11.86328125 C-2.58450282 21.87930036 -0.04732577 31.48737229 4.72265625 40.23046875 C6.0491353 43.10653495 6.26819591 44.87865616 6 48 C2.77069532 44.27540319 1.1853231 40.0181369 -0.625 35.5 C-0.93695313 34.74074219 -1.24890625 33.98148438 -1.5703125 33.19921875 C-5.60829505 23.26090824 -6.13223608 14.37553202 -3 4 C-2.01 4.33 -1.02 4.66 0 5 C0 3.35 0 1.7 0 0 Z " fill="#9F9FA1" transform="translate(118,94)"></path><path d="M0 0 C0.33 0 0.66 0 1 0 C1.08636719 0.88042969 1.17273438 1.76085937 1.26171875 2.66796875 C2.02894605 9.83872402 2.02894605 9.83872402 5.25 16.125 C11.17326308 20.16358847 15.34685682 21.43532783 22.375 21.1875 C23.11105469 21.17396484 23.84710937 21.16042969 24.60546875 21.14648438 C26.40396743 21.11144869 28.20208422 21.05765288 30 21 C30.144375 20.05125 30.28875 19.1025 30.4375 18.125 C31 15 31 15 32 13 C32.66 13 33.32 13 34 13 C33.74445946 14.46109063 33.46999628 15.91888096 33.1875 17.375 C33.03667969 18.18710938 32.88585938 18.99921875 32.73046875 19.8359375 C32 22 32 22 29 24 C21.07596907 25.77360981 13.80791986 25.08357879 6.6875 21.1875 C2.45684668 17.74394497 -0.42025404 14.26581986 -2 9 C-2.35585134 5.35252375 -1.86573518 3.14842811 0 0 Z " fill="#66686B" transform="translate(5,99)"></path><path d="M0 0 C0.99 0 1.98 0 3 0 C3 0.99 3 1.98 3 3 C7.62 3 12.24 3 17 3 C17 3.33 17 3.66 17 4 C12.545 4.495 12.545 4.495 8 5 C11.3 5.33 14.6 5.66 18 6 C18 7.65 18 9.3 18 11 C16.08496326 11.22281874 14.16783494 11.42771076 12.25 11.625 C11.18265625 11.74101562 10.1153125 11.85703125 9.015625 11.9765625 C5.89184901 12.00084055 4.43685853 11.94046142 2 10 C1.171875 7.6171875 1.171875 7.6171875 0.75 4.875 C0.60046875 3.96492187 0.4509375 3.05484375 0.296875 2.1171875 C0.19890625 1.41851562 0.1009375 0.71984375 0 0 Z " fill="#969799" transform="translate(102,190)"></path><path d="M0 0 C4.93010753 0.06882757 9.85936287 0.15676828 14.78881836 0.26245117 C16.46580559 0.29570863 18.14290497 0.32373808 19.82006836 0.34643555 C22.23079225 0.37996737 24.64048762 0.43227978 27.05078125 0.48828125 C27.80087967 0.49467117 28.55097809 0.5010611 29.32380676 0.50764465 C34.55076615 0.65534388 34.55076615 0.65534388 36.99682617 2.53198242 C37.49339722 3.25865112 37.49339722 3.25865112 38 4 C33.55257542 4.02483101 29.10518822 4.04292183 24.65771484 4.05493164 C23.14663998 4.05994162 21.63556991 4.06675144 20.12451172 4.07543945 C17.94497488 4.08765176 15.76550247 4.09326178 13.5859375 4.09765625 C11.62213135 4.10551147 11.62213135 4.10551147 9.61865234 4.11352539 C6.30986487 4.00972117 3.24404982 3.63432368 0 3 C0 2.01 0 1.02 0 0 Z " fill="#767779" transform="translate(210,209)"></path><path d="M0 0 C4.54132797 -0.1455841 9.08205341 -0.23417333 13.625 -0.3125 C14.91019531 -0.35439453 16.19539063 -0.39628906 17.51953125 -0.43945312 C28.18191964 -0.57756696 28.18191964 -0.57756696 31.8984375 2.51953125 C32.59195313 3.33808594 33.28546875 4.15664062 34 5 C33.01 5.66 32.02 6.32 31 7 C30.505 6.2884375 30.505 6.2884375 30 5.5625 C24.54287099 1.29911796 15.01408264 3.06563308 8.5 3.4375 C7.48679687 3.48970703 6.47359375 3.54191406 5.4296875 3.59570312 C2.95272392 3.72422482 0.47628663 3.85912766 -2 4 C-2.33 3.34 -2.66 2.68 -3 2 C-2.01 2 -1.02 2 0 2 C0 1.34 0 0.68 0 0 Z " fill="#636367" transform="translate(70,184)"></path><path d="M0 0 C1.0194119 0.98020375 2.02246356 1.97803008 3 3 C2.30132812 3.02578125 1.60265625 3.0515625 0.8828125 3.078125 C-0.02726562 3.13484375 -0.93734375 3.1915625 -1.875 3.25 C-2.77992187 3.29640625 -3.68484375 3.3428125 -4.6171875 3.390625 C-7.15153837 3.7490841 -7.15153837 3.7490841 -8.234375 5.94140625 C-8.48703125 6.62074219 -8.7396875 7.30007812 -9 8 C-11.10815078 10.58727596 -12.71813734 11.43416161 -16 12 C-16.33 11.34 -16.66 10.68 -17 10 C-18.155 9.835 -19.31 9.67 -20.5 9.5 C-21.655 9.335 -22.81 9.17 -24 9 C-24.33 8.34 -24.66 7.68 -25 7 C-21.7 7 -18.4 7 -15 7 C-15 6.01 -15 5.02 -15 4 C-12.87875034 3.13656176 -10.75286928 2.28449352 -8.625 1.4375 C-7.44164063 0.96183594 -6.25828125 0.48617187 -5.0390625 -0.00390625 C-2 -1 -2 -1 0 0 Z " fill="#6E6F72" transform="translate(103,63)"></path><path d="M0 0 C0.66 1.32 1.32 2.64 2 4 C1.34 4.61875 0.68 5.2375 0 5.875 C-2.2284549 7.75637427 -2.2284549 7.75637427 -2 10 C-0.68 10.33 0.64 10.66 2 11 C1.79375 11.721875 1.5875 12.44375 1.375 13.1875 C0.76129285 15.95851322 0.76129285 15.95851322 1.9375 18.1875 C3.50546736 22.33800184 3.52883702 26.60598652 3 31 C2.34 31.66 1.68 32.32 1 33 C0.81824219 32.0821875 0.63648438 31.164375 0.44921875 30.21875 C-0.91976918 23.53528073 -2.49034917 17.33388065 -5 11 C-5 10.01 -5 9.02 -5 8 C-5.66 7.34 -6.32 6.68 -7 6 C-5.35 6 -3.7 6 -2 6 C-1.34 4.02 -0.68 2.04 0 0 Z " fill="#6A6B6E" transform="translate(52,84)"></path><path d="M0 0 C0.66 0 1.32 0 2 0 C2.33 2.31 2.66 4.62 3 7 C3.99 5.68 4.98 4.36 6 3 C7.32 3.33 8.64 3.66 10 4 C9.67 7.63 9.34 11.26 9 15 C8.01 15 7.02 15 6 15 C6 13.35 6 11.7 6 10 C5.01 11.485 5.01 11.485 4 13 C2.0625 12.625 2.0625 12.625 0 12 C-1.49498913 9.01002175 -1.11577446 6.29957225 -1 3 C-0.67 2.01 -0.34 1.02 0 0 Z " fill="#828385" transform="translate(176,29)"></path><path d="M0 0 C2.67550292 2.67550292 2.83209389 4.94879894 3.625 8.625 C4.01558594 10.40777344 4.01558594 10.40777344 4.4140625 12.2265625 C4.70410156 13.59941406 4.70410156 13.59941406 5 15 C5.72574219 14.83628906 6.45148438 14.67257813 7.19921875 14.50390625 C9.82038731 14.03231525 12.15697867 13.89786535 14.8125 13.9375 C15.60269531 13.94652344 16.39289063 13.95554687 17.20703125 13.96484375 C18.09455078 13.98224609 18.09455078 13.98224609 19 14 C19.33 12.35 19.66 10.7 20 9 C20.99 9.66 21.98 10.32 23 11 C22.88623383 13.12563103 22.75864369 15.2505261 22.625 17.375 C22.55539063 18.55835937 22.48578125 19.74171875 22.4140625 20.9609375 C22 24 22 24 20 26 C20 22.37 20 18.74 20 15 C17.91631462 15.31014392 15.83306332 15.6232052 13.75 15.9375 C12.58984375 16.11152344 11.4296875 16.28554687 10.234375 16.46484375 C7.76893039 16.8727736 5.40575438 17.33901303 3 18 C2.49490792 15.75113762 1.99610821 13.50086131 1.5 11.25 C1.2215625 9.99703125 0.943125 8.7440625 0.65625 7.453125 C0 4 0 4 0 0 Z " fill="#87888A" transform="translate(182,51)"></path><path d="M0 0 C0.33 0 0.66 0 1 0 C1.0589002 4.41660901 1.09389517 8.83311469 1.125 13.25 C1.14175781 14.48492187 1.15851563 15.71984375 1.17578125 16.9921875 C1.21726758 24.87458931 0.58804858 32.27639057 -1 40 C-1.33 40 -1.66 40 -2 40 C-3.33257403 25.40318907 -3.33257403 25.40318907 -2 18 C-1.67 18 -1.34 18 -1 18 C-0.505 9.09 -0.505 9.09 0 0 Z " fill="#C3C3C4" transform="translate(126,143)"></path><path d="M0 0 C-0.01160156 1.27617188 -0.02320313 2.55234375 -0.03515625 3.8671875 C-0.04453417 5.53645687 -0.05363437 7.20572783 -0.0625 8.875 C-0.07087891 9.71675781 -0.07925781 10.55851562 -0.08789062 11.42578125 C-0.09272461 12.63427734 -0.09272461 12.63427734 -0.09765625 13.8671875 C-0.10289307 14.61081543 -0.10812988 15.35444336 -0.11352539 16.12060547 C-0.11786636 18.09132568 -0.11786636 18.09132568 1 20 C0.34 20.66 -0.32 21.32 -1 22 C-1.99 21.67 -2.98 21.34 -4 21 C-4 14.4 -4 7.8 -4 1 C-2 0 -2 0 0 0 Z " fill="#8B8D8F" transform="translate(57,66)"></path><path d="M0 0 C1.32 0.33 2.64 0.66 4 1 C3.47731534 3.76276177 2.89130413 6.3260876 2 9 C2.33 9.66 2.66 10.32 3 11 C-0.0831351 9.80100302 -3.06279492 8.52299523 -6 7 C-5.67 5.35 -5.34 3.7 -5 2 C-3.68 2 -2.36 2 -1 2 C-0.67 1.34 -0.34 0.68 0 0 Z " fill="#8F8F92" transform="translate(18,41)"></path><path d="M0 0 C0.66 0 1.32 0 2 0 C2 8.91 2 17.82 2 27 C1.67 27 1.34 27 1 27 C-2.65914957 18.53821663 -1.08201773 8.90732457 0 0 Z " fill="#656569" transform="translate(40,147)"></path><path d="M0 0 C1.32 0.33 2.64 0.66 4 1 C4.144375 2.2375 4.28875 3.475 4.4375 4.75 C4.78688502 7.56504499 5.20379366 10.2701497 6 13 C4.02 13.99 4.02 13.99 2 15 C0.05909174 13.05909174 0.60080565 9.52706098 0.4375 6.9375 C0.35371094 5.64714844 0.26992188 4.35679688 0.18359375 3.02734375 C0.12300781 2.02832031 0.06242187 1.02929688 0 0 Z " fill="#626265" transform="translate(26,31)"></path><path d="M0 0 C0.99 0 1.98 0 3 0 C3 0.99 3 1.98 3 3 C7.62 3 12.24 3 17 3 C17 3.33 17 3.66 17 4 C16.06027344 4.09087891 16.06027344 4.09087891 15.1015625 4.18359375 C14.28429687 4.26738281 13.46703125 4.35117188 12.625 4.4375 C11.81289062 4.51871094 11.00078125 4.59992188 10.1640625 4.68359375 C7.95727195 4.89090114 7.95727195 4.89090114 6 6 C6 7.32 6 8.64 6 10 C4.68 9.67 3.36 9.34 2 9 C1.34 6.03 0.68 3.06 0 0 Z " fill="#87888A" transform="translate(102,190)"></path><path d="M0 0 C0.33 0 0.66 0 1 0 C1.33452052 7.43378943 1.13902852 13.19877155 -2 20 C-2.66 19.34 -3.32 18.68 -4 18 C-3.79296875 15.86328125 -3.79296875 15.86328125 -3.1875 13.3125 C-2.48084458 10.18690872 -1.83340477 7.11793501 -1.4375 3.9375 C-1 1 -1 1 0 0 Z " fill="#8D8E90" transform="translate(123,175)"></path><path d="M0 0 C2.55751672 2.55751672 3.25090587 4.98568971 4.5 8.375 C6.14868021 12.8852902 6.14868021 12.8852902 8.1484375 17.2421875 C9.26984644 19.55702247 9.14087558 21.46423948 9 24 C5.76369666 20.25427854 4.10630863 15.96368461 2.25 11.4375 C1.92128906 10.66986328 1.59257813 9.90222656 1.25390625 9.11132812 C0.79564453 8.00241211 0.79564453 8.00241211 0.328125 6.87109375 C0.0487207 6.20005615 -0.23068359 5.52901855 -0.51855469 4.83764648 C-1 3 -1 3 0 0 Z " fill="#707174" transform="translate(115,118)"></path><path d="M0 0 C1 3 1 3 1 5 C1.7425 4.649375 2.485 4.29875 3.25 3.9375 C6.21122875 2.9279902 7.12062561 3.12019116 10 4 C0.77448747 8.59225513 0.77448747 8.59225513 -5 8 C-5 4 -5 4 -3 1 C-2.01 0.67 -1.02 0.34 0 0 Z " fill="#7D7E80" transform="translate(55,87)"></path><path d="M0 0 C0.99 0 1.98 0 3 0 C1.70024676 6.71539173 -0.29928888 12.72019113 -3 19 C-3.66 18.67 -4.32 18.34 -5 18 C-4.80664062 17.3709375 -4.61328125 16.741875 -4.4140625 16.09375 C-2.7907875 10.75783615 -1.30539435 5.42240732 0 0 Z " fill="#6F7073" transform="translate(206,75)"></path><path d="M0 0 C2.97 0.33 5.94 0.66 9 1 C8.01 1.495 8.01 1.495 7 2 C7.10699219 2.79664062 7.21398438 3.59328125 7.32421875 4.4140625 C8.51493849 14.93848858 8.51493849 14.93848858 5 20 C3.33586345 16.6717269 4.18132594 13.00266027 4.4375 9.375 C4.48970703 8.57320312 4.54191406 7.77140625 4.59570312 6.9453125 C4.72548371 4.96320897 4.86209735 2.98155501 5 1 C3.35 1.33 1.7 1.66 0 2 C0 1.34 0 0.68 0 0 Z " fill="#6F7072" transform="translate(52,65)"></path><path d="M0 0 C3.05959834 4.90469962 1.65891644 9.46510189 1 15 C6.28 15 11.56 15 17 15 C17 15.33 17 15.66 17 16 C8.585 16.495 8.585 16.495 0 17 C-0.83229102 13.67083593 -1.13514402 11.30024145 -1.125 7.9375 C-1.12757812 7.08027344 -1.13015625 6.22304687 -1.1328125 5.33984375 C-1 3 -1 3 0 0 Z " fill="#606164" transform="translate(103,196)"></path><path d="M0 0 C1 1 1 1 1.09765625 4.59765625 C1.0909822 6.08596867 1.07902183 7.57426432 1.0625 9.0625 C1.05798828 9.82111328 1.05347656 10.57972656 1.04882812 11.36132812 C1.0370068 13.24091871 1.01907078 15.12046899 1 17 C0.67 17 0.34 17 0 17 C0 12.05 0 7.1 0 2 C-5.94 2.495 -5.94 2.495 -12 3 C-12 2.34 -12 1.68 -12 1 C-8.00681626 -0.33106125 -4.16255487 -0.13647721 0 0 Z " fill="#636467" transform="translate(53,67)"></path><path d="M0 0 C0.33 0.99 0.66 1.98 1 3 C8.92 2.505 8.92 2.505 17 2 C16.67 6.62 16.34 11.24 16 16 C15.67 16 15.34 16 15 16 C15 12.04 15 8.08 15 4 C13.1025 4.20625 11.205 4.4125 9.25 4.625 C5.12547951 5.07331744 2.55818936 5.26273207 -1 3 C-0.67 2.01 -0.34 1.02 0 0 Z " fill="#66676A" transform="translate(47,197)"></path><path d="M0 0 C0.33 0 0.66 0 1 0 C1.13277344 0.91523437 1.26554688 1.83046875 1.40234375 2.7734375 C1.57894531 3.96195312 1.75554688 5.15046875 1.9375 6.375 C2.11152344 7.55835937 2.28554687 8.74171875 2.46484375 9.9609375 C2.83462786 12.90702381 2.83462786 12.90702381 4 15 C3.01 15.33 2.02 15.66 1 16 C-2.59055118 8.37007874 -2.59055118 8.37007874 -2 4 C-1 1.6875 -1 1.6875 0 0 Z " fill="#6B6D6F" transform="translate(5,99)"></path><path d="M0 0 C1.90401138 1.90401138 2.93520439 3.33425686 3.19921875 6.046875 C3.1886578 8.03233273 3.09915043 10.0169914 3 12 C1.35 12 -0.3 12 -2 12 C-2 11.01 -2 10.02 -2 9 C-1.34 9 -0.68 9 0 9 C-0.185625 7.88625 -0.37125 6.7725 -0.5625 5.625 C-1 2 -1 2 0 0 Z " fill="#797A7C" transform="translate(233,164)"></path><path d="M0 0 C2.97 0 5.94 0 9 0 C9 1.32 9 2.64 9 4 C6.03 4 3.06 4 0 4 C0 2.68 0 1.36 0 0 Z " fill="#9C9D9F" transform="translate(46,196)"></path><path d="M0 0 C3.63 0 7.26 0 11 0 C11 0.66 11 1.32 11 2 C11.66 2 12.32 2 13 2 C13 2.99 13 3.98 13 5 C11.02 5 9.04 5 7 5 C7 3.68 7 2.36 7 1 C4.69 1 2.38 1 0 1 C0 0.67 0 0.34 0 0 Z " fill="#868789" transform="translate(48,195)"></path><path d="M0 0 C0.99 0.33 1.98 0.66 3 1 C3.05395478 2.62463842 3.09277195 4.24978541 3.125 5.875 C3.14820313 6.77992187 3.17140625 7.68484375 3.1953125 8.6171875 C3 11 3 11 1 13 C0.63901937 11.02206479 0.28638652 9.04260427 -0.0625 7.0625 C-0.25972656 5.96035156 -0.45695312 4.85820313 -0.66015625 3.72265625 C-0.77230469 2.82417969 -0.88445313 1.92570312 -1 1 C-0.67 0.67 -0.34 0.34 0 0 Z " fill="#66676A" transform="translate(52,104)"></path><path d="M0 0 C0.33 0 0.66 0 1 0 C1.04898438 0.81984375 1.09796875 1.6396875 1.1484375 2.484375 C1.22320312 3.56203125 1.29796875 4.6396875 1.375 5.75 C1.44460937 6.81734375 1.51421875 7.8846875 1.5859375 8.984375 C1.9728223 11.80206432 2.55686166 13.5830366 4 16 C3.34 16.66 2.68 17.32 2 18 C1.01 17.67 0.02 17.34 -1 17 C-0.67 11.39 -0.34 5.78 0 0 Z " fill="#949597" transform="translate(54,70)"></path><path d="M0 0 C2.32579101 3.48868651 2.41865457 4.89718519 2 9 C0.5 11.375 0.5 11.375 -1 13 C-2.01936725 9.94189824 -2.00186825 8.50198793 -1.625 5.375 C-1.53476563 4.57835938 -1.44453125 3.78171875 -1.3515625 2.9609375 C-1 1 -1 1 0 0 Z " fill="#78787B" transform="translate(234,96)"></path><path d="M0 0 C0.99 0 1.98 0 3 0 C2.67 3.63 2.34 7.26 2 11 C1.01 11 0.02 11 -1 11 C-0.67 7.37 -0.34 3.74 0 0 Z " fill="#636567" transform="translate(173,29)"></path><path d="M0 0 C0.33 0.66 0.66 1.32 1 2 C1.66 2.33 2.32 2.66 3 3 C1.35 6.3 -0.3 9.6 -2 13 C-3.03103689 8.87585243 -2.94701684 8.0158858 -1.5625 4.25 C-1.27503906 3.45078125 -0.98757812 2.6515625 -0.69140625 1.828125 C-0.46324219 1.22484375 -0.23507813 0.6215625 0 0 Z " fill="#87898C" transform="translate(201,83)"></path><path d="M0 0 C-0.33 0.33 -0.66 0.66 -1 1 C-0.34 1.66 0.32 2.32 1 3 C-0.96466413 4.06775224 -2.96855359 5.06553465 -5 6 C-5.66 5.67 -6.32 5.34 -7 5 C-6.01 4.67 -5.02 4.34 -4 4 C-5.25541557 1.48916886 -6.50063488 1.12874554 -9 0 C-5.62182575 -0.84454356 -3.32534757 -1.10844919 0 0 Z " fill="#C2C3C4" transform="translate(42,47)"></path><path d="M0 0 C0 0.66 0 1.32 0 2 C2.97 2 5.94 2 9 2 C8.01 2.99 7.02 3.98 6 5 C2.3766682 4.87059529 -0.06985031 4.75012072 -2.9375 2.4375 C-3.288125 1.963125 -3.63875 1.48875 -4 1 C-2 0 -2 0 0 0 Z " fill="#88898B" transform="translate(65,43)"></path><path d="M0 0 C5.41538462 -0.36923077 5.41538462 -0.36923077 8.375 1.5 C8.91125 1.995 9.4475 2.49 10 3 C9.67 3.99 9.34 4.98 9 6 C7.68397477 5.38245741 6.37226444 4.75571258 5.0625 4.125 C4.33160156 3.77695313 3.60070312 3.42890625 2.84765625 3.0703125 C1 2 1 2 0 0 Z " fill="#656669" transform="translate(245,6)"></path><path d="M0 0 C0.12375 0.639375 0.2475 1.27875 0.375 1.9375 C0.58125 2.618125 0.7875 3.29875 1 4 C1.66 4.33 2.32 4.66 3 5 C3 7.31 3 9.62 3 12 C1.68 12 0.36 12 -1 12 C-1.14285714 3.42857143 -1.14285714 3.42857143 0 0 Z " fill="#767779" transform="translate(233,138)"></path><path d="M0 0 C1.15837573 3.47512718 0.77265943 5.13670286 0.0625 8.6875 C-0.13214844 9.68136719 -0.32679687 10.67523438 -0.52734375 11.69921875 C-0.68332031 12.45847656 -0.83929688 13.21773437 -1 14 C-1.33 14 -1.66 14 -2 14 C-2.19551338 12.39679026 -2.38111983 10.79237014 -2.5625 9.1875 C-2.71912109 7.84751953 -2.71912109 7.84751953 -2.87890625 6.48046875 C-3 4 -3 4 -2 1 C-1.34 0.67 -0.68 0.34 0 0 Z " fill="#737476" transform="translate(44,138)"></path><path d="M0 0 C0.33 0.66 0.66 1.32 1 2 C3.97 2 6.94 2 10 2 C9.01 3.485 9.01 3.485 8 5 C5.03 4.67 2.06 4.34 -1 4 C-1 1 -1 1 0 0 Z " fill="#808184" transform="translate(213,43)"></path><path d="M0 0 C3.63 0 7.26 0 11 0 C9.515 1.485 9.515 1.485 8 3 C4.375 2.8125 4.375 2.8125 1 2 C0.67 1.34 0.34 0.68 0 0 Z " fill="#DFE0E0" transform="translate(78,70)"></path><path d="M0 0 C0 0.66 0 1.32 0 2 C-0.99 2.495 -0.99 2.495 -2 3 C-2 5.31 -2 7.62 -2 10 C-2.99 10 -3.98 10 -5 10 C-5.29296875 3.9453125 -5.29296875 3.9453125 -5 2 C-2 0 -2 0 0 0 Z " fill="#6F7072" transform="translate(38,49)"></path><path d="M0 0 C0.66 0 1.32 0 2 0 C1.67 1.32 1.34 2.64 1 4 C-3.3164922 4.76173392 -6.74433453 5.16063604 -11 4 C-11 3.67 -11 3.34 -11 3 C-5.555 2.505 -5.555 2.505 0 2 C0 1.34 0 0.68 0 0 Z " fill="#6B6C6F" transform="translate(183,112)"></path><path d="M0 0 C1.41377341 2.63904371 2.37240135 5.07120629 3 8 C2.01 8.33 1.02 8.66 0 9 C-0.99 6.36 -1.98 3.72 -3 1 C-2.01 0.67 -1.02 0.34 0 0 Z " fill="#707173" transform="translate(51,96)"></path><path d="M0 0 C0.33 0.99 0.66 1.98 1 3 C2.32 3 3.64 3 5 3 C5.33 2.34 5.66 1.68 6 1 C6 2.65 6 4.3 6 6 C3 7 3 7 0 6 C0 4.02 0 2.04 0 0 Z " fill="#656669" transform="translate(231,77)"></path><path d="M0 0 C3.3 0 6.6 0 10 0 C10.33 0.99 10.66 1.98 11 3 C5.71910976 3.30466674 4.422832 3.317124 0 0 Z " fill="#7C7D7F" transform="translate(37,89)"></path><path d="M0 0 C2.30163882 3.45245824 2.34490322 4.94738713 2 9 C1.34 9.66 0.68 10.32 0 11 C-1.125 3.375 -1.125 3.375 0 0 Z " fill="#717275" transform="translate(83,136)"></path><path d="M0 0 C0.66 0 1.32 0 2 0 C1.34 2.97 0.68 5.94 0 9 C-0.99 9 -1.98 9 -3 9 C-2.01 6.03 -1.02 3.06 0 0 Z " fill="#707175" transform="translate(37,112)"></path><path d="M0 0 C0.99 0 1.98 0 3 0 C3 0.66 3 1.32 3 2 C3.99 2.33 4.98 2.66 6 3 C5.67 3.66 5.34 4.32 5 5 C3.35 5 1.7 5 0 5 C0 3.35 0 1.7 0 0 Z " fill="#1BB5C2" transform="translate(241,78)"></path><path d="M0 0 C0.33 0.66 0.66 1.32 1 2 C1.66 2 2.32 2 3 2 C3.33 4.31 3.66 6.62 4 9 C3.01 8.67 2.02 8.34 1 8 C-0.35439668 5.29120665 -0.06501451 2.99066732 0 0 Z " fill="#636468" transform="translate(34,57)"></path><path d="M0 0 C0.33 0.99 0.66 1.98 1 3 C-2.4352048 5.29013653 -3.985331 5.17842973 -8 5 C-8.33 4.01 -8.66 3.02 -9 2 C-6.03 2 -3.06 2 0 2 C0 1.34 0 0.68 0 0 Z " fill="#7B7C7E" transform="translate(252,43)"></path><path d="M0 0 C0.33 0 0.66 0 1 0 C1.33 3.63 1.66 7.26 2 11 C1.01 11 0.02 11 -1 11 C-1.125 3.375 -1.125 3.375 0 0 Z " fill="#B6B6B8" transform="translate(25,31)"></path><path d="M0 0 C3 3.625 3 3.625 3 7 C1.35 7 -0.3 7 -2 7 C-1.125 2.25 -1.125 2.25 0 0 Z " fill="#727376" transform="translate(83,168)"></path><path d="M0 0 C2.09350689 3.4019487 2.17942163 6.05272412 2 10 C1.01 10.495 1.01 10.495 0 11 C-0.66 8.03 -1.32 5.06 -2 2 C-1.34 2 -0.68 2 0 2 C0 1.34 0 0.68 0 0 Z " fill="#848587" transform="translate(234,107)"></path><path d="M0 0 C0.33 0 0.66 0 1 0 C1 3.3 1 6.6 1 10 C0.01 10 -0.98 10 -2 10 C-2.25 3.375 -2.25 3.375 0 0 Z " fill="#848487" transform="translate(84,160)"></path><path d="M0 0 C0.82638376 2.89234315 1 4.88742431 1 8 C0.01 8.33 -0.98 8.66 -2 9 C-2.125 5.625 -2.125 5.625 -2 2 C-1.34 1.34 -0.68 0.68 0 0 Z " fill="#7F8082" transform="translate(84,88)"></path><path d="M0 0 C0 0.99 0 1.98 0 3 C-2.31 3.33 -4.62 3.66 -7 4 C-7.66 3.01 -8.32 2.02 -9 1 C-7.88625 1.020625 -6.7725 1.04125 -5.625 1.0625 C-2.16784079 1.26380718 -2.16784079 1.26380718 0 0 Z " fill="#7A7B7E" transform="translate(102,44)"></path><path d="M0 0 C2.6855594 2.6855594 3.06049974 5.37621328 4 9 C3.01 9 2.02 9 1 9 C0.63877119 7.68942607 0.28619689 6.37646376 -0.0625 5.0625 C-0.35833984 3.96615234 -0.35833984 3.96615234 -0.66015625 2.84765625 C-0.77230469 2.23792969 -0.88445312 1.62820312 -1 1 C-0.67 0.67 -0.34 0.34 0 0 Z " fill="#77787B" transform="translate(115,118)"></path><path d="M0 0 C0.33 0 0.66 0 1 0 C0.25 6.625 0.25 6.625 -2 10 C-2.66 9.01 -3.32 8.02 -4 7 C-3.67 6.34 -3.34 5.68 -3 5 C-2.34 5 -1.68 5 -1 5 C-0.67 3.35 -0.34 1.7 0 0 Z " fill="#696A6D" transform="translate(52,119)"></path><path d="M0 0 C0 0.99 0 1.98 0 3 C-3.37462715 2.45276317 -5.08235 1.9451 -8 0 C-5.13822943 -1.43088528 -3.06624227 -0.59991697 0 0 Z " fill="#7A7A7D" transform="translate(226,66)"></path><path d="M0 0 C0.66 0 1.32 0 2 0 C1.67 4.62 1.34 9.24 1 14 C0.67 14 0.34 14 0 14 C-0.19393875 11.85473901 -0.37998676 9.70876323 -0.5625 7.5625 C-0.71912109 5.77005859 -0.71912109 5.77005859 -0.87890625 3.94140625 C-0.91886719 2.97074219 -0.95882812 2.00007812 -1 1 C-0.67 0.67 -0.34 0.34 0 0 Z " fill="#5B5C5F" transform="translate(62,199)"></path><path d="M0 0 C2.64 0 5.28 0 8 0 C7.01 1.485 7.01 1.485 6 3 C2.875 3.1875 2.875 3.1875 0 3 C0 2.01 0 1.02 0 0 Z " fill="#75767A" transform="translate(210,209)"></path><path d="M0 0 C0.66 0 1.32 0 2 0 C1.38461538 5.53846154 1.38461538 5.53846154 -0.5625 7.875 C-1.036875 8.24625 -1.51125 8.6175 -2 9 C-2.33 7.35 -2.66 5.7 -3 4 C-2.01 4.33 -1.02 4.66 0 5 C0 3.35 0 1.7 0 0 Z " fill="#A1A2A4" transform="translate(118,94)"></path></svg>