<svg xmlns="http://www.w3.org/2000/svg" width="200" height="200"><path d="M0 0 C3.3817338 2.59640225 5.38096421 4.14885506 6.40625 8.4296875 C6.52742188 9.57179688 6.64859375 10.71390625 6.7734375 11.890625 C7.06862305 16.60720921 7.06862305 16.60720921 9.6484375 20.265625 C9.7109375 22.515625 9.7109375 22.515625 8.6484375 25.265625 C6.47284274 27.47765316 4.11676741 29.39020984 1.6484375 31.265625 C2.17953125 31.56855469 2.710625 31.87148438 3.2578125 32.18359375 C12.58412929 37.71471228 12.58412929 37.71471228 14.375 43.68969727 C16.28596968 51.46416765 17.88814628 59.26744011 19.3359375 67.140625 C19.67334961 68.91566406 19.67334961 68.91566406 20.01757812 70.7265625 C20.3356543 72.44359375 20.3356543 72.44359375 20.66015625 74.1953125 C20.85053467 75.21866699 21.04091309 76.24202148 21.23706055 77.29638672 C21.65670409 80.32529163 21.72041356 83.21190566 21.6484375 86.265625 C23.6284375 87.255625 23.6284375 87.255625 25.6484375 88.265625 C25.3184375 90.245625 24.9884375 92.225625 24.6484375 94.265625 C23.1634375 94.760625 23.1634375 94.760625 21.6484375 95.265625 C21.3184375 95.925625 20.9884375 96.585625 20.6484375 97.265625 C18.6684375 96.935625 16.6884375 96.605625 14.6484375 96.265625 C14.97223389 97.40620361 15.29603027 98.54678223 15.62963867 99.72192383 C16.73979814 104.18171822 16.95476627 108.3854389 16.94921875 112.96484375 C16.95350388 113.76291946 16.957789 114.56099518 16.96220398 115.383255 C16.96790633 117.05635637 16.96847806 118.72948251 16.96411133 120.40258789 C16.96093272 122.95696989 16.98452464 125.51021227 17.00976562 128.06445312 C17.01203726 129.69791522 17.01274275 131.3313804 17.01171875 132.96484375 C17.0209285 133.72327072 17.03013824 134.48169769 17.03962708 135.2631073 C17.00029096 139.77575748 16.43019453 142.6722726 13.6484375 146.265625 C11.88671875 147.375 11.88671875 147.375 9.9609375 148.015625 C9.33832031 148.23734375 8.71570313 148.4590625 8.07421875 148.6875 C-5.41115569 151.90140566 -24.04820274 152.53408268 -37.3515625 148.265625 C-40.31780231 146.40445492 -41.8087778 145.3511944 -43.3515625 142.265625 C-43.46298782 139.43055279 -43.51568667 136.62083548 -43.51953125 133.78515625 C-43.52285965 132.93894211 -43.52618805 132.09272797 -43.52961731 131.22087097 C-43.53468655 129.42614282 -43.53702564 127.63140522 -43.53686523 125.83666992 C-43.53903994 123.10644675 -43.55716278 120.37663538 -43.57617188 117.64648438 C-43.57910825 115.90104304 -43.58109141 114.1555998 -43.58203125 112.41015625 C-43.58921677 111.59948196 -43.59640228 110.78880768 -43.60380554 109.9535675 C-43.58416244 105.01298976 -42.92925998 100.95338354 -41.3515625 96.265625 C-44.8165625 96.760625 -44.8165625 96.760625 -48.3515625 97.265625 C-48.6815625 96.605625 -49.0115625 95.945625 -49.3515625 95.265625 C-50.3415625 94.935625 -51.3315625 94.605625 -52.3515625 94.265625 C-52.8465625 91.295625 -52.8465625 91.295625 -53.3515625 88.265625 C-52.72757568 87.94537354 -52.10358887 87.62512207 -51.46069336 87.29516602 C-48.35577602 84.30741537 -48.19842361 80.88638468 -47.60546875 76.79296875 C-47.39868752 75.53644249 -47.39868752 75.53644249 -47.18772888 74.25453186 C-46.74699784 71.57303779 -46.32801429 68.88887503 -45.9140625 66.203125 C-41.88382953 40.08142056 -41.88382953 40.08142056 -35.36547852 34.59350586 C-33.11920023 33.11241632 -30.87701195 32.17759286 -28.3515625 31.265625 C-28.84527344 30.89050781 -29.33898437 30.51539063 -29.84765625 30.12890625 C-35.11232558 25.92352652 -35.11232558 25.92352652 -36.3515625 22.515625 C-36.3515625 20.265625 -36.3515625 20.265625 -35.3515625 18.265625 C-34.6915625 18.265625 -34.0315625 18.265625 -33.3515625 18.265625 C-33.42117187 17.55277344 -33.49078125 16.83992188 -33.5625 16.10546875 C-33.84577487 11.09420145 -34.05539602 7.2943918 -30.7890625 3.265625 C-22.71563006 -4.50948199 -9.74086354 -5.55361451 0 0 Z M-33.3515625 65.265625 C-32.3515625 68.265625 -32.3515625 68.265625 -32.3515625 68.265625 Z M5.6484375 65.265625 C6.6484375 69.265625 6.6484375 69.265625 6.6484375 69.265625 Z M-34.3515625 69.265625 C-33.3515625 73.265625 -33.3515625 73.265625 -33.3515625 73.265625 Z M6.6484375 69.265625 C7.6484375 73.265625 7.6484375 73.265625 7.6484375 73.265625 Z M-35.3515625 73.265625 C-34.3515625 75.265625 -34.3515625 75.265625 -34.3515625 75.265625 Z M7.6484375 74.265625 C8.6484375 76.265625 8.6484375 76.265625 8.6484375 76.265625 Z M-41.3515625 92.265625 C-40.3515625 94.265625 -40.3515625 94.265625 -40.3515625 94.265625 Z " fill="#FCFCFC" transform="translate(149.3515625,2.734375)"></path><path d="M0 0 C4.11264971 3.40247566 5.64818952 6.83805498 6.328125 12.00390625 C6.68133105 15.92249415 6.68133105 15.92249415 5.515625 18.25390625 C6.505625 18.58390625 7.495625 18.91390625 8.515625 19.25390625 C8.185625 21.56390625 7.855625 23.87390625 7.515625 26.25390625 C5.865625 26.91390625 4.215625 27.57390625 2.515625 28.25390625 C2.515625 29.57390625 2.515625 30.89390625 2.515625 32.25390625 C3.5675 32.60453125 4.619375 32.95515625 5.703125 33.31640625 C10.01388464 35.20415636 12.34805348 38.14398346 14.515625 42.25390625 C15.70596099 45.84551686 16.43779956 49.47717328 17.140625 53.19140625 C17.34445801 54.20251465 17.54829102 55.21362305 17.75830078 56.25537109 C18.16625951 58.29322671 18.5666144 60.33262074 18.95898438 62.37353516 C19.46036338 64.96795161 19.98907443 67.55449072 20.53125 70.140625 C22.83649116 81.45898117 22.83649116 81.45898117 21.515625 86.25390625 C23.165625 87.24390625 24.815625 88.23390625 26.515625 89.25390625 C24.20538182 94.84712659 24.20538182 94.84712659 21.078125 96.69140625 C18.42539895 97.27371197 17.03467093 97.18688622 14.515625 96.25390625 C14.84046875 97.1871875 15.1653125 98.12046875 15.5 99.08203125 C16.90557659 104.02389948 16.81465978 108.8999498 16.765625 114.00390625 C16.76103271 114.98891113 16.75644043 115.97391602 16.75170898 116.98876953 C16.68074066 122.6577754 16.3052766 127.97791598 15.02734375 133.515625 C13.87765247 139.66778979 13.81324389 146.01174172 13.515625 152.25390625 C9.225625 152.25390625 4.935625 152.25390625 0.515625 152.25390625 C0.50144531 151.2175 0.48726562 150.18109375 0.47265625 149.11328125 C0.42574407 147.74344568 0.37749673 146.37365538 0.328125 145.00390625 C0.32232422 144.32199219 0.31652344 143.64007813 0.31054688 142.9375 C0.14859522 139.23060658 -0.19858111 137.55474192 -2.78515625 134.83203125 C-8.0920806 131.72928532 -13.44355796 131.7157075 -19.484375 132.25390625 C-23.05093793 133.25802086 -25.83207609 134.60160734 -28.484375 137.25390625 C-28.79036563 139.82307282 -28.99524587 142.30149009 -29.109375 144.87890625 C-29.14804687 145.5853125 -29.18671875 146.29171875 -29.2265625 147.01953125 C-29.32085224 148.76389149 -29.40370391 150.50886316 -29.484375 152.25390625 C-31.46346898 152.28077178 -33.44266471 152.30024 -35.421875 152.31640625 C-36.52402344 152.32800781 -37.62617187 152.33960938 -38.76171875 152.3515625 C-41.484375 152.25390625 -41.484375 152.25390625 -42.484375 151.25390625 C-42.72403627 148.09265995 -42.87791959 144.93887733 -43.00195312 141.77148438 C-43.19622341 137.8750822 -43.65826363 134.22903967 -44.5078125 130.41796875 C-45.66945039 124.93670419 -45.74511509 119.65192662 -45.671875 114.06640625 C-45.67123047 113.12087891 -45.67058594 112.17535156 -45.66992188 111.20117188 C-45.63804258 106.11819594 -45.3504763 101.26343618 -44.484375 96.25390625 C-46.794375 96.25390625 -49.104375 96.25390625 -51.484375 96.25390625 C-51.484375 95.59390625 -51.484375 94.93390625 -51.484375 94.25390625 C-52.474375 94.25390625 -53.464375 94.25390625 -54.484375 94.25390625 C-54.814375 91.94390625 -55.144375 89.63390625 -55.484375 87.25390625 C-54.83629883 87.02034424 -54.18822266 86.78678223 -53.52050781 86.54614258 C-51.28134303 85.45377434 -51.28134303 85.45377434 -50.97167969 83.1862793 C-50.95008789 82.32558838 -50.92849609 81.46489746 -50.90625 80.578125 C-50.52979035 73.94356457 -49.4038891 67.5612042 -48.12011719 61.04614258 C-47.73340438 59.06142476 -47.37059854 57.07319597 -47.0078125 55.08398438 C-45.413542 46.93594727 -43.62111588 40.25720387 -37.546875 34.37890625 C-34.95095736 32.96295117 -32.31492673 32.09020563 -29.484375 31.25390625 C-30.45375 30.57328125 -31.423125 29.89265625 -32.421875 29.19140625 C-35.22079808 26.88757569 -35.47772972 26.28048738 -36.421875 22.50390625 C-36.4425 21.43140625 -36.463125 20.35890625 -36.484375 19.25390625 C-36.154375 18.92390625 -35.824375 18.59390625 -35.484375 18.25390625 C-35.21353046 16.36093841 -34.96782425 14.46434868 -34.734375 12.56640625 C-33.80335885 6.84439457 -32.87181175 4.05635144 -28.484375 0.25390625 C-20.72410095 -4.80714204 -7.89075552 -4.92314529 0 0 Z M-35.484375 64.25390625 C-36.18388563 66.66766825 -36.86921419 69.08400859 -37.546875 71.50390625 C-37.74603516 72.18582031 -37.94519531 72.86773437 -38.15039062 73.5703125 C-39.51514187 78.43819236 -39.51514187 78.43819236 -38.484375 83.25390625 C-34.99223951 73.99257423 -34.99223951 73.99257423 -34.484375 64.25390625 C-34.814375 64.25390625 -35.144375 64.25390625 -35.484375 64.25390625 Z M5.515625 65.25390625 C5.63021193 66.69227376 5.75771616 68.12961591 5.890625 69.56640625 C5.96023437 70.36691406 6.02984375 71.16742188 6.1015625 71.9921875 C6.41126926 74.52615066 6.41126926 74.52615066 8.515625 77.25390625 C8.33 75.39765625 8.33 75.39765625 8.140625 73.50390625 C8.07101563 72.8078125 8.00140625 72.11171875 7.9296875 71.39453125 C7.48029535 69.07125865 6.65788262 67.31554195 5.515625 65.25390625 Z M8.515625 77.25390625 C9.515625 80.25390625 9.515625 80.25390625 9.515625 80.25390625 Z M9.515625 81.25390625 C10.515625 83.25390625 10.515625 83.25390625 10.515625 83.25390625 Z M-40.484375 83.25390625 C-39.484375 86.25390625 -39.484375 86.25390625 -39.484375 86.25390625 Z M-43.484375 92.25390625 C-42.484375 95.25390625 -42.484375 95.25390625 -42.484375 95.25390625 Z " fill="#FCFCFC" transform="translate(55.484375,2.74609375)"></path><path d="M0 0 C4.11264971 3.40247566 5.64818952 6.83805498 6.328125 12.00390625 C6.68133105 15.92249415 6.68133105 15.92249415 5.515625 18.25390625 C6.505625 18.58390625 7.495625 18.91390625 8.515625 19.25390625 C8.185625 21.56390625 7.855625 23.87390625 7.515625 26.25390625 C5.865625 26.91390625 4.215625 27.57390625 2.515625 28.25390625 C2.515625 29.57390625 2.515625 30.89390625 2.515625 32.25390625 C3.5675 32.60453125 4.619375 32.95515625 5.703125 33.31640625 C10.01388464 35.20415636 12.34805348 38.14398346 14.515625 42.25390625 C15.70596099 45.84551686 16.43779956 49.47717328 17.140625 53.19140625 C17.34445801 54.20251465 17.54829102 55.21362305 17.75830078 56.25537109 C18.16625951 58.29322671 18.5666144 60.33262074 18.95898438 62.37353516 C19.46036338 64.96795161 19.98907443 67.55449072 20.53125 70.140625 C22.83649116 81.45898117 22.83649116 81.45898117 21.515625 86.25390625 C23.165625 87.24390625 24.815625 88.23390625 26.515625 89.25390625 C24.20538182 94.84712659 24.20538182 94.84712659 21.078125 96.69140625 C18.42539895 97.27371197 17.03467093 97.18688622 14.515625 96.25390625 C14.84046875 97.1871875 15.1653125 98.12046875 15.5 99.08203125 C16.90557659 104.02389948 16.81465978 108.8999498 16.765625 114.00390625 C16.76103271 114.98891113 16.75644043 115.97391602 16.75170898 116.98876953 C16.68074066 122.6577754 16.3052766 127.97791598 15.02734375 133.515625 C13.87765247 139.66778979 13.81324389 146.01174172 13.515625 152.25390625 C9.225625 152.25390625 4.935625 152.25390625 0.515625 152.25390625 C0.50144531 151.2175 0.48726562 150.18109375 0.47265625 149.11328125 C0.42574407 147.74344568 0.37749673 146.37365538 0.328125 145.00390625 C0.32232422 144.32199219 0.31652344 143.64007813 0.31054688 142.9375 C0.14859522 139.23060658 -0.19858111 137.55474192 -2.78515625 134.83203125 C-8.0920806 131.72928532 -13.44355796 131.7157075 -19.484375 132.25390625 C-23.05093793 133.25802086 -25.83207609 134.60160734 -28.484375 137.25390625 C-28.79036563 139.82307282 -28.99524587 142.30149009 -29.109375 144.87890625 C-29.14804687 145.5853125 -29.18671875 146.29171875 -29.2265625 147.01953125 C-29.32085224 148.76389149 -29.40370391 150.50886316 -29.484375 152.25390625 C-31.46346898 152.28077178 -33.44266471 152.30024 -35.421875 152.31640625 C-36.52402344 152.32800781 -37.62617187 152.33960938 -38.76171875 152.3515625 C-41.484375 152.25390625 -41.484375 152.25390625 -42.484375 151.25390625 C-42.72403627 148.09265995 -42.87791959 144.93887733 -43.00195312 141.77148438 C-43.19622341 137.8750822 -43.65826363 134.22903967 -44.5078125 130.41796875 C-45.66945039 124.93670419 -45.74511509 119.65192662 -45.671875 114.06640625 C-45.67123047 113.12087891 -45.67058594 112.17535156 -45.66992188 111.20117188 C-45.63804258 106.11819594 -45.3504763 101.26343618 -44.484375 96.25390625 C-46.794375 96.25390625 -49.104375 96.25390625 -51.484375 96.25390625 C-51.484375 95.59390625 -51.484375 94.93390625 -51.484375 94.25390625 C-52.474375 94.25390625 -53.464375 94.25390625 -54.484375 94.25390625 C-54.814375 91.94390625 -55.144375 89.63390625 -55.484375 87.25390625 C-54.83629883 87.02034424 -54.18822266 86.78678223 -53.52050781 86.54614258 C-51.28134303 85.45377434 -51.28134303 85.45377434 -50.97167969 83.1862793 C-50.95008789 82.32558838 -50.92849609 81.46489746 -50.90625 80.578125 C-50.52979035 73.94356457 -49.4038891 67.5612042 -48.12011719 61.04614258 C-47.73340438 59.06142476 -47.37059854 57.07319597 -47.0078125 55.08398438 C-45.413542 46.93594727 -43.62111588 40.25720387 -37.546875 34.37890625 C-34.95095736 32.96295117 -32.31492673 32.09020563 -29.484375 31.25390625 C-30.45375 30.57328125 -31.423125 29.89265625 -32.421875 29.19140625 C-35.22079808 26.88757569 -35.47772972 26.28048738 -36.421875 22.50390625 C-36.4425 21.43140625 -36.463125 20.35890625 -36.484375 19.25390625 C-36.154375 18.92390625 -35.824375 18.59390625 -35.484375 18.25390625 C-35.21353046 16.36093841 -34.96782425 14.46434868 -34.734375 12.56640625 C-33.80335885 6.84439457 -32.87181175 4.05635144 -28.484375 0.25390625 C-20.72410095 -4.80714204 -7.89075552 -4.92314529 0 0 Z M-11.98828125 38.13671875 C-14.4515298 41.62256918 -13.97765175 44.09628792 -13.484375 48.25390625 C-13.814375 48.91390625 -14.144375 49.57390625 -14.484375 50.25390625 C-14.58215148 51.96001365 -14.61515032 53.6700006 -14.6171875 55.37890625 C-14.61920166 56.46252441 -14.62121582 57.54614258 -14.62329102 58.66259766 C-14.61640259 60.44029541 -14.61640259 60.44029541 -14.609375 62.25390625 C-14.60671631 63.47384277 -14.60405762 64.6937793 -14.60131836 65.95068359 C-14.55017528 76.26345977 -14.33130574 86.57014678 -14.046875 96.87890625 C-14.01753876 98.01175049 -14.01753876 98.01175049 -13.98760986 99.16748047 C-13.93067843 101.31367252 -13.86696617 103.45954438 -13.80078125 105.60546875 C-13.76412354 106.84119629 -13.72746582 108.07692383 -13.68969727 109.35009766 C-13.67506683 112.19170112 -13.67506683 112.19170112 -12.484375 114.25390625 C-13.804375 114.25390625 -15.124375 114.25390625 -16.484375 114.25390625 C-16.23989624 112.93507446 -16.23989624 112.93507446 -15.99047852 111.58959961 C-15.15800087 105.71967314 -15.36194911 99.79797221 -15.38671875 93.8828125 C-15.3881337 92.60534653 -15.38954865 91.32788055 -15.39100647 90.01170349 C-15.39563984 86.63665879 -15.40460477 83.26168328 -15.41571045 79.88665771 C-15.42599074 76.43421014 -15.43051819 72.98175538 -15.43554688 69.52929688 C-15.44655034 62.7708144 -15.46326933 56.01236432 -15.484375 49.25390625 C-20.04699298 48.16819237 -22.69056776 48.64706007 -27.171875 50.12890625 C-28.31011719 50.49757813 -29.44835937 50.86625 -30.62109375 51.24609375 C-33.38341202 52.15138948 -33.38341202 52.15138948 -35.484375 53.25390625 C-35.34 53.88296875 -35.195625 54.51203125 -35.046875 55.16015625 C-34.86125 56.01609375 -34.675625 56.87203125 -34.484375 57.75390625 C-34.2059375 59.006875 -34.2059375 59.006875 -33.921875 60.28515625 C-32.56293813 69.50651358 -34.82744574 76.18257394 -37.921875 84.87890625 C-38.75795539 87.26551244 -39.59012886 89.65349169 -40.41796875 92.04296875 C-40.9756897 93.61618896 -40.9756897 93.61618896 -41.54467773 95.22119141 C-43.53830976 101.65530338 -43.66713074 107.83347384 -43.671875 114.50390625 C-43.68412109 115.39464844 -43.69636719 116.28539063 -43.70898438 117.203125 C-43.72485063 124.49102415 -42.79336133 131.32694725 -40.484375 138.25390625 C-37.4327885 138.54732803 -34.52652753 138.68849947 -31.484375 138.25390625 C-29.28933012 135.96853698 -29.28933012 135.96853698 -27.484375 133.25390625 C-21.47983482 129.62616323 -15.38116259 129.42153533 -8.484375 130.25390625 C-4.45795961 131.50814108 -1.35013807 132.89879884 0.953125 136.50390625 C2.36985891 138.48099035 2.36985891 138.48099035 4.6875 138.50390625 C6.97697984 138.50390625 9.23307995 138.4261738 11.515625 138.25390625 C16.62616293 124.28510257 16.31494901 106.25560382 11.515625 92.25390625 C11.27585938 91.4959375 11.03609375 90.73796875 10.7890625 89.95703125 C9.74285636 86.7149419 8.609897 83.51110487 7.4375 80.3125 C4.04343358 70.76370046 3.97528864 64.05234648 6.515625 54.25390625 C5.07890932 53.60633 3.64122084 52.96091172 2.203125 52.31640625 C1.40261719 51.95675781 0.60210937 51.59710938 -0.22265625 51.2265625 C-2.57927108 50.17544584 -2.57927108 50.17544584 -5.484375 49.25390625 C-0.87583703 49.97399031 3.18799909 51.56686564 7.515625 53.25390625 C7.515625 52.59390625 7.515625 51.93390625 7.515625 51.25390625 C7.061875 50.80015625 6.608125 50.34640625 6.140625 49.87890625 C3.62962175 47.367903 2.5901849 45.23809687 2.3203125 41.67578125 C2.34351563 40.7940625 2.36671875 39.91234375 2.390625 39.00390625 C2.40867188 38.111875 2.42671875 37.21984375 2.4453125 36.30078125 C2.46851563 35.6253125 2.49171875 34.94984375 2.515625 34.25390625 C-4.10682729 32.4800351 -7.04267306 33.33571898 -11.98828125 38.13671875 Z M-35.484375 64.25390625 C-36.18388563 66.66766825 -36.86921419 69.08400859 -37.546875 71.50390625 C-37.74603516 72.18582031 -37.94519531 72.86773437 -38.15039062 73.5703125 C-39.51514187 78.43819236 -39.51514187 78.43819236 -38.484375 83.25390625 C-34.99223951 73.99257423 -34.99223951 73.99257423 -34.484375 64.25390625 C-34.814375 64.25390625 -35.144375 64.25390625 -35.484375 64.25390625 Z M5.515625 65.25390625 C5.63021193 66.69227376 5.75771616 68.12961591 5.890625 69.56640625 C5.96023437 70.36691406 6.02984375 71.16742188 6.1015625 71.9921875 C6.41126926 74.52615066 6.41126926 74.52615066 8.515625 77.25390625 C8.33 75.39765625 8.33 75.39765625 8.140625 73.50390625 C8.07101563 72.8078125 8.00140625 72.11171875 7.9296875 71.39453125 C7.48029535 69.07125865 6.65788262 67.31554195 5.515625 65.25390625 Z M8.515625 77.25390625 C9.515625 80.25390625 9.515625 80.25390625 9.515625 80.25390625 Z M9.515625 81.25390625 C10.515625 83.25390625 10.515625 83.25390625 10.515625 83.25390625 Z M-40.484375 83.25390625 C-39.484375 86.25390625 -39.484375 86.25390625 -39.484375 86.25390625 Z M-43.484375 92.25390625 C-42.484375 95.25390625 -42.484375 95.25390625 -42.484375 95.25390625 Z " fill="#747578" transform="translate(55.484375,2.74609375)"></path><path d="M0 0 C3.3817338 2.59640225 5.38096421 4.14885506 6.40625 8.4296875 C6.52742188 9.57179688 6.64859375 10.71390625 6.7734375 11.890625 C7.06862305 16.60720921 7.06862305 16.60720921 9.6484375 20.265625 C9.7109375 22.515625 9.7109375 22.515625 8.6484375 25.265625 C6.47284274 27.47765316 4.11676741 29.39020984 1.6484375 31.265625 C2.17953125 31.56855469 2.710625 31.87148438 3.2578125 32.18359375 C12.58412929 37.71471228 12.58412929 37.71471228 14.375 43.68969727 C16.28596968 51.46416765 17.88814628 59.26744011 19.3359375 67.140625 C19.67334961 68.91566406 19.67334961 68.91566406 20.01757812 70.7265625 C20.3356543 72.44359375 20.3356543 72.44359375 20.66015625 74.1953125 C20.85053467 75.21866699 21.04091309 76.24202148 21.23706055 77.29638672 C21.65670409 80.32529163 21.72041356 83.21190566 21.6484375 86.265625 C23.6284375 87.255625 23.6284375 87.255625 25.6484375 88.265625 C25.3184375 90.245625 24.9884375 92.225625 24.6484375 94.265625 C23.1634375 94.760625 23.1634375 94.760625 21.6484375 95.265625 C21.3184375 95.925625 20.9884375 96.585625 20.6484375 97.265625 C18.6684375 96.935625 16.6884375 96.605625 14.6484375 96.265625 C14.97223389 97.40620361 15.29603027 98.54678223 15.62963867 99.72192383 C16.73979814 104.18171822 16.95476627 108.3854389 16.94921875 112.96484375 C16.95350388 113.76291946 16.957789 114.56099518 16.96220398 115.383255 C16.96790633 117.05635637 16.96847806 118.72948251 16.96411133 120.40258789 C16.96093272 122.95696989 16.98452464 125.51021227 17.00976562 128.06445312 C17.01203726 129.69791522 17.01274275 131.3313804 17.01171875 132.96484375 C17.0209285 133.72327072 17.03013824 134.48169769 17.03962708 135.2631073 C17.00029096 139.77575748 16.43019453 142.6722726 13.6484375 146.265625 C11.88671875 147.375 11.88671875 147.375 9.9609375 148.015625 C9.33832031 148.23734375 8.71570313 148.4590625 8.07421875 148.6875 C-5.41115569 151.90140566 -24.04820274 152.53408268 -37.3515625 148.265625 C-40.31780231 146.40445492 -41.8087778 145.3511944 -43.3515625 142.265625 C-43.46298782 139.43055279 -43.51568667 136.62083548 -43.51953125 133.78515625 C-43.52285965 132.93894211 -43.52618805 132.09272797 -43.52961731 131.22087097 C-43.53468655 129.42614282 -43.53702564 127.63140522 -43.53686523 125.83666992 C-43.53903994 123.10644675 -43.55716278 120.37663538 -43.57617188 117.64648438 C-43.57910825 115.90104304 -43.58109141 114.1555998 -43.58203125 112.41015625 C-43.58921677 111.59948196 -43.59640228 110.78880768 -43.60380554 109.9535675 C-43.58416244 105.01298976 -42.92925998 100.95338354 -41.3515625 96.265625 C-44.8165625 96.760625 -44.8165625 96.760625 -48.3515625 97.265625 C-48.6815625 96.605625 -49.0115625 95.945625 -49.3515625 95.265625 C-50.3415625 94.935625 -51.3315625 94.605625 -52.3515625 94.265625 C-52.8465625 91.295625 -52.8465625 91.295625 -53.3515625 88.265625 C-52.72757568 87.94537354 -52.10358887 87.62512207 -51.46069336 87.29516602 C-48.35577602 84.30741537 -48.19842361 80.88638468 -47.60546875 76.79296875 C-47.39868752 75.53644249 -47.39868752 75.53644249 -47.18772888 74.25453186 C-46.74699784 71.57303779 -46.32801429 68.88887503 -45.9140625 66.203125 C-41.88382953 40.08142056 -41.88382953 40.08142056 -35.36547852 34.59350586 C-33.11920023 33.11241632 -30.87701195 32.17759286 -28.3515625 31.265625 C-28.84527344 30.89050781 -29.33898437 30.51539063 -29.84765625 30.12890625 C-35.11232558 25.92352652 -35.11232558 25.92352652 -36.3515625 22.515625 C-36.3515625 20.265625 -36.3515625 20.265625 -35.3515625 18.265625 C-34.6915625 18.265625 -34.0315625 18.265625 -33.3515625 18.265625 C-33.42117187 17.55277344 -33.49078125 16.83992188 -33.5625 16.10546875 C-33.84577487 11.09420145 -34.05539602 7.2943918 -30.7890625 3.265625 C-22.71563006 -4.50948199 -9.74086354 -5.55361451 0 0 Z M-24.4140625 50.140625 C-25.45691406 50.48867188 -26.49976563 50.83671875 -27.57421875 51.1953125 C-30.49953276 52.2065423 -30.49953276 52.2065423 -33.3515625 54.265625 C-33.19429687 55.131875 -33.03703125 55.998125 -32.875 56.890625 C-31.36371214 66.63504824 -32.3184774 74.27779773 -35.92260742 83.43432617 C-40.60461435 95.7128972 -42.02867899 107.39200021 -41.92797852 120.43334961 C-41.91385866 122.99003364 -41.94865192 125.54321805 -41.98632812 128.09960938 C-41.98727741 129.74218839 -41.98543076 131.38477196 -41.98046875 133.02734375 C-41.99372696 133.78254807 -42.00698517 134.53775238 -42.02064514 135.31584167 C-41.94995216 139.31364475 -41.50583513 141.07482034 -38.96069336 144.22265625 C-29.02219485 152.00457405 -7.86752657 149.01347907 4.1484375 147.578125 C9.20684951 146.90502985 11.44626358 145.24892132 14.6484375 141.265625 C15.12494714 138.33055254 15.30617373 135.99351648 15.2421875 133.0703125 C15.24222778 132.28222198 15.24226807 131.49413147 15.24230957 130.68215942 C15.23696058 129.01621522 15.219404 127.35027113 15.19042969 125.68457031 C15.14890772 123.16911147 15.14933862 120.65636586 15.15625 118.140625 C15.12428238 110.28692199 14.87726241 103.027658 12.38476562 95.49658203 C11.59566224 93.10572437 11.14035168 90.7329655 10.6484375 88.265625 C10.19330355 86.81429335 9.71116619 85.37116824 9.203125 83.9375 C8.93113281 83.13699219 8.65914062 82.33648437 8.37890625 81.51171875 C7.81255032 79.85920077 7.23456028 78.21062048 6.64453125 76.56640625 C4.69760597 70.74426128 4.50717753 66.2767565 5.6484375 60.265625 C5.926875 58.5021875 5.926875 58.5021875 6.2109375 56.703125 C6.3553125 55.89875 6.4996875 55.094375 6.6484375 54.265625 C2.01876198 51.64505395 -1.87957411 50.00964707 -7.14453125 49.1328125 C-8.12317139 48.9663623 -9.10181152 48.79991211 -10.11010742 48.62841797 C-10.8497876 48.50869629 -11.58946777 48.38897461 -12.3515625 48.265625 C-12.37472364 56.29760528 -12.39249686 64.32957162 -12.40337467 72.36157703 C-12.40859523 76.09107962 -12.4156779 79.82055938 -12.42700195 83.55004883 C-12.43786017 87.14860445 -12.44384558 90.7471381 -12.44643974 94.34570885 C-12.44828869 95.71923862 -12.45189916 97.09276718 -12.45729256 98.46628761 C-12.46454178 100.38872736 -12.46497089 102.31118917 -12.46508789 104.23364258 C-12.46841881 105.87578484 -12.46841881 105.87578484 -12.47181702 107.55110168 C-12.47144527 110.36253009 -12.47144527 110.36253009 -11.3515625 113.265625 C-12.6715625 113.265625 -13.9915625 113.265625 -15.3515625 113.265625 C-15.10708374 111.94679321 -15.10708374 111.94679321 -14.85766602 110.60131836 C-14.02518837 104.73139189 -14.22913661 98.80969096 -14.25390625 92.89453125 C-14.2553212 91.61706528 -14.25673615 90.3395993 -14.25819397 89.02342224 C-14.26282734 85.64837754 -14.27179227 82.27340203 -14.28289795 78.89837646 C-14.29317824 75.44592889 -14.29770569 71.99347413 -14.30273438 68.54101562 C-14.31373784 61.78253315 -14.33045683 55.02408307 -14.3515625 48.265625 C-18.29495956 48.265625 -20.72142332 48.88686647 -24.4140625 50.140625 Z M-33.3515625 65.265625 C-32.3515625 68.265625 -32.3515625 68.265625 -32.3515625 68.265625 Z M5.6484375 65.265625 C6.6484375 69.265625 6.6484375 69.265625 6.6484375 69.265625 Z M-34.3515625 69.265625 C-33.3515625 73.265625 -33.3515625 73.265625 -33.3515625 73.265625 Z M6.6484375 69.265625 C7.6484375 73.265625 7.6484375 73.265625 7.6484375 73.265625 Z M-35.3515625 73.265625 C-34.3515625 75.265625 -34.3515625 75.265625 -34.3515625 75.265625 Z M7.6484375 74.265625 C8.6484375 76.265625 8.6484375 76.265625 8.6484375 76.265625 Z M-41.3515625 92.265625 C-40.3515625 94.265625 -40.3515625 94.265625 -40.3515625 94.265625 Z " fill="#8A8B8D" transform="translate(149.3515625,2.734375)"></path><path d="M0 0 C3.37379019 2.59030337 5.36699491 4.1903019 6.4765625 8.4296875 C6.61578125 9.57179688 6.755 10.71390625 6.8984375 11.890625 C7.04796875 13.03789062 7.1975 14.18515625 7.3515625 15.3671875 C7.6484375 18.265625 7.6484375 18.265625 7.6484375 20.265625 C6.3284375 19.935625 5.0084375 19.605625 3.6484375 19.265625 C3.73544922 18.16154297 3.73544922 18.16154297 3.82421875 17.03515625 C4.20609838 10.75654903 4.20609838 10.75654903 1.5234375 5.265625 C-3.73957348 1.60439997 -7.93328013 -0.09254676 -14.3515625 -0.734375 C-13.39290741 1.59638429 -13.39290741 1.59638429 -10.3515625 3.265625 C-12.8265625 2.770625 -12.8265625 2.770625 -15.3515625 2.265625 C-14.39290741 4.59638429 -14.39290741 4.59638429 -11.3515625 6.265625 C-13.6615625 5.935625 -15.9715625 5.605625 -18.3515625 5.265625 C-18.8465625 2.790625 -18.8465625 2.790625 -19.3515625 0.265625 C-20.62835978 0.83578625 -21.89780538 1.42242347 -23.1640625 2.015625 C-23.87175781 2.34046875 -24.57945313 2.6653125 -25.30859375 3 C-27.76501026 4.52175707 -28.9189562 5.74982857 -30.3515625 8.265625 C-30.92593311 11.30446181 -30.92593311 11.30446181 -31.0390625 14.515625 C-31.10480469 15.59328125 -31.17054687 16.6709375 -31.23828125 17.78125 C-31.27566406 18.60109375 -31.31304687 19.4209375 -31.3515625 20.265625 C-32.0115625 20.265625 -32.6715625 20.265625 -33.3515625 20.265625 C-33.08480046 22.25054142 -33.08480046 22.25054142 -32.3515625 24.265625 C-31.3615625 24.595625 -30.3715625 24.925625 -29.3515625 25.265625 C-27.68489583 26.93229167 -26.01822917 28.59895833 -24.3515625 30.265625 C-22.18535706 31.56082495 -22.18535706 31.56082495 -20.3515625 32.265625 C-20.3515625 32.925625 -20.3515625 33.585625 -20.3515625 34.265625 C-24.8065625 34.760625 -24.8065625 34.760625 -29.3515625 35.265625 C-29.44244141 36.62107422 -29.44244141 36.62107422 -29.53515625 38.00390625 C-29.61894531 39.18339844 -29.70273438 40.36289062 -29.7890625 41.578125 C-29.87027344 42.74988281 -29.95148438 43.92164063 -30.03515625 45.12890625 C-30.3515625 48.265625 -30.3515625 48.265625 -31.3515625 51.265625 C-30.71089844 50.976875 -30.07023437 50.688125 -29.41015625 50.390625 C-24.11241818 48.11678213 -20.11783641 46.76420988 -14.3515625 47.265625 C-15.0115625 44.295625 -15.6715625 41.325625 -16.3515625 38.265625 C-15.2378125 37.95625 -14.1240625 37.646875 -12.9765625 37.328125 C-9.557047 36.44236017 -9.557047 36.44236017 -7.3515625 35.265625 C-9.1015625 39.140625 -9.1015625 39.140625 -11.3515625 40.265625 C-11.75885478 42.58719097 -12.09594927 44.9225037 -12.3515625 47.265625 C-11.4234375 47.183125 -10.4953125 47.100625 -9.5390625 47.015625 C-4.13036518 46.97110897 0.71084451 49.26558733 5.6484375 51.265625 C4.9884375 50.275625 4.3284375 49.285625 3.6484375 48.265625 C3.453125 45.34765625 3.453125 45.34765625 3.5234375 42.078125 C3.54148438 40.99144531 3.55953125 39.90476563 3.578125 38.78515625 C3.60132813 37.95371094 3.62453125 37.12226562 3.6484375 36.265625 C3.9784375 36.265625 4.3084375 36.265625 4.6484375 36.265625 C4.67421875 37.00167969 4.7 37.73773438 4.7265625 38.49609375 C5.0832649 44.63299632 5.67959836 47.47564672 9.6484375 52.265625 C8.8359375 55.140625 8.8359375 55.140625 7.6484375 58.265625 C7.94889066 62.24662935 8.81680741 66.0117729 9.7109375 69.890625 C11.11969487 76.15532634 11.11969487 76.15532634 10.6484375 79.265625 C9.6584375 79.925625 8.6684375 80.585625 7.6484375 81.265625 C4.72406394 73.84800795 2.94196493 68.13091223 4.6484375 60.265625 C4.8340625 59.09 5.0196875 57.914375 5.2109375 56.703125 C5.3553125 55.89875 5.4996875 55.094375 5.6484375 54.265625 C3.96211758 53.63744796 2.27431299 53.01325607 0.5859375 52.390625 C-0.82365234 51.86855469 -0.82365234 51.86855469 -2.26171875 51.3359375 C-5.58361391 50.18524309 -8.9712779 49.2314206 -12.3515625 48.265625 C-12.0215625 69.715625 -11.6915625 91.165625 -11.3515625 113.265625 C-12.6715625 113.265625 -13.9915625 113.265625 -15.3515625 113.265625 C-15.37472364 105.23364472 -15.39249686 97.20167838 -15.40337467 89.16967297 C-15.40859523 85.44017038 -15.4156779 81.71069062 -15.42700195 77.98120117 C-15.43786017 74.38264555 -15.44384558 70.7841119 -15.44643974 67.18554115 C-15.44828869 65.81201138 -15.45189916 64.43848282 -15.45729256 63.06496239 C-15.46454178 61.14252264 -15.46497089 59.22006083 -15.46508789 57.29760742 C-15.4673085 56.20284592 -15.46952911 55.10808441 -15.47181702 53.98014832 C-15.3515625 51.265625 -15.3515625 51.265625 -14.3515625 48.265625 C-16.97721969 49.07604994 -19.60209416 49.88886687 -22.2265625 50.703125 C-22.97292969 50.93322266 -23.71929687 51.16332031 -24.48828125 51.40039062 C-28.50247851 52.61942147 -28.50247851 52.61942147 -32.3515625 54.265625 C-32.19429687 55.131875 -32.03703125 55.998125 -31.875 56.890625 C-30.36367702 66.63527469 -31.31900477 74.27764373 -34.92236328 83.43457031 C-39.61981795 95.75436761 -41.00570195 107.40645038 -40.87304688 120.48828125 C-40.85122261 123.05560881 -40.87317308 125.62024649 -40.8984375 128.1875 C-40.8958 129.83333946 -40.89068705 131.47917726 -40.8828125 133.125 C-40.89495789 134.2655484 -40.89495789 134.2655484 -40.90734863 135.42913818 C-40.84477401 138.9470114 -40.63555287 140.89660252 -38.46069336 143.72265625 C-27.91804393 151.43530174 -5.18103032 147.86268015 7.15234375 146.09375 C10.38130058 145.0224842 11.57977199 143.98469709 13.6484375 141.265625 C14.01065796 138.40794081 14.13982881 135.94738208 14.07421875 133.09765625 C14.07093063 132.30340744 14.06764252 131.50915863 14.06425476 130.69084167 C14.04852787 128.15271414 14.00453874 125.61591002 13.9609375 123.078125 C13.94944033 121.38998486 13.93965689 119.70183213 13.93164062 118.01367188 C13.91819982 116.37498671 13.9032723 114.73631293 13.88671875 113.09765625 C13.87933182 112.3473262 13.87194489 111.59699615 13.86433411 110.82392883 C13.78352041 106.2454479 13.38983293 101.83847419 12.66349792 97.3144989 C12.64514861 94.81819298 13.39627398 93.39352378 14.6484375 91.265625 C14.9784375 92.255625 15.3084375 93.245625 15.6484375 94.265625 C16.3084375 93.605625 16.9684375 92.945625 17.6484375 92.265625 C17.9784375 92.925625 18.3084375 93.585625 18.6484375 94.265625 C20.68312683 92.34420695 20.68312683 92.34420695 22.1484375 90.140625 C22.8909375 89.2125 22.8909375 89.2125 23.6484375 88.265625 C24.3084375 88.265625 24.9684375 88.265625 25.6484375 88.265625 C25.3184375 90.245625 24.9884375 92.225625 24.6484375 94.265625 C23.1634375 94.760625 23.1634375 94.760625 21.6484375 95.265625 C21.3184375 95.925625 20.9884375 96.585625 20.6484375 97.265625 C18.6684375 96.935625 16.6884375 96.605625 14.6484375 96.265625 C14.97223389 97.40620361 15.29603027 98.54678223 15.62963867 99.72192383 C16.73979814 104.18171822 16.95476627 108.3854389 16.94921875 112.96484375 C16.95350388 113.76291946 16.957789 114.56099518 16.96220398 115.383255 C16.96790633 117.05635637 16.96847806 118.72948251 16.96411133 120.40258789 C16.96093272 122.95696989 16.98452464 125.51021227 17.00976562 128.06445312 C17.01203726 129.69791522 17.01274275 131.3313804 17.01171875 132.96484375 C17.0209285 133.72327072 17.03013824 134.48169769 17.03962708 135.2631073 C17.00029096 139.77575748 16.43019453 142.6722726 13.6484375 146.265625 C11.88671875 147.375 11.88671875 147.375 9.9609375 148.015625 C9.33832031 148.23734375 8.71570313 148.4590625 8.07421875 148.6875 C-5.41115569 151.90140566 -24.04820274 152.53408268 -37.3515625 148.265625 C-40.31780231 146.40445492 -41.8087778 145.3511944 -43.3515625 142.265625 C-43.46298782 139.43055279 -43.51568667 136.62083548 -43.51953125 133.78515625 C-43.52285965 132.93894211 -43.52618805 132.09272797 -43.52961731 131.22087097 C-43.53468655 129.42614282 -43.53702564 127.63140522 -43.53686523 125.83666992 C-43.53903994 123.10644675 -43.55716278 120.37663538 -43.57617188 117.64648438 C-43.57910825 115.90104304 -43.58109141 114.1555998 -43.58203125 112.41015625 C-43.58921677 111.59948196 -43.59640228 110.78880768 -43.60380554 109.9535675 C-43.58416244 105.01298976 -42.92925998 100.95338354 -41.3515625 96.265625 C-44.8165625 96.760625 -44.8165625 96.760625 -48.3515625 97.265625 C-48.6815625 96.605625 -49.0115625 95.945625 -49.3515625 95.265625 C-50.3415625 94.935625 -51.3315625 94.605625 -52.3515625 94.265625 C-52.8465625 91.295625 -52.8465625 91.295625 -53.3515625 88.265625 C-52.72757568 87.94537354 -52.10358887 87.62512207 -51.46069336 87.29516602 C-48.35577602 84.30741537 -48.19842361 80.88638468 -47.60546875 76.79296875 C-47.39868752 75.53644249 -47.39868752 75.53644249 -47.18772888 74.25453186 C-46.74699784 71.57303779 -46.32801429 68.88887503 -45.9140625 66.203125 C-41.88382953 40.08142056 -41.88382953 40.08142056 -35.36547852 34.59350586 C-33.11920023 33.11241632 -30.87701195 32.17759286 -28.3515625 31.265625 C-28.84527344 30.89050781 -29.33898437 30.51539063 -29.84765625 30.12890625 C-35.11232558 25.92352652 -35.11232558 25.92352652 -36.3515625 22.515625 C-36.3515625 20.265625 -36.3515625 20.265625 -35.3515625 18.265625 C-34.6915625 18.265625 -34.0315625 18.265625 -33.3515625 18.265625 C-33.42117187 17.55277344 -33.49078125 16.83992188 -33.5625 16.10546875 C-33.84577487 11.09420145 -34.05539602 7.2943918 -30.7890625 3.265625 C-22.71563006 -4.50948199 -9.74086354 -5.55361451 0 0 Z M-33.3515625 65.265625 C-32.3515625 68.265625 -32.3515625 68.265625 -32.3515625 68.265625 Z M5.6484375 65.265625 C6.6484375 69.265625 6.6484375 69.265625 6.6484375 69.265625 Z M-34.3515625 69.265625 C-33.3515625 73.265625 -33.3515625 73.265625 -33.3515625 73.265625 Z M6.6484375 69.265625 C7.6484375 73.265625 7.6484375 73.265625 7.6484375 73.265625 Z M-35.3515625 73.265625 C-34.3515625 75.265625 -34.3515625 75.265625 -34.3515625 75.265625 Z M7.6484375 74.265625 C8.6484375 76.265625 8.6484375 76.265625 8.6484375 76.265625 Z M-41.3515625 92.265625 C-40.3515625 94.265625 -40.3515625 94.265625 -40.3515625 94.265625 Z " fill="#8B8C8E" transform="translate(149.3515625,2.734375)"></path><path d="M0 0 C0.66 1.98 1.32 3.96 2 6 C3.98 6 5.96 6 8 6 C6.02 5.34 4.04 4.68 2 4 C2.33 3.01 2.66 2.02 3 1 C3.33 1.99 3.66 2.98 4 4 C5.65 4 7.3 4 9 4 C7.68 3.67 6.36 3.34 5 3 C5 2.01 5 1.02 5 0 C11.70902028 -0.09623595 16.62351348 0.87508219 21.5703125 5.61328125 C24.39690594 10.33199325 23.5728185 15.70938468 23 21 C23.99 21 24.98 21 26 21 C25.67 22.32 25.34 23.64 25 25 C24.38125 25.061875 23.7625 25.12375 23.125 25.1875 C22.42375 25.455625 21.7225 25.72375 21 26 C20.72285156 26.7940625 20.44570313 27.588125 20.16015625 28.40625 C19 31 19 31 16.86328125 32.36328125 C8.18053648 35.59437923 2.71937802 35.61903838 -5.86328125 32.0703125 C-8 31 -8 31 -10 29 C-10 28.01 -10 27.02 -10 26 C-11.32 26 -12.64 26 -14 26 C-14.33 24.35 -14.66 22.7 -15 21 C-14.01 21 -13.02 21 -12 21 C-12.33 20.34 -12.66 19.68 -13 19 C-13.55973414 14.41201528 -13.42464043 10.90023771 -11.4375 6.6875 C-8.45763556 3.40200844 -4.69226724 0 0 0 Z " fill="#F5F6F6" transform="translate(36,2)"></path><path d="M0 0 C7.18642624 -0.59886885 11.96783917 1.49846731 17.5 6.0625 C19.80668662 10.5797613 19.31370185 15.0243401 19 20 C19.66 20.33 20.32 20.66 21 21 C20.505 23.475 20.505 23.475 20 26 C19.01 26.33 18.02 26.66 17 27 C16.278125 27.78375 15.55625 28.5675 14.8125 29.375 C10.53588598 33.36650642 6.34641811 34.6523825 0.625 35.5 C-4.43337579 34.80229299 -8.80138881 32.91676828 -13 30 C-14.16015625 27.875 -14.16015625 27.875 -15 26 C-17.05000871 25.19471111 -17.05000871 25.19471111 -19 25 C-19 23.68 -19 22.36 -19 21 C-18.34 21 -17.68 21 -17 21 C-17.05800781 20.20335938 -17.11601563 19.40671875 -17.17578125 18.5859375 C-17.59035243 8.84943722 -17.59035243 8.84943722 -14.75 5.375 C-11.3087007 2.40296879 -9.55977063 1 -5 1 C-4.67 2.32 -4.34 3.64 -4 5 C-3.01 5 -2.02 5 -1 5 C-1.33 3.68 -1.66 2.36 -2 1 C-1.34 1.33 -0.68 1.66 0 2 C0 1.34 0 0.68 0 0 Z " fill="#F7F7F7" transform="translate(135,2)"></path><path d="M0 0 C2.3125 1.5 2.3125 1.5 4 3 C4.66 2.67 5.32 2.34 6 2 C8.00800456 2.28112064 10.01014051 2.61067967 12 3 C11.67 3.66 11.34 4.32 11 5 C9.68 5 8.36 5 7 5 C7.495 7.475 7.495 7.475 8 10 C8.66 9.34 9.32 8.68 10 8 C10 9.98 10 11.96 10 14 C11.65 14 13.3 14 15 14 C15 14.33 15 14.66 15 15 C13.35 15.33 11.7 15.66 10 16 C9.83539302 37.68760286 10.30051396 59.32523432 11 81 C9.68 81 8.36 81 7 81 C7 59.55 7 38.1 7 16 C1.9163308 16.63545865 -2.21551736 17.18696124 -7 18.5625 C-7.94875 18.83191406 -8.8975 19.10132812 -9.875 19.37890625 C-10.57625 19.58386719 -11.2775 19.78882812 -12 20 C-11.7834375 20.6290625 -11.566875 21.258125 -11.34375 21.90625 C-11.0653125 22.7621875 -10.786875 23.618125 -10.5 24.5 C-10.2215625 25.3353125 -9.943125 26.170625 -9.65625 27.03125 C-7.87787124 35.07629676 -9.66742113 40.97562061 -12.5 48.5 C-12.83386719 49.4178125 -13.16773437 50.335625 -13.51171875 51.28125 C-14.32985136 53.52527086 -15.15938628 55.7643252 -16 58 C-17.98 57.67 -19.96 57.34 -22 57 C-22.33 57.99 -22.66 58.98 -23 60 C-23 59.34 -23 58.68 -23 58 C-23.66 58 -24.32 58 -25 58 C-25.33 59.32 -25.66 60.64 -26 62 C-26.495 60.515 -26.495 60.515 -27 59 C-27.99 59 -28.98 59 -30 59 C-29.34 58.01 -28.68 57.02 -28 56 C-28.66 55.67 -29.32 55.34 -30 55 C-28.515 54.505 -28.515 54.505 -27 54 C-25.82607414 51.03705689 -25.82607414 51.03705689 -26.0625 47.90234375 C-25.98781096 43.23894678 -25.07773891 39.0809932 -24 34.5625 C-23.80921875 33.73556641 -23.6184375 32.90863281 -23.421875 32.05664062 C-22.95471563 30.03617634 -22.47830626 28.01785453 -22 26 C-22.66 25.67 -23.32 25.34 -24 25 C-23.34 24.67 -22.68 24.34 -22 24 C-21.46763257 21.95535807 -21.0235643 19.88737884 -20.625 17.8125 C-19.48956524 12.57688415 -18.43783176 9.08242521 -15 5 C-14.566875 4.4225 -14.13375 3.845 -13.6875 3.25 C-9.87697177 0.4273865 -4.66345193 -0.63019621 0 0 Z M-12 31 C-12.69951063 33.413762 -13.38483919 35.83010234 -14.0625 38.25 C-14.26166016 38.93191406 -14.46082031 39.61382812 -14.66601562 40.31640625 C-16.03076687 45.18428611 -16.03076687 45.18428611 -15 50 C-11.50786451 40.73866798 -11.50786451 40.73866798 -11 31 C-11.33 31 -11.66 31 -12 31 Z M-17 50 C-16 53 -16 53 -16 53 Z " fill="#808183" transform="translate(32,36)"></path><path d="M0 0 C0.66 0 1.32 0 2 0 C0.94650498 8.40554534 -0.16911123 16.72204547 -2 25 C-1.01 25.33 -0.02 25.66 1 26 C0.01 26 -0.98 26 -2 26 C-2.66 27.98 -3.32 29.96 -4 32 C-1.06072154 32.1097561 -1.06072154 32.1097561 1.5 31.4375 C4 31 4 31 7 32 C6.855625 32.69480469 6.71125 33.38960937 6.5625 34.10546875 C3.86645084 48.87757142 3.94329982 64.2896304 7 79 C10.0728686 78.92777446 13.0069614 78.72479506 16 78 C18.17477572 75.65653729 18.17477572 75.65653729 20 73 C26.00454018 69.37225698 32.10321241 69.16762908 39 70 C42.99170999 71.24342404 46.10930959 72.64460155 48.4375 76.1875 C50.4700691 78.54528016 51.55548802 78.34604553 54.59765625 78.61328125 C55.41886963 78.68973877 56.24008301 78.76619629 57.08618164 78.8449707 C57.7177417 78.89613037 58.34930176 78.94729004 59 79 C59.08040527 78.37432129 59.16081055 77.74864258 59.24365234 77.10400391 C59.61200718 74.27644704 59.9933349 71.45078965 60.375 68.625 C60.50132813 67.64015625 60.62765625 66.6553125 60.7578125 65.640625 C60.88671875 64.69960937 61.015625 63.75859375 61.1484375 62.7890625 C61.26364746 61.91975098 61.37885742 61.05043945 61.49755859 60.15478516 C62 58 62 58 64 56 C64.202016 61.17385423 64.1040487 66.04069929 63.0625 71.125 C61.59641465 78.35144908 61.35035177 85.65183255 61 93 C56.71 93 52.42 93 48 93 C47.98582031 91.96359375 47.97164062 90.9271875 47.95703125 89.859375 C47.91011907 88.48953943 47.86187173 87.11974913 47.8125 85.75 C47.80669922 85.06808594 47.80089844 84.38617188 47.79492188 83.68359375 C47.63297022 79.97670033 47.28579389 78.30083567 44.69921875 75.578125 C39.3922944 72.47537907 34.04081704 72.46180125 28 73 C24.43343707 74.00411461 21.65229891 75.34770109 19 78 C18.69400937 80.56916657 18.48912913 83.04758384 18.375 85.625 C18.33632813 86.33140625 18.29765625 87.0378125 18.2578125 87.765625 C18.16352276 89.50998524 18.08067109 91.25495691 18 93 C16.02090602 93.02686553 14.04171029 93.04633375 12.0625 93.0625 C10.96035156 93.07410156 9.85820312 93.08570313 8.72265625 93.09765625 C6 93 6 93 5 92 C4.76033873 88.8387537 4.60645541 85.68497108 4.48242188 82.51757812 C4.28815159 78.62117595 3.82611137 74.97513342 2.9765625 71.1640625 C1.81492461 65.68279794 1.73925991 60.39802037 1.8125 54.8125 C1.81314453 53.86697266 1.81378906 52.92144531 1.81445312 51.94726562 C1.84633242 46.86428969 2.1338987 42.00952993 3 37 C0.69 37 -1.62 37 -4 37 C-4 36.34 -4 35.68 -4 35 C-4.99 35 -5.98 35 -7 35 C-7.33 32.69 -7.66 30.38 -8 28 C-7.35160156 27.76667969 -6.70320312 27.53335938 -6.03515625 27.29296875 C-3.79458517 26.19972544 -3.79458517 26.19972544 -3.49609375 23.92578125 C-3.47675781 23.06339844 -3.45742187 22.20101562 -3.4375 21.3125 C-3.17344407 16.34824853 -2.44916009 11.66650629 -1.4375 6.8125 C-1.29820068 6.14065674 -1.15890137 5.46881348 -1.01538086 4.77661133 C-0.681614 3.18341708 -0.34150733 1.59155301 0 0 Z M4 33 C5 36 5 36 5 36 Z " fill="#838486" transform="translate(8,62)"></path><path d="M0 0 C0.05429959 1.74965358 0.09292823 3.49979787 0.125 5.25 C0.14820312 6.22453125 0.17140625 7.1990625 0.1953125 8.203125 C-0.00137219 11.0196498 -0.55431084 12.60949036 -2 15 C-2.99 15 -3.98 15 -5 15 C-4.46375 16.11375 -3.9275 17.2275 -3.375 18.375 C-1.40918414 23.75759103 -2.46473808 27.61287557 -4 33 C-4.18691406 33.6899707 -4.37382812 34.37994141 -4.56640625 35.09082031 C-5.19724213 37.4187634 -5.84474371 39.74131742 -6.5 42.0625 C-6.71333984 42.82554443 -6.92667969 43.58858887 -7.14648438 44.37475586 C-7.70302911 46.26893447 -8.34490787 48.13760666 -9 50 C-9.99 50.495 -9.99 50.495 -11 51 C-11 51.66 -11 52.32 -11 53 C-9.515 52.505 -9.515 52.505 -8 52 C-7.67 53.32 -7.34 54.64 -7 56 C-8.65 55.67 -10.3 55.34 -12 55 C-12.33 55.99 -12.66 56.98 -13 58 C-13 57.34 -13 56.68 -13 56 C-13.66 56 -14.32 56 -15 56 C-15.33 57.32 -15.66 58.64 -16 60 C-16.495 58.515 -16.495 58.515 -17 57 C-17.99 57 -18.98 57 -20 57 C-19.34 56.01 -18.68 55.02 -18 54 C-18.66 53.67 -19.32 53.34 -20 53 C-18.515 52.505 -18.515 52.505 -17 52 C-15.82607414 49.03705689 -15.82607414 49.03705689 -16.0625 45.90234375 C-15.98781096 41.23894678 -15.07773891 37.0809932 -14 32.5625 C-13.80921875 31.73556641 -13.6184375 30.90863281 -13.421875 30.05664062 C-12.95471563 28.03617634 -12.47830626 26.01785453 -12 24 C-12.66 23.67 -13.32 23.34 -14 23 C-13.34 22.67 -12.68 22.34 -12 22 C-11.46763257 19.95535807 -11.0235643 17.88737884 -10.625 15.8125 C-9.49068297 10.58203812 -6.89590654 0 0 0 Z " fill="#F5F5F5" transform="translate(22,38)"></path><path d="M0 0 C3.83763041 1.50764052 5.73835143 3.57925654 8 7 C8.82920467 9.50488912 9.46599174 11.81115178 10 14.375 C10.15879639 15.09381348 10.31759277 15.81262695 10.48120117 16.55322266 C11.89604036 23.13274378 13.11913762 29.75225459 14.3125 36.375 C14.49619141 37.37966309 14.67988281 38.38432617 14.86914062 39.41943359 C15.03220703 40.36125488 15.19527344 41.30307617 15.36328125 42.2734375 C15.51063721 43.11310059 15.65799316 43.95276367 15.80981445 44.81787109 C16 47 16 47 15 50 C15.96457834 51.35917857 16.96854629 52.69084721 18 54 C18.6875 56.25 18.6875 56.25 19 58 C17.515 57.505 17.515 57.505 16 57 C15.34 57.99 14.68 58.98 14 60 C14 58.68 14 57.36 14 56 C13.34 56 12.68 56 12 56 C12 56.99 12 57.98 12 59 C11.34 59 10.68 59 10 59 C9.505 57.515 9.505 57.515 9 56 C8.34 56 7.68 56 7 56 C7 54 7 54 8.5 52.375 C8.995 51.92125 9.49 51.4675 10 51 C9.34 50.67 8.68 50.34 8 50 C7.0047781 47.12290397 6.15102838 44.31233796 5.375 41.375 C5.14699707 40.52284912 4.91899414 39.67069824 4.68408203 38.79272461 C2.98996084 32.00166811 2.64069618 26.00525455 3.1171875 19.00390625 C2.97999002 15.48707749 2.07754421 14.70775042 0 12 C-0.29296875 8.984375 -0.29296875 8.984375 -0.1875 5.75 C-0.14689453 4.13351563 -0.14689453 4.13351563 -0.10546875 2.484375 C-0.07066406 1.66453125 -0.03585938 0.8446875 0 0 Z " fill="#F4F4F4" transform="translate(60,38)"></path><path d="M0 0 C0.66 0 1.32 0 2 0 C2.02703381 1.93742341 2.04641125 3.87495479 2.0625 5.8125 C2.07410156 6.89144531 2.08570312 7.97039063 2.09765625 9.08203125 C2 12 2 12 1 15 C-1.0625 15.6875 -1.0625 15.6875 -3 16 C-2.46375 17.11375 -1.9275 18.2275 -1.375 19.375 C0.59687879 24.74860333 -0.56766843 28.60648352 -2 34 C-2.53523281 36.25319957 -3.05630746 38.50947176 -3.57788086 40.76586914 C-4.36989132 44.18095037 -5.18515351 47.59030253 -6 51 C-6.99 51 -7.98 51 -9 51 C-7.68 52.65 -6.36 54.3 -5 56 C-6.32 56 -7.64 56 -9 56 C-9.33 56.99 -9.66 57.98 -10 59 C-10.66 58.67 -11.32 58.34 -12 58 C-12.66 58.66 -13.32 59.32 -14 60 C-14.495 58.515 -14.495 58.515 -15 57 C-15.99 57.495 -15.99 57.495 -17 58 C-17.33 56.68 -17.66 55.36 -18 54 C-17.37367676 53.83064941 -16.74735352 53.66129883 -16.10205078 53.48681641 C-13.6360895 52.07178724 -13.6360895 52.07178724 -13.02685547 48.59521484 C-12.78885662 47.13662882 -12.57025552 45.67479542 -12.3671875 44.2109375 C-12.24441437 43.43368317 -12.12164124 42.65642883 -11.99514771 41.85562134 C-11.60488091 39.36434499 -11.23915601 36.87021427 -10.875 34.375 C-10.49883871 31.90218616 -10.11761559 29.43022777 -9.73342896 26.95864868 C-9.49612387 25.42125739 -9.26423078 23.88301703 -9.03878784 22.34384155 C-7.75666946 13.79714949 -6.36846016 6.36846016 0 0 Z " fill="#E4E5E6" transform="translate(116,38)"></path><path d="M0 0 C1.54964792 0.29400435 3.08987565 0.63772877 4.625 1 C5.48351563 1.185625 6.34203125 1.37125 7.2265625 1.5625 C12.18429244 4.13214031 15.05964253 8.31854398 16.89453125 13.55078125 C17.60084576 16.35574289 18.16904626 19.15443369 18.6875 22 C18.98648193 23.50989502 18.98648193 23.50989502 19.29150391 25.05029297 C19.69000333 27.07699327 20.07949774 29.10548728 20.45947266 31.13574219 C20.94812902 33.72513533 21.47064436 36.30396045 22.01171875 38.8828125 C24.32311017 50.19692882 24.32311017 50.19692882 23 55 C24.65 55.99 26.3 56.98 28 58 C25.68975682 63.59322034 25.68975682 63.59322034 22.5625 65.4375 C19.90977395 66.01980572 18.51904593 65.93297997 16 65 C16.33 65.9075 16.66 66.815 17 67.75 C18.50973521 73.00172176 18.55839471 78.58849832 18 84 C17.01 84.99 17.01 84.99 16 86 C15.83564453 84.06447266 15.83564453 84.06447266 15.66796875 82.08984375 C15.50841916 80.37233937 15.34822888 78.65489442 15.1875 76.9375 C15.11724609 76.08994141 15.04699219 75.24238281 14.97460938 74.36914062 C14.45345286 68.96995915 13.33418614 64.8895057 11 60 C10.51809726 58.10451591 10.03875165 56.20796664 9.60546875 54.30078125 C8.85994711 51.46779903 7.86345305 48.75726378 6.875 46 C4.07995008 37.68785528 4.89331154 31.42675385 7 23 C2.71 21.35 -1.58 19.7 -6 18 C-6 17.67 -6 17.34 -6 17 C-0.72250715 17.53851968 3.25645564 18.77343836 8 21 C7.67 20.67 7.34 20.34 7 20 C5 17 5 17 5 14 C4.34 13.67 3.68 13.34 3 13 C3.33 9.7 3.66 6.4 4 3 C2.68 3 1.36 3 0 3 C0 2.01 0 1.02 0 0 Z M6 4 C5.91866209 5.91595968 5.86065633 7.83291932 5.8125 9.75 C5.77769531 10.81734375 5.74289063 11.8846875 5.70703125 12.984375 C5.73283983 16.01345779 5.73283983 16.01345779 7.51953125 17.98046875 C9.65972108 20.89993614 9.1177965 22.99495793 8.875 26.5625 C8.71842685 33.21033498 9.65798631 38.95773717 11.375 45.375 C11.59655762 46.21361572 11.81811523 47.05223145 12.04638672 47.91625977 C12.62433435 49.96625404 13.30372004 51.98711793 14 54 C14.66 54.33 15.32 54.66 16 55 C15.505 55.45375 15.01 55.9075 14.5 56.375 C12.77390663 57.87635519 12.77390663 57.87635519 13 60 C13.66 60 14.32 60 15 60 C15.33 60.99 15.66 61.98 16 63 C16.66 63 17.32 63 18 63 C18 62.01 18 61.02 18 60 C18.66 60 19.32 60 20 60 C20.33 61.32 20.66 62.64 21 64 C21.33 63.01 21.66 62.02 22 61 C22.99 61 23.98 61 25 61 C24.43628586 57.73045798 23.50037734 56.17424117 21 54 C21.33 53.01 21.66 52.02 22 51 C21.83553364 48.7485158 21.83553364 48.7485158 21.36328125 46.2734375 C21.20037598 45.33177734 21.0374707 44.39011719 20.86962891 43.41992188 C20.68577637 42.41509766 20.50192383 41.41027344 20.3125 40.375 C20.12606934 39.34697266 19.93963867 38.31894531 19.74755859 37.25976562 C19.17782248 34.17061514 18.59126756 31.08509375 18 28 C17.83838379 27.13149414 17.67676758 26.26298828 17.51025391 25.36816406 C15.35097733 13.38855293 15.35097733 13.38855293 8 4 C7.34 4 6.68 4 6 4 Z M7 34 C7.11458693 35.43836751 7.24209116 36.87570966 7.375 38.3125 C7.44460937 39.11300781 7.51421875 39.91351563 7.5859375 40.73828125 C7.89564426 43.27224441 7.89564426 43.27224441 10 46 C9.814375 44.14375 9.814375 44.14375 9.625 42.25 C9.55539063 41.55390625 9.48578125 40.8578125 9.4140625 40.140625 C8.96467035 37.8173524 8.14225762 36.0616357 7 34 Z M10 46 C11 49 11 49 11 49 Z M11 50 C12 52 12 52 12 52 Z " fill="#818283" transform="translate(54,34)"></path><path d="M0 0 C0 0.99 0 1.98 0 3 C-0.99 3.66 -1.98 4.32 -3 5 C-3.73606499 8.56769552 -3.73606499 8.56769552 -4 12 C-2.6078125 11.87625 -2.6078125 11.87625 -1.1875 11.75 C4.22119732 11.70548397 9.06240701 13.99996233 14 16 C13.34 15.01 12.68 14.02 12 13 C11.8046875 10.08203125 11.8046875 10.08203125 11.875 6.8125 C11.89304688 5.72582031 11.91109375 4.63914062 11.9296875 3.51953125 C11.95289063 2.68808594 11.97609375 1.85664062 12 1 C12.33 1 12.66 1 13 1 C13.02578125 1.73605469 13.0515625 2.47210938 13.078125 3.23046875 C13.4348274 9.36737132 14.03116086 12.21002172 18 17 C17.1875 19.875 17.1875 19.875 16 23 C16.30045316 26.98100435 17.16836991 30.7461479 18.0625 34.625 C19.47125737 40.88970134 19.47125737 40.88970134 19 44 C18.01 44.66 17.02 45.32 16 46 C13.07562644 38.58238295 11.29352743 32.86528723 13 25 C13.2784375 23.2365625 13.2784375 23.2365625 13.5625 21.4375 C13.706875 20.633125 13.85125 19.82875 14 19 C12.31368008 18.37182296 10.62587549 17.74763107 8.9375 17.125 C7.99777344 16.77695312 7.05804688 16.42890625 6.08984375 16.0703125 C2.76794859 14.91961809 -0.6197154 13.9657956 -4 13 C-3.67 34.45 -3.34 55.9 -3 78 C-4.32 78 -5.64 78 -7 78 C-7.02316114 69.96801972 -7.04093436 61.93605338 -7.05181217 53.90404797 C-7.05703273 50.17454538 -7.0641154 46.44506562 -7.07543945 42.71557617 C-7.08629767 39.11702055 -7.09228308 35.5184869 -7.09487724 31.91991615 C-7.09672619 30.54638638 -7.10033666 29.17285782 -7.10573006 27.79933739 C-7.11297928 25.87689764 -7.11340839 23.95443583 -7.11352539 22.03198242 C-7.115746 20.93722092 -7.11796661 19.84245941 -7.12025452 18.71452332 C-7 16 -7 16 -6 13 C-8.62565719 13.81042494 -11.25053166 14.62324187 -13.875 15.4375 C-14.62136719 15.66759766 -15.36773437 15.89769531 -16.13671875 16.13476562 C-20.15091601 17.35379647 -20.15091601 17.35379647 -24 19 C-23.835 19.763125 -23.67 20.52625 -23.5 21.3125 C-22.83437851 26.22145849 -22.92079922 31.05435114 -23 36 C-23.33 36 -23.66 36 -24 36 C-24.144375 35.2575 -24.28875 34.515 -24.4375 33.75 C-24.74995739 32.22243054 -25.07835363 30.69703263 -25.46875 29.1875 C-26.1075467 26.55716064 -26.58669463 23.91451007 -27.0625 21.25 C-27.23910156 20.26515625 -27.41570312 19.2803125 -27.59765625 18.265625 C-27.73042969 17.51796875 -27.86320312 16.7703125 -28 16 C-25.50935112 15.31292445 -23.62113708 15 -21 15 C-19.73540774 14.53814892 -18.48589747 14.03390771 -17.25 13.5 C-13.28590596 11.93638513 -10.23165147 11.73552178 -6 12 C-6.66 9.03 -7.32 6.06 -8 3 C-6.865625 2.690625 -5.73125 2.38125 -4.5625 2.0625 C-1.21224901 1.37075469 -1.21224901 1.37075469 0 0 Z M14 30 C15 34 15 34 15 34 Z M15 34 C16 38 16 38 16 38 Z M16 39 C17 41 17 41 17 41 Z " fill="#7F8082" transform="translate(141,38)"></path><path d="M0 0 C4.07329823 2.09169368 6.10104966 3.8121363 8 8 C8.84499354 11.07425908 9.43221943 14.1766134 10 17.3125 C10.16661133 18.19244629 10.33322266 19.07239258 10.50488281 19.97900391 C10.845114 21.78066792 11.18138479 23.58308439 11.51367188 25.38623047 C11.96552817 27.81473123 12.438545 30.23775234 12.921875 32.66015625 C15.17928234 44.13746753 15.17928234 44.13746753 15 50 C11.535 50.495 11.535 50.495 8 51 C6.95755449 47.15135045 5.94498628 43.29543526 4.9375 39.4375 C4.64294922 38.35146484 4.34839844 37.26542969 4.04492188 36.14648438 C2.53121486 30.28754783 1.64040605 25.91229139 3 20 C3.4165967 16.12353086 3.4165967 16.12353086 1.51171875 14.140625 C-0.53433069 11.2433767 -0.30175686 9.25387702 -0.1875 5.75 C-0.14689453 4.13351563 -0.14689453 4.13351563 -0.10546875 2.484375 C-0.07066406 1.66453125 -0.03585938 0.8446875 0 0 Z " fill="#E3E4E5" transform="translate(154,38)"></path><path d="M0 0 C3.37379019 2.59030337 5.36699491 4.1903019 6.4765625 8.4296875 C6.61578125 9.57179688 6.755 10.71390625 6.8984375 11.890625 C7.04796875 13.03789062 7.1975 14.18515625 7.3515625 15.3671875 C7.6484375 18.265625 7.6484375 18.265625 7.6484375 20.265625 C6.3284375 19.935625 5.0084375 19.605625 3.6484375 19.265625 C3.73544922 18.16154297 3.73544922 18.16154297 3.82421875 17.03515625 C4.20609838 10.75654903 4.20609838 10.75654903 1.5234375 5.265625 C-3.73957348 1.60439997 -7.93328013 -0.09254676 -14.3515625 -0.734375 C-13.39290741 1.59638429 -13.39290741 1.59638429 -10.3515625 3.265625 C-12.8265625 2.770625 -12.8265625 2.770625 -15.3515625 2.265625 C-14.39290741 4.59638429 -14.39290741 4.59638429 -11.3515625 6.265625 C-13.6615625 5.935625 -15.9715625 5.605625 -18.3515625 5.265625 C-18.6815625 3.615625 -19.0115625 1.965625 -19.3515625 0.265625 C-20.62835978 0.83578625 -21.89780538 1.42242347 -23.1640625 2.015625 C-23.87175781 2.34046875 -24.57945313 2.6653125 -25.30859375 3 C-27.76501026 4.52175707 -28.9189562 5.74982857 -30.3515625 8.265625 C-30.92593311 11.30446181 -30.92593311 11.30446181 -31.0390625 14.515625 C-31.10480469 15.59328125 -31.17054687 16.6709375 -31.23828125 17.78125 C-31.27566406 18.60109375 -31.31304687 19.4209375 -31.3515625 20.265625 C-32.0115625 20.265625 -32.6715625 20.265625 -33.3515625 20.265625 C-33.08480046 22.25054142 -33.08480046 22.25054142 -32.3515625 24.265625 C-31.3615625 24.595625 -30.3715625 24.925625 -29.3515625 25.265625 C-27.68489583 26.93229167 -26.01822917 28.59895833 -24.3515625 30.265625 C-22.18535706 31.56082495 -22.18535706 31.56082495 -20.3515625 32.265625 C-20.3515625 32.925625 -20.3515625 33.585625 -20.3515625 34.265625 C-24.8065625 34.760625 -24.8065625 34.760625 -29.3515625 35.265625 C-29.42503906 36.63847656 -29.42503906 36.63847656 -29.5 38.0390625 C-29.57476562 39.22757813 -29.64953125 40.41609375 -29.7265625 41.640625 C-29.79617187 42.82398438 -29.86578125 44.00734375 -29.9375 45.2265625 C-30.3515625 48.265625 -30.3515625 48.265625 -32.3515625 50.265625 C-32.0215625 45.315625 -31.6915625 40.365625 -31.3515625 35.265625 C-36.40524094 39.22824303 -36.40524094 39.22824303 -38.6640625 44.515625 C-38.99019531 45.40765625 -39.31632812 46.2996875 -39.65234375 47.21875 C-39.88308594 47.89421875 -40.11382812 48.5696875 -40.3515625 49.265625 C-40.6815625 49.265625 -41.0115625 49.265625 -41.3515625 49.265625 C-41.98126676 44.22799093 -40.71856952 41.19704479 -37.99609375 37.1015625 C-35.23933716 34.02394825 -32.14828119 32.81005294 -28.3515625 31.265625 C-28.84527344 30.89050781 -29.33898437 30.51539063 -29.84765625 30.12890625 C-35.11232558 25.92352652 -35.11232558 25.92352652 -36.3515625 22.515625 C-36.3515625 20.265625 -36.3515625 20.265625 -35.3515625 18.265625 C-34.6915625 18.265625 -34.0315625 18.265625 -33.3515625 18.265625 C-33.42117187 17.55277344 -33.49078125 16.83992188 -33.5625 16.10546875 C-33.84577487 11.09420145 -34.05539602 7.2943918 -30.7890625 3.265625 C-22.71563006 -4.50948199 -9.74086354 -5.55361451 0 0 Z " fill="#848587" transform="translate(149.3515625,2.734375)"></path><path d="M0 0 C1.258125 0.226875 2.51625 0.45375 3.8125 0.6875 C3.77769531 1.33976562 3.74289063 1.99203125 3.70703125 2.6640625 C3.53777815 8.1285196 3.67428436 11.98017654 6.8125 16.6875 C7.4725 17.0175 8.1325 17.3475 8.8125 17.6875 C8.4825 18.3475 8.1525 19.0075 7.8125 19.6875 C7.01199219 19.254375 7.01199219 19.254375 6.1953125 18.8125 C0.21597245 15.83317485 -4.55428275 15.1889701 -11.1875 15.6875 C-11.5175 16.3475 -11.8475 17.0075 -12.1875 17.6875 C-12.1875 16.6975 -12.1875 15.7075 -12.1875 14.6875 C-12.290625 13.388125 -12.39375 12.08875 -12.5 10.75 C-12.5078125 8.6171875 -12.5078125 8.6171875 -12.1875 6.6875 C-9.875 4.375 -9.875 4.375 -7.1875 2.6875 C-6.754375 2.089375 -6.32125 1.49125 -5.875 0.875 C-3.66713997 -0.67867928 -2.63871982 -0.32405331 0 0 Z " fill="#EDF1F2" transform="translate(54.1875,36.3125)"></path><path d="M0 0 C7.875 0.875 7.875 0.875 9 2 C9.2868146 5.26422335 9.44887605 8.52864491 9.62109375 11.80078125 C9.96944383 14.74200509 10.47745979 16.50352719 12 19 C11.38253906 18.80664062 10.76507813 18.61328125 10.12890625 18.4140625 C4.45651132 16.67003849 -1.19193035 15.21782106 -7 14 C-7.3125 10.75 -7.3125 10.75 -7 7 C-4.625 4.75 -4.625 4.75 -2 3 C-1.34 2.01 -0.68 1.02 0 0 Z " fill="#E5E5E6" transform="translate(144,36)"></path><path d="M0 0 C2.78281883 2.08711412 4.66026262 3.66088917 5.53515625 7.109375 C5.78116647 9.06359702 5.89997774 11.03289546 6 13 C4.72125 13.268125 3.4425 13.53625 2.125 13.8125 C-3.00062417 14.9451896 -7.99289488 16.43201301 -13 18 C-12.68289062 17.47921875 -12.36578125 16.9584375 -12.0390625 16.421875 C-10.71079489 13.32591291 -10.57635753 10.60595879 -10.375 7.25 C-10.30023438 6.07953125 -10.22546875 4.9090625 -10.1484375 3.703125 C-10.09945312 2.81109375 -10.05046875 1.9190625 -10 1 C-6.13373424 -0.6560505 -4.05512093 -1.52067035 0 0 Z " fill="#D1D2D3" transform="translate(129,37)"></path><path d="M0 0 C2.55486996 1.63680794 4.39668318 3.41957764 6 6 C6.49793297 8.86439789 6.30344773 11.06667196 6 14 C4.10454608 14.48066535 2.20861961 14.95946743 0.3125 15.4375 C-1.27111328 15.83775391 -1.27111328 15.83775391 -2.88671875 16.24609375 C-5.5828317 16.89897932 -8.2757576 17.47941193 -11 18 C-10.505 16.515 -10.505 16.515 -10 15 C-9.77439324 12.60745424 -9.59151405 10.21071877 -9.4375 7.8125 C-9.35371094 6.54019531 -9.26992188 5.26789062 -9.18359375 3.95703125 C-9.12300781 2.98121094 -9.06242187 2.00539062 -9 1 C-3.075 -0.5125 -3.075 -0.5125 0 0 Z " fill="#F4F4F4" transform="translate(32,36)"></path><path d="M0 0 C0.66 0 1.32 0 2 0 C0.94650498 8.40554534 -0.16911123 16.72204547 -2 25 C-1.01 25.33 -0.02 25.66 1 26 C0.01 26 -0.98 26 -2 26 C-2.66 27.98 -3.32 29.96 -4 32 C-1.06072154 32.1097561 -1.06072154 32.1097561 1.5 31.4375 C4 31 4 31 7 32 C6.855625 32.69480469 6.71125 33.38960937 6.5625 34.10546875 C4.0056409 48.11492589 4.15018932 62.89519354 6 77 C5.34 76.67 4.68 76.34 4 76 C1.73203786 69.148367 1.7189123 61.94979374 1.8125 54.8125 C1.81314453 53.86697266 1.81378906 52.92144531 1.81445312 51.94726562 C1.84633242 46.86428969 2.1338987 42.00952993 3 37 C0.69 37 -1.62 37 -4 37 C-4 36.34 -4 35.68 -4 35 C-4.99 35 -5.98 35 -7 35 C-7.33 32.69 -7.66 30.38 -8 28 C-7.35160156 27.76667969 -6.70320312 27.53335938 -6.03515625 27.29296875 C-3.79458517 26.19972544 -3.79458517 26.19972544 -3.49609375 23.92578125 C-3.47675781 23.06339844 -3.45742187 22.20101562 -3.4375 21.3125 C-3.17344407 16.34824853 -2.44916009 11.66650629 -1.4375 6.8125 C-1.29820068 6.14065674 -1.15890137 5.46881348 -1.01538086 4.77661133 C-0.681614 3.18341708 -0.34150733 1.59155301 0 0 Z M4 33 C5 36 5 36 5 36 Z " fill="#88898B" transform="translate(8,62)"></path><path d="M0 0 C0.33 0.99 0.66 1.98 1 3 C1.62648438 2.98839844 2.25296875 2.97679687 2.8984375 2.96484375 C3.71570313 2.95582031 4.53296875 2.94679687 5.375 2.9375 C6.18710937 2.92589844 6.99921875 2.91429687 7.8359375 2.90234375 C10 3 10 3 12 4 C12 8.29 12 12.58 12 17 C2.72265625 17.09765625 2.72265625 17.09765625 0 17 C-1.75559942 15.24440058 -1.13221919 12.96417558 -1.13671875 10.62890625 C-1.13285156 9.92636719 -1.12898437 9.22382813 -1.125 8.5 C-1.12886719 7.79746094 -1.13273438 7.09492188 -1.13671875 6.37109375 C-1.12661378 1.12661378 -1.12661378 1.12661378 0 0 Z " fill="#939496" transform="translate(14,138)"></path><path d="M0 0 C0.99 0 1.98 0 3 0 C2.99476318 0.65967773 2.98952637 1.31935547 2.98413086 1.99902344 C2.84464542 22.68524348 3.33652819 43.32650068 4 64 C2.68 64 1.36 64 0 64 C0 42.88 0 21.76 0 0 Z " fill="#7F8082" transform="translate(39,53)"></path><path d="M0 0 C1.76462683 3.08809695 2 4.23312136 2 8 C4.97 7.34 7.94 6.68 11 6 C12 8 13 10 14 12 C13.01 12 12.02 12 11 12 C11.33 12.99 11.66 13.98 12 15 C11.34 15 10.68 15 10 15 C9.01 16.485 9.01 16.485 8 18 C7.34 17.34 6.68 16.68 6 16 C3.39719432 16.32041397 3.39719432 16.32041397 1 17 C-0.41401153 13.86897448 -1.4413737 10.6917728 -2.3125 7.375 C-2.61607422 6.24191406 -2.61607422 6.24191406 -2.92578125 5.0859375 C-3 3 -3 3 -1.54296875 1.2265625 C-0.77919922 0.61941406 -0.77919922 0.61941406 0 0 Z " fill="#8D8E90" transform="translate(160,81)"></path><path d="M0 0 C9.69354483 -0.49012305 16.48901224 -0.4612758 24.1328125 5.7265625 C26.54809777 8.66734916 26.79269011 10.8733652 27.25 14.625 C27.39953125 15.77226562 27.5490625 16.91953125 27.703125 18.1015625 C28 21 28 21 28 23 C26.68 22.67 25.36 22.34 24 22 C24.05800781 21.26394531 24.11601562 20.52789063 24.17578125 19.76953125 C24.55766088 13.49092403 24.55766088 13.49092403 21.875 8 C16.61198902 4.33877497 12.41828237 2.64182824 6 2 C6.95865509 4.33075929 6.95865509 4.33075929 10 6 C8.35 5.67 6.7 5.34 5 5 C5.95865509 7.33075929 5.95865509 7.33075929 9 9 C6.69 8.67 4.38 8.34 2 8 C2 6.02 2 4.04 2 2 C1.34 2 0.68 2 0 2 C0 1.34 0 0.68 0 0 Z " fill="#898A8C" transform="translate(129,0)"></path><path d="M0 0 C1.54964792 0.29400435 3.08987565 0.63772877 4.625 1 C5.48351563 1.185625 6.34203125 1.37125 7.2265625 1.5625 C12.37416562 4.23055345 15.16662576 8.43470924 16.94287109 13.90234375 C17.69363055 17.09045945 18.31155161 20.27367907 18.875 23.5 C19.19210938 25.16289063 19.19210938 25.16289063 19.515625 26.859375 C20.02969853 29.56994452 20.5238719 32.2825548 21 35 C20.01 35 19.02 35 18 35 C17.89977539 34.40050537 17.79955078 33.80101074 17.69628906 33.18334961 C17.22815761 30.43214848 16.73925924 27.68501925 16.25 24.9375 C16.09273437 23.99455078 15.93546875 23.05160156 15.7734375 22.08007812 C14.5507864 15.33198454 13.14417383 9.70748302 7.75 5.0625 C6.88375 4.5365625 6.88375 4.5365625 6 4 C6.11455681 5.91731918 6.24206258 7.8338675 6.375 9.75 C6.44460937 10.81734375 6.51421875 11.8846875 6.5859375 12.984375 C6.9728223 15.80206432 7.55686166 17.5830366 9 20 C8.01 19.67 7.02 19.34 6 19 C5.87625 18.195625 5.7525 17.39125 5.625 16.5625 C5.41875 15.716875 5.2125 14.87125 5 14 C4.34 13.67 3.68 13.34 3 13 C3.33 9.7 3.66 6.4 4 3 C2.68 3 1.36 3 0 3 C0 2.01 0 1.02 0 0 Z " fill="#88888A" transform="translate(54,34)"></path><path d="M0 0 C3.9051322 0.39848288 7.25664013 0.98900565 10.8125 2.625 C11.864375 3.07875 12.91625 3.5325 14 4 C14.66 3.67 15.32 3.34 16 3 C15.96519531 3.93199219 15.93039063 4.86398438 15.89453125 5.82421875 C15.70659323 14.67520449 16.56701622 22.41214654 19 31 C18.34 31 17.68 31 17 31 C15.515 26.05 15.515 26.05 14 21 C14.33 23.64 14.66 26.28 15 29 C14.34 29.33 13.68 29.66 13 30 C10.1515533 21.4546599 10.8460669 14.61573241 13 6 C8.71 4.35 4.42 2.7 0 1 C0 0.67 0 0.34 0 0 Z " fill="#848587" transform="translate(48,51)"></path><path d="M0 0 C3.63 0 7.26 0 11 0 C10.979375 0.928125 10.95875 1.85625 10.9375 2.8125 C10.84230396 6.02286011 10.84230396 6.02286011 12 9 C7.71 9 3.42 9 -1 9 C-0.67 6.03 -0.34 3.06 0 0 Z " fill="#DDDDDE" transform="translate(57,146)"></path><path d="M0 0 C0.66 0 1.32 0 2 0 C1.67 1.98 1.34 3.96 1 6 C0.01 6.33 -0.98 6.66 -2 7 C-2.33 7.66 -2.66 8.32 -3 9 C-5.97 8.505 -5.97 8.505 -9 8 C-8.67257813 9.0415625 -8.34515625 10.083125 -8.0078125 11.15625 C-6.49444386 17.20972457 -6.7864415 23.30090471 -6.875 29.5 C-6.88402344 30.70398438 -6.89304688 31.90796875 -6.90234375 33.1484375 C-6.92576225 36.0991679 -6.95856007 39.04947689 -7 42 C-7.33 42 -7.66 42 -8 42 C-8.08302368 40.88927124 -8.08302368 40.88927124 -8.16772461 39.75610352 C-8.42266041 36.35810912 -8.68006281 32.96030576 -8.9375 29.5625 C-9.02451172 28.39783203 -9.11152344 27.23316406 -9.20117188 26.03320312 C-9.28818359 24.88916016 -9.37519531 23.74511719 -9.46484375 22.56640625 C-9.59221924 20.88248779 -9.59221924 20.88248779 -9.72216797 19.16455078 C-9.96560748 16.3917363 -10.30787286 13.65824864 -10.69140625 10.90234375 C-10.9971977 7.03543671 -10.8306052 6.15390257 -9 3 C-8.67 3.99 -8.34 4.98 -8 6 C-7.34 5.34 -6.68 4.68 -6 4 C-5.67 4.66 -5.34 5.32 -5 6 C-2.96531067 4.07858195 -2.96531067 4.07858195 -1.5 1.875 C-1.005 1.25625 -0.51 0.6375 0 0 Z " fill="#8A8B8D" transform="translate(173,91)"></path><path d="M0 0 C1.09961077 3.29883232 0.87535625 4.26095647 0.07421875 7.53515625 C-1.08261977 12.8990341 -1.26822681 17.96674507 -1.1875 23.4375 C-1.18105469 24.35039795 -1.17460937 25.2632959 -1.16796875 26.20385742 C-1.09617515 32.5020632 -0.81975484 38.74936932 0 45 C-0.66 44.67 -1.32 44.34 -2 44 C-4.20862831 37.24924562 -4.35249582 30.09868761 -4.3125 23.0625 C-4.31048584 22.10190674 -4.30847168 21.14131348 -4.30639648 20.15161133 C-4.07871184 4.07871184 -4.07871184 4.07871184 0 0 Z " fill="#7B7C7E" transform="translate(14,94)"></path><path d="M0 0 C3.3 0 6.6 0 10 0 C9.67 2.31 9.34 4.62 9 7 C6.03 7 3.06 7 0 7 C0 4.69 0 2.38 0 0 Z " fill="#F0F0F0" transform="translate(15,146)"></path><path d="M0 0 C0.33 0 0.66 0 1 0 C1.07347656 1.12148438 1.07347656 1.12148438 1.1484375 2.265625 C1.22320312 3.25046875 1.29796875 4.2353125 1.375 5.25 C1.44460937 6.22453125 1.51421875 7.1990625 1.5859375 8.203125 C1.98465249 10.89633189 2.63507063 12.66963279 4 15 C2.37276701 14.54965877 0.74826336 14.08944646 -0.875 13.625 C-1.77992188 13.36976562 -2.68484375 13.11453125 -3.6171875 12.8515625 C-6 12 -6 12 -8 10 C-7.625 7.875 -7.625 7.875 -7 6 C-4.69 6 -2.38 6 0 6 C0 4.02 0 2.04 0 0 Z " fill="#A6D5D9" transform="translate(152,40)"></path><path d="M0 0 C3.96 0 7.92 0 12 0 C12.33 1.65 12.66 3.3 13 5 C8.71 5 4.42 5 0 5 C0 3.35 0 1.7 0 0 Z " fill="#E9E9EA" transform="translate(120,41)"></path><path d="M0 0 C0.99 0 1.98 0 3 0 C3 0.99 3 1.98 3 3 C3.66 2.67 4.32 2.34 5 2 C7.54248039 12.41962944 7.54248039 12.41962944 7 16 C6.01 16.66 5.02 17.32 4 18 C3.32187886 16.1291122 2.6580054 14.25305707 2 12.375 C1.443125 10.80878906 1.443125 10.80878906 0.875 9.2109375 C-0.00483564 5.98225494 -0.15988262 3.32755706 0 0 Z M3 6 C4 10 4 10 4 10 Z M4 11 C5 13 5 13 5 13 Z " fill="#8E8F91" transform="translate(153,66)"></path><path d="M0 0 C4.31157568 1.23187877 7.90077474 3.71788114 10.3515625 7.48046875 C11.29105673 10.04059054 11.15246239 11.67575577 10.7578125 14.359375 C10.59152344 15.55820312 10.59152344 15.55820312 10.421875 16.78125 C10.32648437 17.38453125 10.23109375 17.9878125 10.1328125 18.609375 C9.8028125 18.609375 9.4728125 18.609375 9.1328125 18.609375 C9.14183594 18.02929688 9.15085937 17.44921875 9.16015625 16.8515625 C8.98926831 12.34903682 8.55239844 9.34770982 5.1953125 6.171875 C0.94928365 2.97850747 -3.68268179 2.21440786 -8.8671875 1.609375 C-5.49697755 -0.63743163 -3.9260728 -0.60846885 0 0 Z " fill="#77787A" transform="translate(49.8671875,0.390625)"></path><path d="M0 0 C2.70249451 0.37275786 3.79935135 0.78448849 5.6875 2.8125 C6.95294755 4.92157924 7.57033648 6.59388429 8 9 C7.01 8.67 6.02 8.34 5 8 C4.01 9.485 4.01 9.485 3 11 C3 9.68 3 8.36 3 7 C2.34 7 1.68 7 1 7 C1 7.99 1 8.98 1 10 C0.34 10 -0.32 10 -1 10 C-1.33 9.01 -1.66 8.02 -2 7 C-2.66 7 -3.32 7 -4 7 C-4 5 -4 5 -2.5625 3.5 C-2.046875 3.005 -1.53125 2.51 -1 2 C-0.67 1.34 -0.34 0.68 0 0 Z " fill="#EBEBEC" transform="translate(71,87)"></path><path d="M0 0 C0.66 1.32 1.32 2.64 2 4 C2.99 3.67 3.98 3.34 5 3 C5.33 4.32 5.66 5.64 6 7 C4.35 6.67 2.7 6.34 1 6 C0.67 6.99 0.34 7.98 0 9 C0 8.34 0 7.68 0 7 C-0.66 7 -1.32 7 -2 7 C-2.33 8.32 -2.66 9.64 -3 11 C-3.33 10.01 -3.66 9.02 -4 8 C-4.99 8 -5.98 8 -7 8 C-6.34 7.01 -5.68 6.02 -5 5 C-5.66 4.67 -6.32 4.34 -7 4 C-6.01 3.67 -5.02 3.34 -4 3 C-3.67 2.34 -3.34 1.68 -3 1 C-2.01 0.67 -1.02 0.34 0 0 Z " fill="#ECECEC" transform="translate(9,87)"></path><path d="M0 0 C3.14737182 0.69941596 6.02588876 1.76078698 9 3 C8.01 3.33 7.02 3.66 6 4 C6.33 4.99 6.66 5.98 7 7 C6.34 7 5.68 7 5 7 C4.01 8.485 4.01 8.485 3 10 C2.34 9.34 1.68 8.68 1 8 C0.01 8.495 0.01 8.495 -1 9 C-1 7.68 -1 6.36 -1 5 C-1.99 4.67 -2.98 4.34 -4 4 C-3.01 3.67 -2.02 3.34 -1 3 C-0.67 2.01 -0.34 1.02 0 0 Z " fill="#EEEEEF" transform="translate(165,89)"></path><path d="M0 0 C4.62 0 9.24 0 14 0 C14 0.66 14 1.32 14 2 C11.36 2 8.72 2 6 2 C6.95865509 4.33075929 6.95865509 4.33075929 10 6 C8.35 5.67 6.7 5.34 5 5 C5.95865509 7.33075929 5.95865509 7.33075929 9 9 C6.69 8.67 4.38 8.34 2 8 C2 6.02 2 4.04 2 2 C1.34 2 0.68 2 0 2 C0 1.34 0 0.68 0 0 Z " fill="#797A7C" transform="translate(129,0)"></path><path d="M0 0 C2.25 2.5 2.25 2.5 4 5 C2.68 5 1.36 5 0 5 C-0.33 5.99 -0.66 6.98 -1 8 C-1.66 7.67 -2.32 7.34 -3 7 C-3.66 7.66 -4.32 8.32 -5 9 C-5.33 8.01 -5.66 7.02 -6 6 C-6.99 6.495 -6.99 6.495 -8 7 C-8.33 5.68 -8.66 4.36 -9 3 C-5.55930376 0.70620251 -4.27709699 0 0 0 Z " fill="#F1F1F1" transform="translate(107,89)"></path><path d="M0 0 C4.62 0 9.24 0 14 0 C14.33 0.66 14.66 1.32 15 2 C14.20335937 2.19335938 13.40671875 2.38671875 12.5859375 2.5859375 C4.7134296 4.51794536 4.7134296 4.51794536 -3 7 C-2.01 4.69 -1.02 2.38 0 0 Z " fill="#EAEBEB" transform="translate(119,48)"></path><path d="M0 0 C2.64 0.33 5.28 0.66 8 1 C7.67 1.66 7.34 2.32 7 3 C5.68 3 4.36 3 3 3 C3.33 4.65 3.66 6.3 4 8 C4.66 7.34 5.32 6.68 6 6 C6 7.98 6 9.96 6 12 C7.65 12 9.3 12 11 12 C11 12.33 11 12.66 11 13 C5.85910687 14.85072153 3.04468729 15.21474076 -2 13 C-0.68 12.67 0.64 12.34 2 12 C1.85904936 10.3745692 1.71207913 8.74965949 1.5625 7.125 C1.44068359 5.76761719 1.44068359 5.76761719 1.31640625 4.3828125 C1.13010715 1.98889139 1.13010715 1.98889139 0 0 Z " fill="#9B9B9D" transform="translate(36,38)"></path><path d="M0 0 C0.66 0 1.32 0 2 0 C0.94650498 8.40554534 -0.16911123 16.72204547 -2 25 C-1.01 25.33 -0.02 25.66 1 26 C-0.9375 26.5625 -0.9375 26.5625 -3 27 C-3.33 26.67 -3.66 26.34 -4 26 C-3.93057238 17.21740567 -1.83386933 8.5465231 0 0 Z " fill="#7D7E80" transform="translate(8,62)"></path><path d="M0 0 C2.31 0 4.62 0 7 0 C8.35439668 2.70879335 8.06501451 5.00933268 8 8 C6.68 8 5.36 8 4 8 C4 7.34 4 6.68 4 6 C2.68 5.34 1.36 4.68 0 4 C0 2.68 0 1.36 0 0 Z " fill="#E7E7E8" transform="translate(155,48)"></path><path d="M0 0 C1.05711427 3.19957435 0.95184778 4.96645088 -0.21484375 8.109375 C-0.48876953 8.86347656 -0.76269531 9.61757812 -1.04492188 10.39453125 C-1.33947266 11.17183594 -1.63402344 11.94914062 -1.9375 12.75 C-2.22818359 13.54277344 -2.51886719 14.33554688 -2.81835938 15.15234375 C-3.53594814 17.10512629 -4.26670906 19.05305941 -5 21 C-7 20 -7 20 -8 18 C-8.66 18 -9.32 18 -10 18 C-10.33 17.01 -10.66 16.02 -11 15 C-8.03 15.495 -8.03 15.495 -5 16 C-4.89042969 15.43152344 -4.78085937 14.86304687 -4.66796875 14.27734375 C-3.62061834 9.17683242 -2.20728247 4.715558 0 0 Z " fill="#757578" transform="translate(21,73)"></path><path d="M0 0 C-1.11913497 2.42479244 -2.26424816 4.33244123 -3.9375 6.4375 C-6.80185186 10.54768519 -7.36051827 15.43563922 -8.2890625 20.26953125 C-8.52367187 21.17058594 -8.75828125 22.07164063 -9 23 C-9.66 23.33 -10.32 23.66 -11 24 C-10.64742247 15.71442796 -9.20669333 7.96120941 -3.875 1.375 C-2 0 -2 0 0 0 Z " fill="#7C7D7F" transform="translate(20,37)"></path><path d="M0 0 C2 2 2 2 2 4 C2.92232422 3.65775391 2.92232422 3.65775391 3.86328125 3.30859375 C4.67152344 3.02113281 5.47976562 2.73367187 6.3125 2.4375 C7.51326172 2.00244141 7.51326172 2.00244141 8.73828125 1.55859375 C11 1 11 1 14 2 C10.8377726 3.73169596 7.73257278 4.7128976 4.25 5.625 C3.26515625 5.88539062 2.2803125 6.14578125 1.265625 6.4140625 C0.14414062 6.70410156 0.14414062 6.70410156 -1 7 C-0.67 8.65 -0.34 10.3 0 12 C-0.66 12 -1.32 12 -2 12 C-2.66 9.36 -3.32 6.72 -4 4 C-3.01 3.67 -2.02 3.34 -1 3 C-0.67 2.01 -0.34 1.02 0 0 Z " fill="#8B8C8E" transform="translate(21,49)"></path><path d="M0 0 C2.79233071 2.55277419 3.48967606 4.22360282 4 8 C3.01 8 2.02 8 1 8 C0.87882812 8.68707031 0.75765625 9.37414062 0.6328125 10.08203125 C0.46523437 10.98308594 0.29765625 11.88414063 0.125 12.8125 C-0.03742188 13.70582031 -0.19984375 14.59914063 -0.3671875 15.51953125 C-1 18 -1 18 -3 21 C-4.52018673 16.15261213 -3.36863709 12.41749161 -2.0625 7.6875 C-1.86720703 6.94693359 -1.67191406 6.20636719 -1.47070312 5.44335938 C-0.9900719 3.62633887 -0.49633486 1.81279386 0 0 Z " fill="#969798" transform="translate(114,68)"></path><path d="M0 0 C0.66 0 1.32 0 2 0 C2.53293837 2.39370625 3.0515817 4.78908438 3.5625 7.1875 C3.71396484 7.86103516 3.86542969 8.53457031 4.02148438 9.22851562 C4.8403763 13.13253525 5.1282845 16.15187736 4 20 C4.99 20.66 5.98 21.32 7 22 C5.35 21.67 3.7 21.34 2 21 C2 20.34 2 19.68 2 19 C1.34 18.67 0.68 18.34 0 18 C0.99 18 1.98 18 3 18 C2.86722656 17.3709375 2.73445313 16.741875 2.59765625 16.09375 C1.49250818 10.73741189 0.60395788 5.43562094 0 0 Z " fill="#797A7C" transform="translate(73,69)"></path><path d="M0 0 C0 0.99 0 1.98 0 3 C-0.99 3.66 -1.98 4.32 -3 5 C-3.73606499 8.56769552 -3.73606499 8.56769552 -4 12 C-3.01 12.33 -2.02 12.66 -1 13 C-3.97 13 -6.94 13 -10 13 C-8.68 12.67 -7.36 12.34 -6 12 C-6.66 9.03 -7.32 6.06 -8 3 C-6.865625 2.690625 -5.73125 2.38125 -4.5625 2.0625 C-1.21224901 1.37075469 -1.21224901 1.37075469 0 0 Z " fill="#68696C" transform="translate(141,38)"></path><path d="M0 0 C3.96 0.33 7.92 0.66 12 1 C11.67 1.99 11.34 2.98 11 4 C8.44193276 5.22741343 5.82327163 5.77890041 3 6 C1 4.8125 1 4.8125 0 3 C0 2.01 0 1.02 0 0 Z " fill="#727376" transform="translate(129,36)"></path><path d="M0 0 C2.12999997 3.79039366 2.16702456 6.65736138 2 11 C7.445 10.505 7.445 10.505 13 10 C13 10.99 13 11.98 13 13 C11.02090602 13.02686553 9.04171029 13.04633375 7.0625 13.0625 C5.96035156 13.07410156 4.85820312 13.08570313 3.72265625 13.09765625 C1 13 1 13 0 12 C-0.07244053 9.98035801 -0.08377188 7.95832876 -0.0625 5.9375 C-0.05347656 4.83277344 -0.04445313 3.72804687 -0.03515625 2.58984375 C-0.02355469 1.73519531 -0.01195312 0.88054687 0 0 Z " fill="#AFB0B1" transform="translate(13,142)"></path><path d="M0 0 C2.97 0 5.94 0 9 0 C9.33 1.32 9.66 2.64 10 4 C6.37 4 2.74 4 -1 4 C-0.67 2.68 -0.34 1.36 0 0 Z " fill="#9B9C9D" transform="translate(58,141)"></path><path d="M0 0 C0.66 0 1.32 0 2 0 C1.67 1.98 1.34 3.96 1 6 C0.01 6.33 -0.98 6.66 -2 7 C-2.33 7.66 -2.66 8.32 -3 9 C-3.5775 8.814375 -4.155 8.62875 -4.75 8.4375 C-7.20692525 7.95976454 -8.64397534 8.24270636 -11 9 C-10.67 7.02 -10.34 5.04 -10 3 C-9.01 4.485 -9.01 4.485 -8 6 C-7.34 5.34 -6.68 4.68 -6 4 C-5.67 4.66 -5.34 5.32 -5 6 C-2.96531067 4.07858195 -2.96531067 4.07858195 -1.5 1.875 C-1.005 1.25625 -0.51 0.6375 0 0 Z " fill="#6C6D6F" transform="translate(173,91)"></path><path d="M0 0 C0.66 0 1.32 0 2 0 C2.33 0.66 2.66 1.32 3 2 C3.66 2 4.32 2 5 2 C5.33 3.98 5.66 5.96 6 8 C6.99 8.33 7.98 8.66 9 9 C8 10 8 10 5.4375 10.0625 C4.633125 10.041875 3.82875 10.02125 3 10 C0 3.375 0 3.375 0 0 Z M3 4 C4 6 4 6 4 6 Z " fill="#7B7C7E" transform="translate(62,80)"></path><path d="M0 0 C2.31 0 4.62 0 7 0 C6.01 0.495 6.01 0.495 5 1 C5 1.99 5 2.98 5 4 C5.66 4.33 6.32 4.66 7 5 C5.3125 6.1875 5.3125 6.1875 3 7 C0.25 5.625 0.25 5.625 -2 4 C-1.67 3.01 -1.34 2.02 -1 1 C-0.67 1.33 -0.34 1.66 0 2 C0 1.34 0 0.68 0 0 Z " fill="#D7D7D8" transform="translate(135,2)"></path><path d="M0 0 C5.22289724 0.409639 8.34664603 1.13174285 12 5 C12.9375 7.625 12.9375 7.625 13 10 C12.34 10.66 11.68 11.32 11 12 C10.7525 11.071875 10.505 10.14375 10.25 9.1875 C8.89581043 5.73431661 8.15238641 4.80136366 5 3 C3.35202764 2.28837557 1.68834592 1.60968047 0 1 C0 0.67 0 0.34 0 0 Z " fill="#737476" transform="translate(45,133)"></path><path d="M0 0 C0.33 0 0.66 0 1 0 C1 1.98 1 3.96 1 6 C-1.31 6.33 -3.62 6.66 -6 7 C-6.33 5.35 -6.66 3.7 -7 2 C-4.69 2 -2.38 2 0 2 C0 1.34 0 0.68 0 0 Z " fill="#DFE0E0" transform="translate(168,82)"></path><path d="M0 0 C2.64 0.33 5.28 0.66 8 1 C8 2.32 8 3.64 8 5 C5.36 5 2.72 5 0 5 C0 3.35 0 1.7 0 0 Z " fill="#E0E1E2" transform="translate(137,45)"></path><path d="M0 0 C0.66 0 1.32 0 2 0 C2 2.31 2 4.62 2 7 C-0.31 7 -2.62 7 -5 7 C-3.47793991 4.37098712 -2.15634036 2.15634036 0 0 Z " fill="#E0E1E2" transform="translate(116,38)"></path><path d="M0 0 C0.33 0.99 0.66 1.98 1 3 C-2.63 3 -6.26 3 -10 3 C-9.67 2.01 -9.34 1.02 -9 0 C-5.8033 -1.37001429 -3.30096158 -0.8252404 0 0 Z " fill="#E3E4E5" transform="translate(129,37)"></path><path d="M0 0 C2.31590289 3.47385433 2.26991835 4.96430006 2.25 9.0625 C2.25515625 10.12597656 2.2603125 11.18945312 2.265625 12.28515625 C2 15 2 15 0 17 C-0.19386492 14.35448944 -0.38038267 11.70882217 -0.5625 9.0625 C-0.61857422 8.30775391 -0.67464844 7.55300781 -0.73242188 6.77539062 C-0.86176157 4.85254042 -0.93516912 2.92610452 -1 1 C-0.67 0.67 -0.34 0.34 0 0 Z " fill="#89898B" transform="translate(70,103)"></path><path d="M0 0 C2.31 0 4.62 0 7 0 C7 1.65 7 3.3 7 5 C4.69 5 2.38 5 0 5 C0 3.35 0 1.7 0 0 Z " fill="#DFE0E1" transform="translate(103,84)"></path><path d="M0 0 C0.33 0 0.66 0 1 0 C1 3.3 1 6.6 1 10 C-0.65 10 -2.3 10 -4 10 C-5.8125 8 -5.8125 8 -7 6 C-4.69 6 -2.38 6 0 6 C0 4.02 0 2.04 0 0 Z " fill="#D0D7D9" transform="translate(152,40)"></path><path d="M0 0 C1.485 0.99 1.485 0.99 3 2 C3.51171875 4.8203125 3.51171875 4.8203125 3.6875 8.125 C3.75324219 9.22070312 3.81898438 10.31640625 3.88671875 11.4453125 C3.92410156 12.28835937 3.96148437 13.13140625 4 14 C2.68 13.67 1.36 13.34 0 13 C0 8.71 0 4.42 0 0 Z " fill="#7A7B7D" transform="translate(153,9)"></path><path d="M0 0 C0.66 0 1.32 0 2 0 C1.6875 1.9375 1.6875 1.9375 1 4 C0.01 4.33 -0.98 4.66 -2 5 C-1.67 6.65 -1.34 8.3 -1 10 C-1.99 10 -2.98 10 -4 10 C-4.33 8.02 -4.66 6.04 -5 4 C-4.360625 3.525625 -3.72125 3.05125 -3.0625 2.5625 C-1.11706694 1.16261274 -1.11706694 1.16261274 0 0 Z " fill="#7B7B7D" transform="translate(101,87)"></path><path d="M0 0 C0.66 0 1.32 0 2 0 C2.33 3.63 2.66 7.26 3 11 C1.68 11.33 0.36 11.66 -1 12 C-1 9.37165722 -0.80210238 6.91813299 -0.5 4.3125 C-0.4071875 3.50425781 -0.314375 2.69601563 -0.21875 1.86328125 C-0.1465625 1.24839844 -0.074375 0.63351562 0 0 Z " fill="#6B6C6F" transform="translate(21,12)"></path><path d="M0 0 C1.18851563 0.19464844 2.37703125 0.38929688 3.6015625 0.58984375 C4.97441406 0.82380859 4.97441406 0.82380859 6.375 1.0625 C2.97996995 3.32585337 2.20492437 3.24817637 -1.6875 2.8125 C-2.56535156 2.72484375 -3.44320312 2.6371875 -4.34765625 2.546875 C-6.625 2.0625 -6.625 2.0625 -8.625 0.0625 C-5.61666904 -1.44166548 -3.27538422 -0.54589737 0 0 Z " fill="#9A9B9C" transform="translate(118.625,148.9375)"></path><path d="M0 0 C0.33 0.99 0.66 1.98 1 3 C1.99 3 2.98 3 4 3 C4 3.66 4 4.32 4 5 C3.01 5.495 3.01 5.495 2 6 C2.33 7.65 2.66 9.3 3 11 C2.34 11 1.68 11 1 11 C-1.03684712 6.92630576 -1.0257259 4.41062136 0 0 Z " fill="#959597" transform="translate(160,87)"></path><path d="M0 0 C2.28304899 0.0179485 4.52425196 0.11763285 6.796875 0.33203125 C4.44773008 2.68117617 2.84008054 3.06343482 -0.328125 3.95703125 C-1.69324219 4.34761719 -1.69324219 4.34761719 -3.0859375 4.74609375 C-3.78460938 4.93945312 -4.48328125 5.1328125 -5.203125 5.33203125 C-4.06475685 2.29638286 -3.36675282 0.50740069 0 0 Z " fill="#DADBDC" transform="translate(121.203125,49.66796875)"></path><path d="M0 0 C3.25640777 2.83622612 4.68923501 4.64929009 5 9 C4.5625 12.3125 4.5625 12.3125 4 15 C3.67 15 3.34 15 3 15 C2.92652344 14.06027344 2.92652344 14.06027344 2.8515625 13.1015625 C2.77679688 12.28429688 2.70203125 11.46703125 2.625 10.625 C2.55539063 9.81289062 2.48578125 9.00078125 2.4140625 8.1640625 C2.17107412 5.79665809 2.17107412 5.79665809 0 4 C0 2.68 0 1.36 0 0 Z " fill="#8A8B8D" transform="translate(56,4)"></path><path d="M0 0 C0.33 0 0.66 0 1 0 C1.19335938 0.68707031 1.38671875 1.37414062 1.5859375 2.08203125 C1.97652344 3.43361328 1.97652344 3.43361328 2.375 4.8125 C2.63023438 5.70582031 2.88546875 6.59914062 3.1484375 7.51953125 C3.95266661 10.20467896 3.95266661 10.20467896 6 13 C4.125 12.6875 4.125 12.6875 2 12 C-0.13586678 8.79619983 -0.23132175 7.98060033 -0.125 4.3125 C-0.10695313 3.50425781 -0.08890625 2.69601563 -0.0703125 1.86328125 C-0.04710938 1.24839844 -0.02390625 0.63351563 0 0 Z " fill="#898A8C" transform="translate(106,136)"></path><path d="M0 0 C1 3 1 3 -0.3125 5.6875 C-3.91495383 8.78728585 -6.35258044 8.40846775 -10.953125 8.17578125 C-11.62859375 8.11777344 -12.3040625 8.05976563 -13 8 C-13 7.67 -13 7.34 -13 7 C-10.03 7 -7.06 7 -4 7 C-3.71125 6.21625 -3.4225 5.4325 -3.125 4.625 C-2 2 -2 2 0 0 Z " fill="#77787A" transform="translate(28,135)"></path><path d="M0 0 C1.37432457 3.81756824 0.67975039 7.07255329 0 11 C0.99 11.33 1.98 11.66 3 12 C1.0625 12.5625 1.0625 12.5625 -1 13 C-1.33 12.67 -1.66 12.34 -2 12 C-1.93607199 10.16352258 -1.79944271 8.32929108 -1.625 6.5 C-1.53476563 5.4996875 -1.44453125 4.499375 -1.3515625 3.46875 C-1 1 -1 1 0 0 Z " fill="#737577" transform="translate(6,76)"></path><path d="M0 0 C0 0.66 0 1.32 0 2 C-0.66 2 -1.32 2 -2 2 C-2.20625 2.639375 -2.4125 3.27875 -2.625 3.9375 C-4 6 -4 6 -7.125 6.75 C-8.548125 6.87375 -8.548125 6.87375 -10 7 C-9 6 -8 5 -7 4 C-6.34 3.278125 -5.68 2.55625 -5 1.8125 C-3 0 -3 0 0 0 Z " fill="#6C6C6F" transform="translate(60,29)"></path><path d="M0 0 C0 1.65 0 3.3 0 5 C-0.33 3.68 -0.66 2.36 -1 1 C-3.64 1.99 -6.28 2.98 -9 4 C-9 3.01 -9 2.02 -9 1 C-5.64919071 -1.10976881 -3.77897651 -1.0497157 0 0 Z " fill="#88888A" transform="translate(131,2)"></path><path d="M0 0 C0.99 0 1.98 0 3 0 C3.103125 0.639375 3.20625 1.27875 3.3125 1.9375 C3.539375 2.618125 3.76625 3.29875 4 4 C4.99 4.33 5.98 4.66 7 5 C7 5.66 7 6.32 7 7 C4.625 6.6875 4.625 6.6875 2 6 C0 3 0 3 0 0 Z " fill="#8A8A8C" transform="translate(113,23)"></path><path d="M0 0 C0.66 0.66 1.32 1.32 2 2 C1.7578125 4.6015625 1.7578125 4.6015625 1.125 7.625 C0.81949219 9.12933594 0.81949219 9.12933594 0.5078125 10.6640625 C0.34023437 11.43492187 0.17265625 12.20578125 0 13 C-2.58772586 9.1184112 -1.87719799 7.46573523 -1 3 C-0.67 2.01 -0.34 1.02 0 0 Z " fill="#747677" transform="translate(69,132)"></path><path d="M0 0 C0.99 0.33 1.98 0.66 3 1 C3.33 3.31 3.66 5.62 4 8 C2.68 8 1.36 8 0 8 C0 5.36 0 2.72 0 0 Z " fill="#78797B" transform="translate(39,109)"></path><path d="M0 0 C0.66 0.66 1.32 1.32 2 2 C2.66 1.34 3.32 0.68 4 0 C4.66 1.32 5.32 2.64 6 4 C5.01 4 4.02 4 3 4 C3 4.66 3 5.32 3 6 C2.01 6 1.02 6 0 6 C0 5.01 0 4.02 0 3 C-0.66 2.67 -1.32 2.34 -2 2 C-1.34 1.34 -0.68 0.68 0 0 Z " fill="#88898B" transform="translate(101,94)"></path><path d="M0 0 C0.33 0.66 0.66 1.32 1 2 C3.97 1.34 6.94 0.68 10 0 C10.66 1.65 11.32 3.3 12 5 C11.319375 4.67 10.63875 4.34 9.9375 4 C6.49159762 2.82692685 3.61602578 2.85819507 0 3 C0 2.01 0 1.02 0 0 Z " fill="#7D7E80" transform="translate(161,87)"></path><path d="M0 0 C3.3 0 6.6 0 10 0 C8.515 1.485 8.515 1.485 7 3 C3.875 2.8125 3.875 2.8125 1 2 C0.67 1.34 0.34 0.68 0 0 Z " fill="#D1D1D2" transform="translate(131,38)"></path><path d="M0 0 C0.33 0 0.66 0 1 0 C1 1.98 1 3.96 1 6 C1.99 6.33 2.98 6.66 4 7 C1.03 7 -1.94 7 -5 7 C-3.68 6.67 -2.36 6.34 -1 6 C-1.33 5.01 -1.66 4.02 -2 3 C-1.34 2.01 -0.68 1.02 0 0 Z " fill="#717174" transform="translate(136,44)"></path><path d="M0 0 C0.33 0 0.66 0 1 0 C1.05422947 1.4370809 1.09289723 2.87475462 1.125 4.3125 C1.14820313 5.11300781 1.17140625 5.91351563 1.1953125 6.73828125 C1 9 1 9 -1 12 C-1.99 11.67 -2.98 11.34 -4 11 C-3.2884375 10.2265625 -3.2884375 10.2265625 -2.5625 9.4375 C-0.57190593 6.33217325 -0.34939182 3.63367496 0 0 Z " fill="#828385" transform="translate(164,137)"></path><path d="M0 0 C0.33 0.99 0.66 1.98 1 3 C3.97 3 6.94 3 10 3 C10 3.33 10 3.66 10 4 C7.03 4 4.06 4 1 4 C0.67 4.99 0.34 5.98 0 7 C-0.38133299 5.0085944 -0.71325582 3.00720923 -1 1 C-0.67 0.67 -0.34 0.34 0 0 Z " fill="#929395" transform="translate(14,138)"></path><path d="M0 0 C1.32 0 2.64 0 4 0 C4 0.66 4 1.32 4 2 C4.99 2.33 5.98 2.66 7 3 C6 4 6 4 3.4375 4.0625 C2.2309375 4.0315625 2.2309375 4.0315625 1 4 C0.67 2.68 0.34 1.36 0 0 Z " fill="#717275" transform="translate(64,86)"></path><path d="M0 0 C0.33 0 0.66 0 1 0 C1 3.63 1 7.26 1 11 C0.67 11 0.34 11 0 11 C-0.144375 10.2575 -0.28875 9.515 -0.4375 8.75 C-0.90187492 6.47972261 -1.41863569 4.24240521 -2 2 C-1.34 2 -0.68 2 0 2 C0 1.34 0 0.68 0 0 Z " fill="#767779" transform="translate(117,63)"></path><path d="M0 0 C1.85776765 3.13498292 2.20140476 5.37471432 2 9 C0.68 9 -0.64 9 -2 9 C-2 8.34 -2 7.68 -2 7 C-1.34 7 -0.68 7 0 7 C0 4.69 0 2.38 0 0 Z " fill="#78797B" transform="translate(116,14)"></path><path d="M0 0 C2.31 0 4.62 0 7 0 C7.66 1.32 8.32 2.64 9 4 C6.03 3.01 3.06 2.02 0 1 C0 0.67 0 0.34 0 0 Z " fill="#DDDDDE" transform="translate(147,51)"></path><path d="M0 0 C0.99 0 1.98 0 3 0 C3 3.63 3 7.26 3 11 C2.67 11 2.34 11 2 11 C1.855625 9.9275 1.71125 8.855 1.5625 7.75 C1.16250558 5.08337051 0.72408076 2.58600271 0 0 Z " fill="#87888A" transform="translate(39,53)"></path></svg>