<svg xmlns="http://www.w3.org/2000/svg" width="72" height="156"><path d="M0 0 C0.58007812 0.37125 1.16015625 0.7425 1.7578125 1.125 C2.6859375 1.7025 3.6140625 2.28 4.5703125 2.875 C8.3169712 6.72870609 10.62980423 10.52216511 10.8984375 15.984375 C10.84792474 17.89375714 10.75319525 19.80270235 10.60546875 21.70703125 C10.79250268 24.67559546 11.61489331 25.20028929 13.7578125 27.125 C13.7165625 28.011875 13.6753125 28.89875 13.6328125 29.8125 C13.78924757 33.95802935 15.2521608 35.95016977 17.56640625 39.29296875 C21.12164591 44.75987826 20.25825369 51.88710629 19.7578125 58.125 C18.49695772 62.36867694 16.05466314 64.99704398 12.5703125 67.625 C9.51112319 69.888579 9.51112319 69.888579 8.87109375 73.328125 C8.73784815 77.79415008 9.99042988 80.5972108 12.1328125 84.375 C19.97905189 98.90280262 20.07408837 121.84624621 16.6328125 138 C15.05203104 143.10657974 13.03506678 146.85809483 8.7578125 150.125 C1.07461921 153.64288475 -6.9480554 153.57975127 -15.2421875 153.5 C-17.05203125 153.51740234 -17.05203125 153.51740234 -18.8984375 153.53515625 C-34.81941312 153.48324003 -34.81941312 153.48324003 -41.07202148 148.7355957 C-48.8213491 140.67088164 -48.67345005 129.77455658 -48.4921875 119.25 C-48.48445313 117.46529297 -48.48445313 117.46529297 -48.4765625 115.64453125 C-48.44587748 112.13493198 -48.35981995 108.63269961 -48.2421875 105.125 C-48.2107666 104.04806885 -48.1793457 102.9711377 -48.14697266 101.86157227 C-47.7983019 95.21431619 -46.52486251 90.50552703 -43.1171875 84.8125 C-40.71846133 80.76515099 -39.23793174 78.15276584 -39.2578125 73.3515625 C-40.34709824 69.7811259 -41.09508844 68.86597757 -44.1171875 66.8125 C-48.91678225 62.95214372 -50.4638466 59.17976817 -51.2421875 53.125 C-51.51758667 44.85050661 -48.7394278 38.87086046 -44.2421875 32.125 C-44.2628125 31.3 -44.2834375 30.475 -44.3046875 29.625 C-44.2840625 28.8 -44.2634375 27.975 -44.2421875 27.125 C-43.74460937 26.68542969 -43.24703125 26.24585937 -42.734375 25.79296875 C-40.99641496 24.19632325 -40.99641496 24.19632325 -41.08984375 21.70703125 C-41.16074219 20.79308594 -41.23164062 19.87914063 -41.3046875 18.9375 C-41.45187679 13.37374473 -40.50654825 9.64571012 -37.2421875 5.125 C-35.0546875 2.875 -35.0546875 2.875 -32.2421875 1.125 C-31.37207031 0.568125 -31.37207031 0.568125 -30.484375 0 C-21.64503893 -4.83978857 -8.83933607 -4.83978857 0 0 Z " fill="#FCFCFC" transform="translate(51.2421875,2.875)"></path><path d="M0 0 C0.58007812 0.37125 1.16015625 0.7425 1.7578125 1.125 C2.6859375 1.7025 3.6140625 2.28 4.5703125 2.875 C8.3169712 6.72870609 10.62980423 10.52216511 10.8984375 15.984375 C10.84792474 17.89375714 10.75319525 19.80270235 10.60546875 21.70703125 C10.79250268 24.67559546 11.61489331 25.20028929 13.7578125 27.125 C13.7165625 28.011875 13.6753125 28.89875 13.6328125 29.8125 C13.78924757 33.95802935 15.2521608 35.95016977 17.56640625 39.29296875 C21.12164591 44.75987826 20.25825369 51.88710629 19.7578125 58.125 C18.49695772 62.36867694 16.05466314 64.99704398 12.5703125 67.625 C9.51112319 69.888579 9.51112319 69.888579 8.87109375 73.328125 C8.73784815 77.79415008 9.99042988 80.5972108 12.1328125 84.375 C19.97905189 98.90280262 20.07408837 121.84624621 16.6328125 138 C15.05203104 143.10657974 13.03506678 146.85809483 8.7578125 150.125 C1.07461921 153.64288475 -6.9480554 153.57975127 -15.2421875 153.5 C-17.05203125 153.51740234 -17.05203125 153.51740234 -18.8984375 153.53515625 C-34.81941312 153.48324003 -34.81941312 153.48324003 -41.07202148 148.7355957 C-48.8213491 140.67088164 -48.67345005 129.77455658 -48.4921875 119.25 C-48.48445313 117.46529297 -48.48445313 117.46529297 -48.4765625 115.64453125 C-48.44587748 112.13493198 -48.35981995 108.63269961 -48.2421875 105.125 C-48.2107666 104.04806885 -48.1793457 102.9711377 -48.14697266 101.86157227 C-47.7983019 95.21431619 -46.52486251 90.50552703 -43.1171875 84.8125 C-40.71846133 80.76515099 -39.23793174 78.15276584 -39.2578125 73.3515625 C-40.34709824 69.7811259 -41.09508844 68.86597757 -44.1171875 66.8125 C-48.91678225 62.95214372 -50.4638466 59.17976817 -51.2421875 53.125 C-51.51758667 44.85050661 -48.7394278 38.87086046 -44.2421875 32.125 C-44.2628125 31.3 -44.2834375 30.475 -44.3046875 29.625 C-44.2840625 28.8 -44.2634375 27.975 -44.2421875 27.125 C-43.74460937 26.68542969 -43.24703125 26.24585937 -42.734375 25.79296875 C-40.99641496 24.19632325 -40.99641496 24.19632325 -41.08984375 21.70703125 C-41.16074219 20.79308594 -41.23164062 19.87914063 -41.3046875 18.9375 C-41.45187679 13.37374473 -40.50654825 9.64571012 -37.2421875 5.125 C-35.0546875 2.875 -35.0546875 2.875 -32.2421875 1.125 C-31.37207031 0.568125 -31.37207031 0.568125 -30.484375 0 C-21.64503893 -4.83978857 -8.83933607 -4.83978857 0 0 Z M-43.2421875 35.125 C-47.51782563 42.16453278 -49.3717393 47.87546441 -48.2421875 56.125 C-46.68998983 61.69465046 -44.21513963 64.43696724 -39.765625 67.86328125 C-37.24157201 69.95371488 -37.2190051 71.31045924 -36.8046875 74.625 C-36.83130036 79.50402383 -39.05624978 82.68678259 -41.734375 86.6328125 C-45.22916438 92.40917421 -45.56068606 97.80012573 -45.578125 104.36328125 C-45.5847818 105.24348434 -45.5914386 106.12368744 -45.59829712 107.03056335 C-45.60838914 108.88713503 -45.61311521 110.74374272 -45.61279297 112.6003418 C-45.61715795 115.41842451 -45.65349083 118.2349291 -45.69140625 121.05273438 C-45.69727705 122.86457803 -45.70124468 124.67642906 -45.703125 126.48828125 C-45.71749603 127.31983231 -45.73186707 128.15138336 -45.74667358 129.00813293 C-45.70040559 135.0295987 -44.37209324 139.93880863 -41.2421875 145.125 C-34.23270271 151.33795243 -25.40307538 151.49050899 -16.4921875 151.4375 C-15.03727905 151.43012817 -15.03727905 151.43012817 -13.55297852 151.42260742 C-5.1597412 151.28558932 2.80039226 150.95172875 9.8203125 145.9375 C14.15082163 139.65127706 15.24068054 133.60173944 15.33203125 126.15625 C15.3467598 125.31767456 15.36148834 124.47909912 15.37666321 123.6151123 C15.40048629 121.84701514 15.41599566 120.07878824 15.42358398 118.31054688 C15.44504758 115.65774284 15.52524053 113.01089549 15.60742188 110.359375 C15.75808263 100.48341834 14.79954176 93.00856927 9.56877136 84.47375488 C6.19668953 78.91682577 6.34268482 75.06871298 7.0078125 68.75 C8.06082579 66.4684712 9.52031263 66.24374993 11.7578125 65.125 C17.02885054 59.36363285 18.11986111 55.60745672 18.0390625 47.9921875 C17.63557379 43.87884428 16.50822374 40.26945297 13.7578125 37.125 C8.36721809 34.30929433 2.68596494 34.37399417 -3.2421875 35.125 C-6.52140698 36.35321675 -7.09813706 37.12332938 -9.2421875 40.125 C-9.52470516 44.0264344 -8.99515903 47.61905694 -7.2421875 51.125 C-7.9021875 50.135 -8.5621875 49.145 -9.2421875 48.125 C-10.2321875 48.125 -11.2221875 48.125 -12.2421875 48.125 C-12.3865625 49.424375 -12.5309375 50.72375 -12.6796875 52.0625 C-13.1171875 56 -13.1171875 56 -14.2421875 57.125 C-14.34158242 59.16983376 -14.37018302 61.21813332 -14.37158203 63.26538086 C-14.37631027 65.23763893 -14.37631027 65.23763893 -14.38113403 67.2497406 C-14.37934407 68.69644199 -14.37729307 70.14314307 -14.375 71.58984375 C-14.37567314 73.06335974 -14.37664325 74.53687563 -14.37789917 76.01039124 C-14.37937613 79.103211 -14.37722195 82.19600194 -14.37255859 85.28881836 C-14.36686628 89.25808735 -14.37013715 93.22728865 -14.37613106 97.19655514 C-14.37974097 100.24109916 -14.37859601 103.28562708 -14.37600327 106.33017159 C-14.37533493 107.79383922 -14.37615917 109.2575083 -14.37848282 110.72117424 C-14.38101578 112.76585742 -14.37647217 114.81054571 -14.37158203 116.85522461 C-14.37078644 118.02025009 -14.36999084 119.18527557 -14.36917114 120.38560486 C-14.42933239 123.08847483 -14.42933239 123.08847483 -13.2421875 125.125 C-14.5621875 125.125 -15.8821875 125.125 -17.2421875 125.125 C-17.2421875 124.465 -17.2421875 123.805 -17.2421875 123.125 C-16.2521875 122.63 -16.2521875 122.63 -15.2421875 122.125 C-15.19536595 114.83909984 -15.16007002 107.55323335 -15.13856316 100.26721191 C-15.12822886 96.88218789 -15.11426521 93.49726851 -15.09130859 90.11230469 C-14.88781013 69.03203923 -14.88781013 69.03203923 -17.2421875 48.125 C-18.10199219 47.78227051 -18.96179688 47.43954102 -19.84765625 47.08642578 C-33.61751863 41.56200331 -33.61751863 41.56200331 -37.2421875 36.125 C-40.30775348 35.39156572 -40.30775348 35.39156572 -43.2421875 35.125 Z " fill="#F7F7F7" transform="translate(51.2421875,2.875)"></path><path d="M0 0 C0.58007812 0.37125 1.16015625 0.7425 1.7578125 1.125 C2.6859375 1.7025 3.6140625 2.28 4.5703125 2.875 C8.3169712 6.72870609 10.62980423 10.52216511 10.8984375 15.984375 C10.84792474 17.89375714 10.75319525 19.80270235 10.60546875 21.70703125 C10.79250268 24.67559546 11.61489331 25.20028929 13.7578125 27.125 C13.7165625 28.011875 13.6753125 28.89875 13.6328125 29.8125 C13.78924757 33.95802935 15.2521608 35.95016977 17.56640625 39.29296875 C21.12164591 44.75987826 20.25825369 51.88710629 19.7578125 58.125 C18.49695772 62.36867694 16.05466314 64.99704398 12.5703125 67.625 C9.51112319 69.888579 9.51112319 69.888579 8.87109375 73.328125 C8.73784815 77.79415008 9.99042988 80.5972108 12.1328125 84.375 C19.97905189 98.90280262 20.07408837 121.84624621 16.6328125 138 C15.05203104 143.10657974 13.03506678 146.85809483 8.7578125 150.125 C1.07461921 153.64288475 -6.9480554 153.57975127 -15.2421875 153.5 C-17.05203125 153.51740234 -17.05203125 153.51740234 -18.8984375 153.53515625 C-34.81941312 153.48324003 -34.81941312 153.48324003 -41.07202148 148.7355957 C-48.8213491 140.67088164 -48.67345005 129.77455658 -48.4921875 119.25 C-48.48445313 117.46529297 -48.48445313 117.46529297 -48.4765625 115.64453125 C-48.44587748 112.13493198 -48.35981995 108.63269961 -48.2421875 105.125 C-48.2107666 104.04806885 -48.1793457 102.9711377 -48.14697266 101.86157227 C-47.7983019 95.21431619 -46.52486251 90.50552703 -43.1171875 84.8125 C-40.71846133 80.76515099 -39.23793174 78.15276584 -39.2578125 73.3515625 C-40.34709824 69.7811259 -41.09508844 68.86597757 -44.1171875 66.8125 C-48.91678225 62.95214372 -50.4638466 59.17976817 -51.2421875 53.125 C-51.51758667 44.85050661 -48.7394278 38.87086046 -44.2421875 32.125 C-44.2628125 31.3 -44.2834375 30.475 -44.3046875 29.625 C-44.2840625 28.8 -44.2634375 27.975 -44.2421875 27.125 C-43.74460937 26.68542969 -43.24703125 26.24585937 -42.734375 25.79296875 C-40.99641496 24.19632325 -40.99641496 24.19632325 -41.08984375 21.70703125 C-41.16074219 20.79308594 -41.23164062 19.87914063 -41.3046875 18.9375 C-41.45187679 13.37374473 -40.50654825 9.64571012 -37.2421875 5.125 C-35.0546875 2.875 -35.0546875 2.875 -32.2421875 1.125 C-31.37207031 0.568125 -31.37207031 0.568125 -30.484375 0 C-21.64503893 -4.83978857 -8.83933607 -4.83978857 0 0 Z M-19.2421875 1.125 C-18.95235481 4.43183466 -18.95235481 4.43183466 -17.2421875 7.125 C-14.90921317 7.16592937 -12.57513525 7.16741723 -10.2421875 7.125 C-11.69854121 7.34674933 -13.15741706 7.55198698 -14.6171875 7.75 C-15.42929687 7.86601562 -16.24140625 7.98203125 -17.078125 8.1015625 C-17.79226562 8.10929688 -18.50640625 8.11703125 -19.2421875 8.125 C-21.60171844 5.76546906 -21.73360163 4.34604383 -22.2421875 1.125 C-28.12454201 1.41911773 -32.09717013 4.13868825 -36.2421875 8.125 C-38.75232729 11.69835186 -38.44615143 15.11094767 -38.3671875 19.375 C-38.34914063 20.63828125 -38.33109375 21.9015625 -38.3125 23.203125 C-38.28929687 24.16734375 -38.26609375 25.1315625 -38.2421875 26.125 C-39.2321875 26.455 -40.2221875 26.785 -41.2421875 27.125 C-40.9121875 29.105 -40.5821875 31.085 -40.2421875 33.125 C-39.0665625 33.2178125 -39.0665625 33.2178125 -37.8671875 33.3125 C-37.0009375 33.580625 -36.1346875 33.84875 -35.2421875 34.125 C-34.56777619 35.7885479 -33.9021554 37.45566942 -33.2421875 39.125 C-26.90202418 44.25751316 -20.31816806 46.62974878 -12.2421875 46.125 C-11.99984375 45.58230469 -11.7575 45.03960937 -11.5078125 44.48046875 C-8.12173384 37.25249316 -8.12173384 37.25249316 -4.2421875 35.125 C-1.23440229 34.12240493 1.29601897 33.82185358 4.4453125 33.5625 C5.43917969 33.47871094 6.43304688 33.39492188 7.45703125 33.30859375 C8.59591797 33.21771484 8.59591797 33.21771484 9.7578125 33.125 C10.0878125 31.475 10.4178125 29.825 10.7578125 28.125 C9.4378125 27.795 8.1178125 27.465 6.7578125 27.125 C7.0878125 26.465 7.4178125 25.805 7.7578125 25.125 C8.24321204 19.36386443 8.55780232 13.99164292 6.2578125 8.625 C0.59389635 2.96108385 -5.92412821 -0.58712938 -13.9921875 -1.125 C-17.32805581 -1.22299261 -17.32805581 -1.22299261 -19.2421875 1.125 Z M-43.2421875 35.125 C-47.51782563 42.16453278 -49.3717393 47.87546441 -48.2421875 56.125 C-46.68998983 61.69465046 -44.21513963 64.43696724 -39.765625 67.86328125 C-37.24157201 69.95371488 -37.2190051 71.31045924 -36.8046875 74.625 C-36.83130036 79.50402383 -39.05624978 82.68678259 -41.734375 86.6328125 C-45.22916438 92.40917421 -45.56068606 97.80012573 -45.578125 104.36328125 C-45.5847818 105.24348434 -45.5914386 106.12368744 -45.59829712 107.03056335 C-45.60838914 108.88713503 -45.61311521 110.74374272 -45.61279297 112.6003418 C-45.61715795 115.41842451 -45.65349083 118.2349291 -45.69140625 121.05273438 C-45.69727705 122.86457803 -45.70124468 124.67642906 -45.703125 126.48828125 C-45.71749603 127.31983231 -45.73186707 128.15138336 -45.74667358 129.00813293 C-45.70040559 135.0295987 -44.37209324 139.93880863 -41.2421875 145.125 C-34.23270271 151.33795243 -25.40307538 151.49050899 -16.4921875 151.4375 C-15.03727905 151.43012817 -15.03727905 151.43012817 -13.55297852 151.42260742 C-5.1597412 151.28558932 2.80039226 150.95172875 9.8203125 145.9375 C14.15082163 139.65127706 15.24068054 133.60173944 15.33203125 126.15625 C15.3467598 125.31767456 15.36148834 124.47909912 15.37666321 123.6151123 C15.40048629 121.84701514 15.41599566 120.07878824 15.42358398 118.31054688 C15.44504758 115.65774284 15.52524053 113.01089549 15.60742188 110.359375 C15.75808263 100.48341834 14.79954176 93.00856927 9.56877136 84.47375488 C6.19668953 78.91682577 6.34268482 75.06871298 7.0078125 68.75 C8.06082579 66.4684712 9.52031263 66.24374993 11.7578125 65.125 C17.02885054 59.36363285 18.11986111 55.60745672 18.0390625 47.9921875 C17.63557379 43.87884428 16.50822374 40.26945297 13.7578125 37.125 C8.36721809 34.30929433 2.68596494 34.37399417 -3.2421875 35.125 C-6.52140698 36.35321675 -7.09813706 37.12332938 -9.2421875 40.125 C-9.52470516 44.0264344 -8.99515903 47.61905694 -7.2421875 51.125 C-7.9021875 50.135 -8.5621875 49.145 -9.2421875 48.125 C-10.2321875 48.125 -11.2221875 48.125 -12.2421875 48.125 C-12.3865625 49.424375 -12.5309375 50.72375 -12.6796875 52.0625 C-13.1171875 56 -13.1171875 56 -14.2421875 57.125 C-14.34158242 59.16983376 -14.37018302 61.21813332 -14.37158203 63.26538086 C-14.37631027 65.23763893 -14.37631027 65.23763893 -14.38113403 67.2497406 C-14.37934407 68.69644199 -14.37729307 70.14314307 -14.375 71.58984375 C-14.37567314 73.06335974 -14.37664325 74.53687563 -14.37789917 76.01039124 C-14.37937613 79.103211 -14.37722195 82.19600194 -14.37255859 85.28881836 C-14.36686628 89.25808735 -14.37013715 93.22728865 -14.37613106 97.19655514 C-14.37974097 100.24109916 -14.37859601 103.28562708 -14.37600327 106.33017159 C-14.37533493 107.79383922 -14.37615917 109.2575083 -14.37848282 110.72117424 C-14.38101578 112.76585742 -14.37647217 114.81054571 -14.37158203 116.85522461 C-14.37078644 118.02025009 -14.36999084 119.18527557 -14.36917114 120.38560486 C-14.42933239 123.08847483 -14.42933239 123.08847483 -13.2421875 125.125 C-14.5621875 125.125 -15.8821875 125.125 -17.2421875 125.125 C-17.2421875 124.465 -17.2421875 123.805 -17.2421875 123.125 C-16.2521875 122.63 -16.2521875 122.63 -15.2421875 122.125 C-15.19536595 114.83909984 -15.16007002 107.55323335 -15.13856316 100.26721191 C-15.12822886 96.88218789 -15.11426521 93.49726851 -15.09130859 90.11230469 C-14.88781013 69.03203923 -14.88781013 69.03203923 -17.2421875 48.125 C-18.10199219 47.78227051 -18.96179688 47.43954102 -19.84765625 47.08642578 C-33.61751863 41.56200331 -33.61751863 41.56200331 -37.2421875 36.125 C-40.30775348 35.39156572 -40.30775348 35.39156572 -43.2421875 35.125 Z " fill="#6D6D70" transform="translate(51.2421875,2.875)"></path><path d="M0 0 C0.27714844 0.57621094 0.55429687 1.15242188 0.83984375 1.74609375 C2.33747789 4.65563886 4.1030142 7.35213768 5.87890625 10.09765625 C9.22440992 15.77452136 8.50985198 22.64480283 8 29 C6.73914522 33.24367694 4.29685064 35.87204398 0.8125 38.5 C-2.24668931 40.763579 -2.24668931 40.763579 -2.88671875 44.203125 C-3.01996435 48.66915008 -1.76738262 51.4722108 0.375 55.25 C8.22123939 69.77780262 8.31627587 92.72124621 4.875 108.875 C3.29421854 113.98157974 1.27725428 117.73309483 -3 121 C-10.68319329 124.51788475 -18.7058679 124.45475127 -27 124.375 C-28.80984375 124.39240234 -28.80984375 124.39240234 -30.65625 124.41015625 C-46.57722562 124.35824003 -46.57722562 124.35824003 -52.82983398 119.6105957 C-60.0648697 112.08110447 -60.47139815 101.90253278 -60.3125 92 C-60.31572266 90.96488281 -60.31894531 89.92976563 -60.32226562 88.86328125 C-60.26765656 81.26765656 -60.26765656 81.26765656 -58 79 C-57.98541748 79.67466309 -57.97083496 80.34932617 -57.95581055 81.04443359 C-57.88050417 84.15514582 -57.78412156 87.26487969 -57.6875 90.375 C-57.66494141 91.43589844 -57.64238281 92.49679688 -57.61914062 93.58984375 C-57.34988787 101.56951621 -56.62611792 109.25977144 -51.9375 115.9375 C-44.82992098 120.92792782 -36.58178404 121.5034368 -28.125 121.375 C-26.68362671 121.3608606 -26.68362671 121.3608606 -25.21313477 121.34643555 C-16.82102454 121.16842324 -8.86979481 120.78625226 -1.875 115.75 C2.01900834 110.03878777 2.35116237 103.82276857 2.4765625 97.12890625 C2.49270599 96.28891586 2.50884949 95.44892548 2.52548218 94.58348083 C2.55302268 92.80939807 2.5745296 91.03521248 2.59033203 89.26098633 C2.61324117 87.47778415 2.65393959 85.69471201 2.71337891 83.91235352 C3.07163329 73.1357014 2.55841018 64.7084465 -3.18588257 55.34559631 C-6.12448442 50.50989572 -6.44114488 47.49795888 -6 42 C-4.63849597 37.96314054 -1.95125805 36.16631704 1.34375 33.66015625 C4.76706979 30.2287626 5.2923405 26.31544371 5.3125 21.625 C5.1904867 16.59534078 4.74636873 13.25244191 2 9 C-0.31852803 7.56251262 -2.36935827 6.84379074 -5 6 C-3.35 4.02 -1.7 2.04 0 0 Z " fill="#66676A" transform="translate(63,32)"></path><path d="M0 0 C0.90105469 0.00902344 1.80210938 0.01804688 2.73046875 0.02734375 C3.41753906 0.03894531 4.10460937 0.05054688 4.8125 0.0625 C2.32866602 2.54633398 1.42120591 2.30413965 -2 2.4375 C-5.34230462 2.73782302 -7.28711964 3.10937983 -10.375 4.5625 C-12.43048694 7.3976544 -12.43998123 8.12797286 -12.1875 11.5 C-11.55569391 15.21722808 -10.45970798 17.99995881 -8.1875 21.0625 C-9.1775 20.7325 -10.1675 20.4025 -11.1875 20.0625 C-12.375 17.5 -12.375 17.5 -13.1875 15.0625 C-14.1775 15.0625 -15.1675 15.0625 -16.1875 15.0625 C-16.166875 16.361875 -16.14625 17.66125 -16.125 19 C-16.10350546 20.35415633 -16.11601801 21.71006083 -16.1875 23.0625 C-16.5175 23.3925 -16.8475 23.7225 -17.1875 24.0625 C-17.2817174 26.17931317 -17.30492761 28.29930758 -17.30102539 30.41821289 C-17.30124443 31.41329613 -17.30124443 31.41329613 -17.3014679 32.42848206 C-17.30076881 34.63073956 -17.29297665 36.83291345 -17.28515625 39.03515625 C-17.28329206 40.55830336 -17.28186816 42.08145107 -17.28086853 43.604599 C-17.27704346 47.62087651 -17.26721328 51.63711808 -17.25616455 55.65338135 C-17.24595019 59.74873366 -17.24137086 63.84409176 -17.23632812 67.93945312 C-17.225591 75.98048528 -17.20851472 84.02148817 -17.1875 92.0625 C-18.5075 92.0625 -19.8275 92.0625 -21.1875 92.0625 C-21.02523926 90.82516113 -20.86297852 89.58782227 -20.69580078 88.31298828 C-20.05955965 82.55651425 -20.04373117 76.84088341 -20.0546875 71.0546875 C-20.05373077 69.92982941 -20.05277405 68.80497131 -20.05178833 67.64602661 C-20.05111117 65.28110701 -20.05293293 62.91618551 -20.05712891 60.55126953 C-20.06249377 56.94168923 -20.05716293 53.33223278 -20.05078125 49.72265625 C-20.05144192 47.41666639 -20.05272284 45.11067661 -20.0546875 42.8046875 C-20.05266327 41.73161346 -20.05063904 40.65853943 -20.04855347 39.552948 C-20.0650124 34.27141973 -20.31159057 29.26941429 -21.1875 24.0625 C-21.25002492 22.08421151 -21.27443365 20.10412549 -21.25 18.125 C-21.24097656 17.16722656 -21.23195312 16.20945312 -21.22265625 15.22265625 C-21.21105469 14.50980469 -21.19945312 13.79695313 -21.1875 13.0625 C-20.3934375 12.96582031 -19.599375 12.86914062 -18.78125 12.76953125 C-17.9253125 12.53621094 -17.069375 12.30289063 -16.1875 12.0625 C-15.14031202 9.74995988 -14.14403635 7.4139852 -13.1875 5.0625 C-8.94188234 1.02916322 -5.77046983 -0.07494117 0 0 Z " fill="#808083" transform="translate(55.1875,35.9375)"></path><path d="M0 0 C0.99 0.33 1.98 0.66 3 1 C3.7858841 29.67872429 3.7858841 29.67872429 -2.875 38.125 C-6.20192809 41.50121591 -9.03574717 42.91269987 -13.8125 43.125 C-14.534375 43.08375 -15.25625 43.0425 -16 43 C-14 40 -14 40 -10.625 38.5625 C-7.04770226 37.02056132 -5.30922655 36.07896873 -3 33 C-0.46943622 26.35379402 -0.5594559 19.60640953 -0.375 12.5625 C-0.33632812 11.35400391 -0.29765625 10.14550781 -0.2578125 8.90039062 C-0.16400542 5.93374183 -0.07830754 2.96709164 0 0 Z " fill="#6E6F72" transform="translate(66,112)"></path><path d="M0 0 C0.99 0 1.98 0 3 0 C1.66109105 4.74704084 -0.41521539 8.71634928 -2.87890625 12.94921875 C-5.27459774 17.33158123 -5.21400916 21.5228416 -5.31640625 26.38671875 C-5.33718735 27.20372757 -5.35796844 28.02073639 -5.37937927 28.86250305 C-5.44473079 31.47075034 -5.50369273 34.07909775 -5.5625 36.6875 C-5.60569892 38.45639054 -5.64931365 40.22527097 -5.69335938 41.99414062 C-5.80039743 46.32932463 -5.90170544 50.66460929 -6 55 C-6.33 55 -6.66 55 -7 55 C-7.33 47.74 -7.66 40.48 -8 33 C-8.33 33 -8.66 33 -9 33 C-9.2564503 20.04925991 -6.57730335 11.13197355 0 0 Z " fill="#6A6A6D" transform="translate(12,80)"></path><path d="M0 0 C1 3 1 3 0 6 C-0.5433474 12.56196479 -0.50248575 18.23784602 3 24 C4.74766999 25.71200325 6.53854461 27.24592571 8.4765625 28.73828125 C10 30 10 30 11 32 C11.039992 33.99960012 11.04346799 36.00047242 11 38 C10.34 38 9.68 38 9 38 C8.649375 36.80375 8.29875 35.6075 7.9375 34.375 C6.68386402 30.94399626 5.43059648 29.28112595 2.5 27.125 C-1.98919474 23.60592785 -3.23540472 19.54738275 -4 14 C-4.1136567 8.33340178 -3.72976064 4.41523017 0 0 Z " fill="#68696C" transform="translate(4,42)"></path><path d="M0 0 C0.66 0 1.32 0 2 0 C2.61875 0.721875 3.2375 1.44375 3.875 2.1875 C7.85942053 6.42624524 13.67395463 8.0037948 19 10 C19 10.66 19 11.32 19 12 C11.94729943 10.58945989 5.18558061 8.18558061 0 3 C0 2.01 0 1.02 0 0 Z " fill="#747578" transform="translate(15,39)"></path><path d="M0 0 C0.99 0.33 1.98 0.66 3 1 C3.16961386 3.04142394 3.33555596 5.08315311 3.5 7.125 C3.5928125 8.26195313 3.685625 9.39890625 3.78125 10.5703125 C3.9825221 13.72597149 4.03842904 16.83921165 4 20 C3.01 20.33 2.02 20.66 1 21 C1.01740234 19.7315625 1.01740234 19.7315625 1.03515625 18.4375 C1.08489687 12.18439382 0.96940246 6.17994069 0 0 Z " fill="#8E8F91" transform="translate(34,59)"></path><path d="M0 0 C0.639375 0.433125 1.27875 0.86625 1.9375 1.3125 C1.9375 1.6425 1.9375 1.9725 1.9375 2.3125 C1.36902344 2.49425781 0.80054688 2.67601562 0.21484375 2.86328125 C-4.66951003 4.45334634 -9.37279027 6.21709778 -14.0625 8.3125 C-12.25426934 3.80642788 -9.48864279 2.36010238 -5.328125 0.15234375 C-3.0625 -0.6875 -3.0625 -0.6875 0 0 Z " fill="#717274" transform="translate(28.0625,1.6875)"></path><path d="M0 0 C0.33 0.99 0.66 1.98 1 3 C-1.88800508 6.99224232 -4.94441828 10.15013177 -9 13 C-9.66 13 -10.32 13 -11 13 C-10.43990974 9.49565146 -9.38428252 8.12047667 -6.625 5.9375 C-4.28125058 4.05751376 -2.09045486 2.16099168 0 0 Z " fill="#6F7072" transform="translate(69,61)"></path><path d="M0 0 C0.33 0 0.66 0 1 0 C1 10.23 1 20.46 1 31 C0.67 31 0.34 31 0 31 C-0.33 23.74 -0.66 16.48 -1 9 C-1.33 9 -1.66 9 -2 9 C-2.20140476 5.37471432 -1.85776765 3.13498292 0 0 Z " fill="#848587" transform="translate(5,104)"></path><path d="M0 0 C2.97 0 5.94 0 9 0 C9 2 9 2 7.75 3.6875 C6 5 6 5 3.9375 4.9375 C2 4 2 4 0 0 Z " fill="#7A7B7E" transform="translate(32,39)"></path><path d="M0 0 C0.66 0 1.32 0 2 0 C2.33 2.97 2.66 5.94 3 9 C1.68 9 0.36 9 -1 9 C-0.67 6.03 -0.34 3.06 0 0 Z " fill="#7A7A7D" transform="translate(35,119)"></path><path d="M0 0 C0 0.33 0 0.66 0 1 C-2.64 1.66 -5.28 2.32 -8 3 C-8.33 2.34 -8.66 1.68 -9 1 C-6.80036907 -3.39926185 -3.61934676 -1.66294311 0 0 Z " fill="#7B7B7D" transform="translate(30,3)"></path></svg>