<svg xmlns="http://www.w3.org/2000/svg" width="449" height="389"><path d="M0 0 C1.04056801 -0.00143509 1.04056801 -0.00143509 2.10215759 -0.00289917 C3.56200247 -0.00357688 5.02185043 -0.00175122 6.48168945 0.00244141 C8.7111692 0.00780366 10.94044827 0.00247841 13.16992188 -0.00390625 C14.59244836 -0.00324555 16.01497472 -0.00196457 17.4375 0 C19.36928101 0.00169189 19.36928101 0.00169189 21.34008789 0.00341797 C23.99958278 0.10731214 26.13609238 0.33411585 28.65234375 1.1328125 C28.65234375 1.7928125 28.65234375 2.4528125 28.65234375 3.1328125 C31.29234375 3.4628125 33.93234375 3.7928125 36.65234375 4.1328125 C36.65234375 4.7928125 36.65234375 5.4528125 36.65234375 6.1328125 C37.64234375 6.1328125 38.63234375 6.1328125 39.65234375 6.1328125 C39.65234375 6.7928125 39.65234375 7.4528125 39.65234375 8.1328125 C42.62234375 8.6278125 42.62234375 8.6278125 45.65234375 9.1328125 C45.65234375 9.7928125 45.65234375 10.4528125 45.65234375 11.1328125 C46.82796875 11.596875 46.82796875 11.596875 48.02734375 12.0703125 C50.65234375 13.1328125 50.65234375 13.1328125 52.65234375 14.1328125 C52.65234375 14.7928125 52.65234375 15.4528125 52.65234375 16.1328125 C53.23628906 16.21917969 53.82023437 16.30554688 54.421875 16.39453125 C57.26992662 17.33723135 58.40046903 18.67780062 60.33984375 20.9453125 C61.24283203 21.97591797 61.24283203 21.97591797 62.1640625 23.02734375 C63.65897395 25.14219223 64.07475536 26.65512024 64.65234375 29.1328125 C65.64234375 29.5659375 65.64234375 29.5659375 66.65234375 30.0078125 C67.64234375 30.5646875 67.64234375 30.5646875 68.65234375 31.1328125 C69.40234375 34.2578125 69.40234375 34.2578125 69.65234375 37.1328125 C70.31234375 37.1328125 70.97234375 37.1328125 71.65234375 37.1328125 C73.80540332 40.99037757 75.04487629 43.68411035 74.65234375 48.1328125 C75.31234375 48.1328125 75.97234375 48.1328125 76.65234375 48.1328125 C77.50532751 51.80668745 77.76023846 55.1775518 77.71484375 58.9453125 C77.70582031 59.92113281 77.69679687 60.89695313 77.6875 61.90234375 C77.67009766 63.00642578 77.67009766 63.00642578 77.65234375 64.1328125 C78.31234375 64.1328125 78.97234375 64.1328125 79.65234375 64.1328125 C79.67920928 66.11190648 79.6986775 68.09110221 79.71484375 70.0703125 C79.72644531 71.17246094 79.73804688 72.27460938 79.75 73.41015625 C79.65234375 76.1328125 79.65234375 76.1328125 78.65234375 77.1328125 C78.25291199 79.65477217 77.90154527 82.16244906 77.58984375 84.6953125 C77.45352539 85.76168945 77.45352539 85.76168945 77.31445312 86.84960938 C77.08994872 88.61019653 76.87065978 90.37144728 76.65234375 92.1328125 C76.98234375 92.1328125 77.31234375 92.1328125 77.65234375 92.1328125 C79.65234375 92.1328125 81.65234375 92.1328125 83.65234375 92.1328125 C83.65234375 91.4728125 83.65234375 90.8128125 83.65234375 90.1328125 C93.22234375 90.1328125 102.79234375 90.1328125 112.65234375 90.1328125 C112.65234375 90.7928125 112.65234375 91.4528125 112.65234375 92.1328125 C113.45671875 92.0709375 114.26109375 92.0090625 115.08984375 91.9453125 C119.62883108 92.18420657 123.42135976 93.55324514 127.65234375 95.1328125 C127.65234375 95.7928125 127.65234375 96.4528125 127.65234375 97.1328125 C130.62234375 97.6278125 130.62234375 97.6278125 133.65234375 98.1328125 C133.65234375 98.7928125 133.65234375 99.4528125 133.65234375 100.1328125 C134.64234375 100.1328125 135.63234375 100.1328125 136.65234375 100.1328125 C136.65234375 100.7928125 136.65234375 101.4528125 136.65234375 102.1328125 C137.97234375 102.4628125 139.29234375 102.7928125 140.65234375 103.1328125 C140.65234375 103.7928125 140.65234375 104.4528125 140.65234375 105.1328125 C141.37421875 105.3803125 142.09609375 105.6278125 142.83984375 105.8828125 C145.92840957 107.25550842 148.16245793 108.85634546 150.65234375 111.1328125 C150.65234375 111.7928125 150.65234375 112.4528125 150.65234375 113.1328125 C151.31234375 113.1328125 151.97234375 113.1328125 152.65234375 113.1328125 C152.65234375 114.1228125 152.65234375 115.1128125 152.65234375 116.1328125 C153.31234375 116.1328125 153.97234375 116.1328125 154.65234375 116.1328125 C155.62890625 117.92317708 156.60546875 119.71354167 157.58203125 121.50390625 C158.56644399 123.29899565 158.56644399 123.29899565 160.65234375 124.1328125 C160.65234375 125.4528125 160.65234375 126.7728125 160.65234375 128.1328125 C161.31234375 128.1328125 161.97234375 128.1328125 162.65234375 128.1328125 C162.98234375 130.1128125 163.31234375 132.0928125 163.65234375 134.1328125 C164.31234375 134.1328125 164.97234375 134.1328125 165.65234375 134.1328125 C165.78511719 134.84308594 165.91789063 135.55335938 166.0546875 136.28515625 C166.31958984 137.66380859 166.31958984 137.66380859 166.58984375 139.0703125 C166.76386719 139.98683594 166.93789063 140.90335938 167.1171875 141.84765625 C167.42949363 144.08571094 167.42949363 144.08571094 168.65234375 145.1328125 C170.65090583 157.12418496 171.11643982 171.69356631 166.65234375 183.1328125 C166.30257617 184.46192932 165.96138358 185.79363989 165.65234375 187.1328125 C164.99234375 187.1328125 164.33234375 187.1328125 163.65234375 187.1328125 C163.32234375 189.4428125 162.99234375 191.7528125 162.65234375 194.1328125 C161.99234375 194.1328125 161.33234375 194.1328125 160.65234375 194.1328125 C160.65234375 195.1228125 160.65234375 196.1128125 160.65234375 197.1328125 C159.99234375 197.1328125 159.33234375 197.1328125 158.65234375 197.1328125 C158.32234375 198.7828125 157.99234375 200.4328125 157.65234375 202.1328125 C156.99234375 202.1328125 156.33234375 202.1328125 155.65234375 202.1328125 C155.38421875 202.8959375 155.11609375 203.6590625 154.83984375 204.4453125 C153.7009987 207.02269868 152.83817704 208.40236114 150.65234375 210.1328125 C149.99234375 210.1328125 149.33234375 210.1328125 148.65234375 210.1328125 C148.32234375 211.1228125 147.99234375 212.1128125 147.65234375 213.1328125 C146.99234375 213.1328125 146.33234375 213.1328125 145.65234375 213.1328125 C145.65234375 213.7928125 145.65234375 214.4528125 145.65234375 215.1328125 C144.99234375 215.1328125 144.33234375 215.1328125 143.65234375 215.1328125 C143.65234375 215.7928125 143.65234375 216.4528125 143.65234375 217.1328125 C142.33234375 217.4628125 141.01234375 217.7928125 139.65234375 218.1328125 C139.65234375 218.7928125 139.65234375 219.4528125 139.65234375 220.1328125 C138.00234375 220.4628125 136.35234375 220.7928125 134.65234375 221.1328125 C134.65234375 221.7928125 134.65234375 222.4528125 134.65234375 223.1328125 C133.66234375 223.1328125 132.67234375 223.1328125 131.65234375 223.1328125 C131.65234375 223.7928125 131.65234375 224.4528125 131.65234375 225.1328125 C129.34234375 225.4628125 127.03234375 225.7928125 124.65234375 226.1328125 C124.65234375 226.7928125 124.65234375 227.4528125 124.65234375 228.1328125 C123.00234375 228.1328125 121.35234375 228.1328125 119.65234375 228.1328125 C119.65234375 228.7928125 119.65234375 229.4528125 119.65234375 230.1328125 C108.60910446 231.76393157 97.85997289 232.41939612 86.70532227 232.37573242 C85.07898889 232.37680878 83.4526559 232.37875268 81.82632446 232.38148499 C77.4657346 232.38627431 73.10524928 232.378757 68.74467206 232.36853194 C64.16612213 232.35967208 59.5875747 232.36151028 55.00901794 232.3618927 C47.34087395 232.36096084 39.67276992 232.35233424 32.00463867 232.33862305 C23.1327091 232.32281834 14.26082294 232.31762808 5.38888031 232.3183586 C-4.07298247 232.31903247 -13.53482849 232.31211008 -22.99668622 232.302912 C-25.72233916 232.30077844 -28.44798941 232.30007057 -31.17364311 232.29967308 C-35.43944653 232.29867259 -39.70521318 232.29260034 -43.97100449 232.28250694 C-45.53961398 232.27957507 -47.1082277 232.27835795 -48.67683983 232.27893448 C-50.80827614 232.27942167 -52.93960786 232.27380475 -55.07102966 232.26652527 C-56.26609351 232.26484942 -57.46115736 232.26317358 -58.69243526 232.26144695 C-61.34765625 232.1328125 -61.34765625 232.1328125 -62.34765625 231.1328125 C-62.44910626 228.89572559 -62.47843823 226.65536925 -62.48136902 224.41598511 C-62.48363458 223.70544798 -62.48590013 222.99491085 -62.48823434 222.2628423 C-62.49460266 219.86385135 -62.49374316 217.46491648 -62.49291992 215.06591797 C-62.49590978 213.35301133 -62.4993119 211.64010538 -62.50309753 209.92720032 C-62.51196257 205.25957943 -62.51427678 200.59197685 -62.51491332 195.92434835 C-62.51586095 192.03044665 -62.51953784 188.13654925 -62.52308542 184.2426492 C-62.53124061 175.05303997 -62.5336688 165.86344055 -62.53295898 156.67382812 C-62.53235892 147.19394936 -62.54289407 137.71412764 -62.55870265 128.2342633 C-62.57178403 120.10001574 -62.57714258 111.96578679 -62.57650357 103.83152878 C-62.57624863 98.97154688 -62.5790977 94.11161557 -62.58968163 89.25164413 C-62.59937184 84.67657282 -62.59943542 80.10160032 -62.59216499 75.5265255 C-62.59112008 73.84917875 -62.59347651 72.17182583 -62.59952545 70.49448967 C-62.60726211 68.20005808 -62.60258953 65.90596621 -62.59489441 63.61154175 C-62.59543918 62.32878294 -62.59598394 61.04602413 -62.59654522 59.72439384 C-62.3344418 55.94212191 -61.50105698 52.73498618 -60.34765625 49.1328125 C-59.95591471 47.49088347 -59.57807792 45.84548455 -59.22265625 44.1953125 C-59.05507812 43.42316406 -58.8875 42.65101563 -58.71484375 41.85546875 C-58.59367187 41.28699219 -58.4725 40.71851563 -58.34765625 40.1328125 C-57.68765625 40.1328125 -57.02765625 40.1328125 -56.34765625 40.1328125 C-56.34765625 39.1428125 -56.34765625 38.1528125 -56.34765625 37.1328125 C-55.68765625 37.1328125 -55.02765625 37.1328125 -54.34765625 37.1328125 C-54.22390625 36.3696875 -54.10015625 35.6065625 -53.97265625 34.8203125 C-53.34765625 32.1328125 -53.34765625 32.1328125 -51.34765625 29.1328125 C-50.68765625 29.1328125 -50.02765625 29.1328125 -49.34765625 29.1328125 C-49.01765625 27.8128125 -48.68765625 26.4928125 -48.34765625 25.1328125 C-47.68765625 25.1328125 -47.02765625 25.1328125 -46.34765625 25.1328125 C-46.34765625 24.1428125 -46.34765625 23.1528125 -46.34765625 22.1328125 C-43.01432292 19.1328125 -43.01432292 19.1328125 -40.34765625 19.1328125 C-40.34765625 18.4728125 -40.34765625 17.8128125 -40.34765625 17.1328125 C-34.93589154 13.1328125 -34.93589154 13.1328125 -32.34765625 13.1328125 C-32.34765625 12.4728125 -32.34765625 11.8128125 -32.34765625 11.1328125 C-31.35765625 11.1328125 -30.36765625 11.1328125 -29.34765625 11.1328125 C-29.34765625 10.4728125 -29.34765625 9.8128125 -29.34765625 9.1328125 C-23.72265625 6.1328125 -23.72265625 6.1328125 -20.34765625 6.1328125 C-20.34765625 5.4728125 -20.34765625 4.8128125 -20.34765625 4.1328125 C-17.70765625 3.8028125 -15.06765625 3.4728125 -12.34765625 3.1328125 C-12.34765625 2.4728125 -12.34765625 1.8128125 -12.34765625 1.1328125 C-8.18552253 0.1299967 -4.27476143 0.00374065 0 0 Z " fill="#FEFEFE" transform="translate(171.34765625,106.8671875)"></path><path d="M0 0 C1.04056801 -0.00143509 1.04056801 -0.00143509 2.10215759 -0.00289917 C3.56200247 -0.00357688 5.02185043 -0.00175122 6.48168945 0.00244141 C8.7111692 0.00780366 10.94044827 0.00247841 13.16992188 -0.00390625 C14.59244836 -0.00324555 16.01497472 -0.00196457 17.4375 0 C19.36928101 0.00169189 19.36928101 0.00169189 21.34008789 0.00341797 C23.99958278 0.10731214 26.13609238 0.33411585 28.65234375 1.1328125 C28.65234375 1.7928125 28.65234375 2.4528125 28.65234375 3.1328125 C31.29234375 3.4628125 33.93234375 3.7928125 36.65234375 4.1328125 C36.65234375 4.7928125 36.65234375 5.4528125 36.65234375 6.1328125 C37.64234375 6.1328125 38.63234375 6.1328125 39.65234375 6.1328125 C39.65234375 6.7928125 39.65234375 7.4528125 39.65234375 8.1328125 C42.62234375 8.6278125 42.62234375 8.6278125 45.65234375 9.1328125 C45.65234375 9.7928125 45.65234375 10.4528125 45.65234375 11.1328125 C46.82796875 11.596875 46.82796875 11.596875 48.02734375 12.0703125 C50.65234375 13.1328125 50.65234375 13.1328125 52.65234375 14.1328125 C52.65234375 14.7928125 52.65234375 15.4528125 52.65234375 16.1328125 C53.23628906 16.21917969 53.82023437 16.30554688 54.421875 16.39453125 C57.26992662 17.33723135 58.40046903 18.67780062 60.33984375 20.9453125 C61.24283203 21.97591797 61.24283203 21.97591797 62.1640625 23.02734375 C63.65897395 25.14219223 64.07475536 26.65512024 64.65234375 29.1328125 C65.64234375 29.5659375 65.64234375 29.5659375 66.65234375 30.0078125 C67.64234375 30.5646875 67.64234375 30.5646875 68.65234375 31.1328125 C69.40234375 34.2578125 69.40234375 34.2578125 69.65234375 37.1328125 C70.31234375 37.1328125 70.97234375 37.1328125 71.65234375 37.1328125 C73.80540332 40.99037757 75.04487629 43.68411035 74.65234375 48.1328125 C75.31234375 48.1328125 75.97234375 48.1328125 76.65234375 48.1328125 C77.50532751 51.80668745 77.76023846 55.1775518 77.71484375 58.9453125 C77.70582031 59.92113281 77.69679687 60.89695313 77.6875 61.90234375 C77.67009766 63.00642578 77.67009766 63.00642578 77.65234375 64.1328125 C78.31234375 64.1328125 78.97234375 64.1328125 79.65234375 64.1328125 C79.67920928 66.11190648 79.6986775 68.09110221 79.71484375 70.0703125 C79.72644531 71.17246094 79.73804688 72.27460938 79.75 73.41015625 C79.65234375 76.1328125 79.65234375 76.1328125 78.65234375 77.1328125 C78.25291199 79.65477217 77.90154527 82.16244906 77.58984375 84.6953125 C77.45352539 85.76168945 77.45352539 85.76168945 77.31445312 86.84960938 C77.08994872 88.61019653 76.87065978 90.37144728 76.65234375 92.1328125 C76.98234375 92.1328125 77.31234375 92.1328125 77.65234375 92.1328125 C79.65234375 92.1328125 81.65234375 92.1328125 83.65234375 92.1328125 C83.65234375 91.4728125 83.65234375 90.8128125 83.65234375 90.1328125 C93.22234375 90.1328125 102.79234375 90.1328125 112.65234375 90.1328125 C112.65234375 90.7928125 112.65234375 91.4528125 112.65234375 92.1328125 C113.45671875 92.0709375 114.26109375 92.0090625 115.08984375 91.9453125 C119.62883108 92.18420657 123.42135976 93.55324514 127.65234375 95.1328125 C127.65234375 95.7928125 127.65234375 96.4528125 127.65234375 97.1328125 C130.62234375 97.6278125 130.62234375 97.6278125 133.65234375 98.1328125 C133.65234375 98.7928125 133.65234375 99.4528125 133.65234375 100.1328125 C134.64234375 100.1328125 135.63234375 100.1328125 136.65234375 100.1328125 C136.65234375 100.7928125 136.65234375 101.4528125 136.65234375 102.1328125 C137.97234375 102.4628125 139.29234375 102.7928125 140.65234375 103.1328125 C140.65234375 103.7928125 140.65234375 104.4528125 140.65234375 105.1328125 C141.37421875 105.3803125 142.09609375 105.6278125 142.83984375 105.8828125 C145.92840957 107.25550842 148.16245793 108.85634546 150.65234375 111.1328125 C150.65234375 111.7928125 150.65234375 112.4528125 150.65234375 113.1328125 C151.31234375 113.1328125 151.97234375 113.1328125 152.65234375 113.1328125 C152.65234375 114.1228125 152.65234375 115.1128125 152.65234375 116.1328125 C153.31234375 116.1328125 153.97234375 116.1328125 154.65234375 116.1328125 C155.62890625 117.92317708 156.60546875 119.71354167 157.58203125 121.50390625 C158.56644399 123.29899565 158.56644399 123.29899565 160.65234375 124.1328125 C160.65234375 125.4528125 160.65234375 126.7728125 160.65234375 128.1328125 C161.31234375 128.1328125 161.97234375 128.1328125 162.65234375 128.1328125 C162.98234375 130.1128125 163.31234375 132.0928125 163.65234375 134.1328125 C164.31234375 134.1328125 164.97234375 134.1328125 165.65234375 134.1328125 C165.78511719 134.84308594 165.91789063 135.55335938 166.0546875 136.28515625 C166.31958984 137.66380859 166.31958984 137.66380859 166.58984375 139.0703125 C166.76386719 139.98683594 166.93789063 140.90335938 167.1171875 141.84765625 C167.42949363 144.08571094 167.42949363 144.08571094 168.65234375 145.1328125 C170.65090583 157.12418496 171.11643982 171.69356631 166.65234375 183.1328125 C166.30257617 184.46192932 165.96138358 185.79363989 165.65234375 187.1328125 C164.99234375 187.1328125 164.33234375 187.1328125 163.65234375 187.1328125 C163.32234375 189.4428125 162.99234375 191.7528125 162.65234375 194.1328125 C161.99234375 194.1328125 161.33234375 194.1328125 160.65234375 194.1328125 C160.65234375 195.1228125 160.65234375 196.1128125 160.65234375 197.1328125 C159.99234375 197.1328125 159.33234375 197.1328125 158.65234375 197.1328125 C158.32234375 198.7828125 157.99234375 200.4328125 157.65234375 202.1328125 C156.99234375 202.1328125 156.33234375 202.1328125 155.65234375 202.1328125 C155.38421875 202.8959375 155.11609375 203.6590625 154.83984375 204.4453125 C153.7009987 207.02269868 152.83817704 208.40236114 150.65234375 210.1328125 C149.99234375 210.1328125 149.33234375 210.1328125 148.65234375 210.1328125 C148.32234375 211.1228125 147.99234375 212.1128125 147.65234375 213.1328125 C146.99234375 213.1328125 146.33234375 213.1328125 145.65234375 213.1328125 C145.65234375 213.7928125 145.65234375 214.4528125 145.65234375 215.1328125 C144.99234375 215.1328125 144.33234375 215.1328125 143.65234375 215.1328125 C143.65234375 215.7928125 143.65234375 216.4528125 143.65234375 217.1328125 C142.33234375 217.4628125 141.01234375 217.7928125 139.65234375 218.1328125 C139.65234375 218.7928125 139.65234375 219.4528125 139.65234375 220.1328125 C138.00234375 220.4628125 136.35234375 220.7928125 134.65234375 221.1328125 C134.65234375 221.7928125 134.65234375 222.4528125 134.65234375 223.1328125 C133.66234375 223.1328125 132.67234375 223.1328125 131.65234375 223.1328125 C131.65234375 223.7928125 131.65234375 224.4528125 131.65234375 225.1328125 C129.34234375 225.4628125 127.03234375 225.7928125 124.65234375 226.1328125 C124.65234375 226.7928125 124.65234375 227.4528125 124.65234375 228.1328125 C123.00234375 228.1328125 121.35234375 228.1328125 119.65234375 228.1328125 C119.65234375 228.7928125 119.65234375 229.4528125 119.65234375 230.1328125 C108.60910446 231.76393157 97.85997289 232.41939612 86.70532227 232.37573242 C85.07898889 232.37680878 83.4526559 232.37875268 81.82632446 232.38148499 C77.4657346 232.38627431 73.10524928 232.378757 68.74467206 232.36853194 C64.16612213 232.35967208 59.5875747 232.36151028 55.00901794 232.3618927 C47.34087395 232.36096084 39.67276992 232.35233424 32.00463867 232.33862305 C23.1327091 232.32281834 14.26082294 232.31762808 5.38888031 232.3183586 C-4.07298247 232.31903247 -13.53482849 232.31211008 -22.99668622 232.302912 C-25.72233916 232.30077844 -28.44798941 232.30007057 -31.17364311 232.29967308 C-35.43944653 232.29867259 -39.70521318 232.29260034 -43.97100449 232.28250694 C-45.53961398 232.27957507 -47.1082277 232.27835795 -48.67683983 232.27893448 C-50.80827614 232.27942167 -52.93960786 232.27380475 -55.07102966 232.26652527 C-56.26609351 232.26484942 -57.46115736 232.26317358 -58.69243526 232.26144695 C-61.34765625 232.1328125 -61.34765625 232.1328125 -62.34765625 231.1328125 C-62.44910626 228.89572559 -62.47843823 226.65536925 -62.48136902 224.41598511 C-62.48363458 223.70544798 -62.48590013 222.99491085 -62.48823434 222.2628423 C-62.49460266 219.86385135 -62.49374316 217.46491648 -62.49291992 215.06591797 C-62.49590978 213.35301133 -62.4993119 211.64010538 -62.50309753 209.92720032 C-62.51196257 205.25957943 -62.51427678 200.59197685 -62.51491332 195.92434835 C-62.51586095 192.03044665 -62.51953784 188.13654925 -62.52308542 184.2426492 C-62.53124061 175.05303997 -62.5336688 165.86344055 -62.53295898 156.67382812 C-62.53235892 147.19394936 -62.54289407 137.71412764 -62.55870265 128.2342633 C-62.57178403 120.10001574 -62.57714258 111.96578679 -62.57650357 103.83152878 C-62.57624863 98.97154688 -62.5790977 94.11161557 -62.58968163 89.25164413 C-62.59937184 84.67657282 -62.59943542 80.10160032 -62.59216499 75.5265255 C-62.59112008 73.84917875 -62.59347651 72.17182583 -62.59952545 70.49448967 C-62.60726211 68.20005808 -62.60258953 65.90596621 -62.59489441 63.61154175 C-62.59543918 62.32878294 -62.59598394 61.04602413 -62.59654522 59.72439384 C-62.3344418 55.94212191 -61.50105698 52.73498618 -60.34765625 49.1328125 C-59.95591471 47.49088347 -59.57807792 45.84548455 -59.22265625 44.1953125 C-59.05507812 43.42316406 -58.8875 42.65101563 -58.71484375 41.85546875 C-58.59367187 41.28699219 -58.4725 40.71851563 -58.34765625 40.1328125 C-57.68765625 40.1328125 -57.02765625 40.1328125 -56.34765625 40.1328125 C-56.34765625 39.1428125 -56.34765625 38.1528125 -56.34765625 37.1328125 C-55.68765625 37.1328125 -55.02765625 37.1328125 -54.34765625 37.1328125 C-54.22390625 36.3696875 -54.10015625 35.6065625 -53.97265625 34.8203125 C-53.34765625 32.1328125 -53.34765625 32.1328125 -51.34765625 29.1328125 C-50.68765625 29.1328125 -50.02765625 29.1328125 -49.34765625 29.1328125 C-49.01765625 27.8128125 -48.68765625 26.4928125 -48.34765625 25.1328125 C-47.68765625 25.1328125 -47.02765625 25.1328125 -46.34765625 25.1328125 C-46.34765625 24.1428125 -46.34765625 23.1528125 -46.34765625 22.1328125 C-43.01432292 19.1328125 -43.01432292 19.1328125 -40.34765625 19.1328125 C-40.34765625 18.4728125 -40.34765625 17.8128125 -40.34765625 17.1328125 C-34.93589154 13.1328125 -34.93589154 13.1328125 -32.34765625 13.1328125 C-32.34765625 12.4728125 -32.34765625 11.8128125 -32.34765625 11.1328125 C-31.35765625 11.1328125 -30.36765625 11.1328125 -29.34765625 11.1328125 C-29.34765625 10.4728125 -29.34765625 9.8128125 -29.34765625 9.1328125 C-23.72265625 6.1328125 -23.72265625 6.1328125 -20.34765625 6.1328125 C-20.34765625 5.4728125 -20.34765625 4.8128125 -20.34765625 4.1328125 C-17.70765625 3.8028125 -15.06765625 3.4728125 -12.34765625 3.1328125 C-12.34765625 2.4728125 -12.34765625 1.8128125 -12.34765625 1.1328125 C-8.18552253 0.1299967 -4.27476143 0.00374065 0 0 Z M-17.34765625 17.1328125 C-18.32025391 17.49632812 -18.32025391 17.49632812 -19.3125 17.8671875 C-25.98001603 20.75780794 -31.39461578 25.90662642 -36.34765625 31.1328125 C-36.34765625 31.7928125 -36.34765625 32.4528125 -36.34765625 33.1328125 C-37.00765625 33.1328125 -37.66765625 33.1328125 -38.34765625 33.1328125 C-39.79188807 35.10659598 -41.08213913 37.04816065 -42.34765625 39.1328125 C-43.36859375 40.8034375 -43.36859375 40.8034375 -44.41015625 42.5078125 C-48.97103866 50.65994091 -50.46372304 58.53102219 -50.48809814 67.88349915 C-50.49380829 69.20283951 -50.49951843 70.52217987 -50.50540161 71.88150024 C-50.50664662 73.32635489 -50.50777179 74.77120963 -50.50878906 76.21606445 C-50.51342254 77.7507794 -50.5184479 79.2854932 -50.52383423 80.82020569 C-50.53689863 84.97268517 -50.54339005 89.12514855 -50.54784489 93.27764535 C-50.55078181 95.87158883 -50.55488751 98.46552795 -50.55934906 101.05946922 C-50.57300062 109.175276 -50.58268194 117.29107276 -50.58655095 125.40689021 C-50.59104334 134.77789728 -50.60865546 144.14875933 -50.63755155 153.51972228 C-50.65912425 160.76654687 -50.66925266 168.01333048 -50.67059207 175.26018685 C-50.67164214 179.58842983 -50.67759406 183.91653604 -50.69541168 188.24474525 C-50.71181893 192.30857856 -50.71408402 196.37217112 -50.70527267 200.43602562 C-50.70449866 201.93003863 -50.70889259 203.42406423 -50.71873093 204.91804504 C-50.73133826 206.95100598 -50.72382317 208.98406255 -50.71514893 211.01704407 C-50.71661549 212.1565064 -50.71808205 213.29596872 -50.71959305 214.46996021 C-50.5968539 215.34870147 -50.47411476 216.22744272 -50.34765625 217.1328125 C-46.808188 219.492458 -45.34996958 219.38207263 -41.15632629 219.38005066 C-39.8595697 219.38424515 -38.56281311 219.38843964 -37.22676086 219.39276123 C-35.78634569 219.38727747 -34.34593126 219.38159448 -32.90551758 219.37573242 C-31.3909802 219.37680521 -29.87644323 219.37874384 -28.36190796 219.38148499 C-24.24387079 219.38633908 -20.12594174 219.37866894 -16.00791764 219.36853194 C-11.69682325 219.35975219 -7.38573225 219.36150893 -3.07463074 219.3618927 C4.17104908 219.36095548 11.41668707 219.35226669 18.66235352 219.33862305 C27.02888806 219.32292656 35.39537671 219.31762392 43.76192492 219.3183586 C52.67538664 219.31903552 61.58883075 219.31208257 70.50228715 219.302912 C73.06580247 219.30078499 75.62931492 219.30007138 78.19283104 219.29967308 C82.23195052 219.29866438 86.27103184 219.29252483 90.3101387 219.28250694 C91.78871871 219.27959927 93.2673031 219.27835304 94.74588585 219.27893448 C107.85049462 219.77158339 107.85049462 219.77158339 120.15234375 216.0703125 C120.82265625 215.70808594 121.49296875 215.34585938 122.18359375 214.97265625 C122.66828125 214.69550781 123.15296875 214.41835938 123.65234375 214.1328125 C123.65234375 213.4728125 123.65234375 212.8128125 123.65234375 212.1328125 C124.35746094 212.04902344 125.06257812 211.96523438 125.7890625 211.87890625 C129.3229519 210.95807013 131.53642587 209.36320419 134.46484375 207.1953125 C135.44066406 206.48503906 136.41648437 205.77476562 137.421875 205.04296875 C138.15792969 204.41261719 138.89398438 203.78226563 139.65234375 203.1328125 C139.65234375 202.4728125 139.65234375 201.8128125 139.65234375 201.1328125 C140.31234375 201.1328125 140.97234375 201.1328125 141.65234375 201.1328125 C143.0337171 199.45815394 144.33381091 197.71592118 145.58984375 195.9453125 C146.27949219 194.98238281 146.96914063 194.01945313 147.6796875 193.02734375 C156.72580577 179.75373259 158.59837455 164.41930053 155.90234375 148.7578125 C154.69669054 143.67867771 152.80405181 138.88035342 150.65234375 134.1328125 C149.99878906 132.67681641 149.99878906 132.67681641 149.33203125 131.19140625 C147.47323222 127.8066629 145.33818134 125.27378325 142.71484375 122.4453125 C141.86019531 121.51332031 141.00554687 120.58132812 140.125 119.62109375 C138.04857477 117.53154735 136.12206062 115.72772685 133.65234375 114.1328125 C132.99234375 114.1328125 132.33234375 114.1328125 131.65234375 114.1328125 C131.65234375 113.4728125 131.65234375 112.8128125 131.65234375 112.1328125 C129.13755544 110.80749189 126.61652388 109.49761019 124.08984375 108.1953125 C123.38537109 107.82212891 122.68089844 107.44894531 121.95507812 107.06445312 C114.13215621 103.06286634 106.72609341 102.97134698 98.08984375 103.0078125 C97.17009766 103.00394531 96.25035156 103.00007813 95.30273438 102.99609375 C90.63904624 103.00279927 86.23904647 103.1712076 81.65234375 104.1328125 C81.65234375 104.7928125 81.65234375 105.4528125 81.65234375 106.1328125 C80.92917969 106.26042969 80.20601562 106.38804687 79.4609375 106.51953125 C72.66566573 108.00333885 66.11882431 110.81716995 60.65234375 115.1328125 C60.65234375 115.7928125 60.65234375 116.4528125 60.65234375 117.1328125 C58.67234375 117.4628125 56.69234375 117.7928125 54.65234375 118.1328125 C54.32234375 117.1428125 53.99234375 116.1528125 53.65234375 115.1328125 C52.16734375 114.1428125 52.16734375 114.1428125 50.65234375 113.1328125 C50.65234375 110.1328125 50.65234375 110.1328125 52.33984375 108.3828125 C53.10296875 107.6403125 53.86609375 106.8978125 54.65234375 106.1328125 C58.27104948 101.76068539 60.69120702 97.18638083 62.85546875 91.953125 C63.65234375 90.1328125 63.65234375 90.1328125 64.65234375 89.1328125 C65.57714821 83.30195318 65.83508459 77.59191766 65.83984375 71.6953125 C65.85208984 70.90060547 65.86433594 70.10589844 65.87695312 69.28710938 C65.9054903 57.59638178 62.84846281 43.50596353 54.46484375 34.8828125 C53.86671875 34.3053125 53.26859375 33.7278125 52.65234375 33.1328125 C52.15734375 31.6478125 52.15734375 31.6478125 51.65234375 30.1328125 C44.71733153 23.18456552 36.84492328 18.46251105 27.65234375 15.1328125 C26.66234375 15.1328125 25.67234375 15.1328125 24.65234375 15.1328125 C24.65234375 14.4728125 24.65234375 13.8128125 24.65234375 13.1328125 C20.46485856 13.10361107 16.27739984 13.08594604 12.08984375 13.0703125 C10.90841797 13.06193359 9.72699219 13.05355469 8.50976562 13.04492188 C-0.82001804 13.01878803 -8.60346546 13.78720907 -17.34765625 17.1328125 Z " fill="#6F7073" transform="translate(171.34765625,106.8671875)"></path><path d="M0 0 C2.35448165 2.55068845 2.98327924 3.71017358 3.1875 7.25 C3.125625 8.1575 3.06375 9.065 3 10 C3.66 10 4.32 10 5 10 C5 18.58 5 27.16 5 36 C4.34 36 3.68 36 3 36 C3 37.65 3 39.3 3 41 C2.01 41.495 2.01 41.495 1 42 C1.144375 41.3915625 1.28875 40.783125 1.4375 40.15625 C3.91839538 28.44091073 3.94232776 16.61897314 1 5 C0.65944313 3.33479434 0.32433783 1.66844055 0 0 Z " fill="#939396" transform="translate(324,246)"></path><path d="M0 0 C0.92232422 0.00902344 1.84464844 0.01804687 2.79492188 0.02734375 C5.05105809 0.0507234 7.30663684 0.08349084 9.5625 0.125 C9.5625 0.785 9.5625 1.445 9.5625 2.125 C7.62697266 2.21587891 7.62697266 2.21587891 5.65234375 2.30859375 C3.93488745 2.39305881 2.21743998 2.47770377 0.5 2.5625 C-0.34755859 2.60181641 -1.19511719 2.64113281 -2.06835938 2.68164062 C-8.62830663 3.01090439 -15.00459257 3.76044388 -21.4375 5.125 C-15.17654984 -0.38463614 -7.88556742 -0.14760601 0 0 Z " fill="#AFAFB1" transform="translate(179.4375,117.875)"></path><path d="M0 0 C2 1 2 1 3.11279297 3.1628418 C4.12264894 6.39221336 4.22735762 9.0137709 4.1953125 12.39453125 C4.18564453 14.19760742 4.18564453 14.19760742 4.17578125 16.03710938 C4.15902344 17.28298828 4.14226562 18.52886719 4.125 19.8125 C4.11597656 21.07771484 4.10695312 22.34292969 4.09765625 23.64648438 C4.07412394 26.76451564 4.04124545 29.88216097 4 33 C3.34 33 2.68 33 2 33 C2.01047363 32.38068604 2.02094727 31.76137207 2.03173828 31.12329102 C2.07376099 28.26973665 2.09947127 25.41624774 2.125 22.5625 C2.14175781 21.58861328 2.15851563 20.61472656 2.17578125 19.61132812 C2.21272051 14.0889084 1.8282741 9.10977642 0.43310547 3.75756836 C0 2 0 2 0 0 Z " fill="#AAAAAC" transform="translate(234,158)"></path><path d="M0 0 C0.66 0.33 1.32 0.66 2 1 C-0.11905463 3.17277714 -2.24472878 5.33826908 -4.375 7.5 C-4.97828125 8.12003906 -5.5815625 8.74007812 -6.203125 9.37890625 C-6.78320312 9.96542969 -7.36328125 10.55195313 -7.9609375 11.15625 C-8.49509277 11.70087891 -9.02924805 12.24550781 -9.57958984 12.80664062 C-11 14 -11 14 -13 14 C-13 13.34 -13 12.68 -13 12 C-12.34 12 -11.68 12 -11 12 C-10.76539063 11.42765625 -10.53078125 10.8553125 -10.2890625 10.265625 C-8.70593415 7.48315699 -6.8008475 5.82929786 -4.375 3.75 C-3.55773437 3.04359375 -2.74046875 2.3371875 -1.8984375 1.609375 C-1.27195313 1.07828125 -0.64546875 0.5471875 0 0 Z " fill="#DCDCDD" transform="translate(146,128)"></path></svg>